<svg width="368" height="472" viewBox="0 0 368 472" fill="none" xmlns="http://www.w3.org/2000/svg">
<path d="M157 217.001C147.983 217 139.335 213.418 132.959 207.042C126.583 200.666 123.001 192.018 123.001 183C123.001 173.983 126.583 165.335 132.96 158.959C139.336 152.583 147.984 149.001 157.001 149.001L157.001 183.001L157 217.001Z" fill="url(#paint0_linear_1626_3326)"/>
<path d="M157.001 149.001C166.018 149.002 174.666 152.584 181.042 158.96C187.418 165.336 191 173.984 191 183.002C191 192.019 187.418 200.667 181.041 207.043C174.665 213.419 166.017 217.001 157 217.001L157 183.001L157.001 149.001Z" fill="url(#paint1_linear_1626_3326)"/>
<path d="M157.001 183.001C147.984 183 139.336 179.418 132.96 173.042C126.584 166.666 123.002 158.018 123.002 149C123.002 139.983 126.584 131.335 132.961 124.959C139.337 118.583 147.985 115.001 157.002 115.001L157.002 149.001L157.001 183.001Z" fill="url(#paint2_linear_1626_3326)"/>
<path d="M157.002 115.001C166.019 115.002 174.667 118.584 181.043 124.96C187.419 131.336 191.001 139.984 191.001 149.002C191.001 158.019 187.419 166.667 181.042 173.043C174.666 179.419 166.018 183.001 157.001 183.001L157.001 149.001L157.002 115.001Z" fill="url(#paint3_linear_1626_3326)"/>
<path d="M157.001 149.001C147.984 149 139.336 145.418 132.96 139.042C126.584 132.666 123.002 124.018 123.002 115C123.002 105.983 126.584 97.3352 132.961 90.9591C139.337 84.5831 147.985 81.0011 157.002 81.0013L157.002 115.001L157.001 149.001Z" fill="url(#paint4_linear_1626_3326)"/>
<path d="M157.002 81.0013C166.019 81.0015 174.667 84.5838 181.043 90.9601C187.419 97.3364 191.001 105.984 191.001 115.002C191.001 124.019 187.419 132.667 181.042 139.043C174.666 145.419 166.018 149.001 157.001 149.001L157.001 115.001L157.002 81.0013Z" fill="url(#paint5_linear_1626_3326)"/>
<path d="M273 136.001C263.983 136 255.335 132.418 248.959 126.042C242.583 119.666 239.001 111.018 239.001 102C239.001 92.983 242.583 84.3352 248.96 77.9591C255.336 71.5831 263.984 68.0011 273.001 68.0013L273.001 102.001L273 136.001Z" fill="url(#paint6_linear_1626_3326)"/>
<path d="M273.001 68.0013C282.018 68.0015 290.666 71.5838 297.042 77.9601C303.418 84.3364 307 92.9844 307 102.002C307 111.019 303.418 119.667 297.041 126.043C290.665 132.419 282.017 136.001 273 136.001L273 102.001L273.001 68.0013Z" fill="url(#paint7_linear_1626_3326)"/>
<path d="M273.001 102.001C263.984 102 255.336 98.4182 248.96 92.0419C242.584 85.6656 239.002 77.0176 239.002 68.0003C239.002 58.983 242.584 50.3352 248.961 43.9591C255.337 37.5831 263.985 34.0011 273.002 34.0013L273.002 68.001L273.001 102.001Z" fill="url(#paint8_linear_1626_3326)"/>
<path d="M273.002 34.0013C282.019 34.0015 290.667 37.5838 297.043 43.9601C303.419 50.3364 307.001 58.9844 307.001 68.0016C307.001 77.0189 303.419 85.6668 297.042 92.0428C290.666 98.4189 282.018 102.001 273.001 102.001L273.001 68.001L273.002 34.0013Z" fill="url(#paint9_linear_1626_3326)"/>
<path d="M273.001 68.0006C263.984 68.0004 255.336 64.4182 248.96 58.0419C242.584 51.6656 239.002 43.0176 239.002 34.0003C239.002 24.983 242.584 16.3352 248.961 9.95911C255.337 3.58306 263.985 0.00113027 273.002 0.00130168L273.002 34.001L273.001 68.0006Z" fill="url(#paint10_linear_1626_3326)"/>
<path d="M273.002 0.00133809C282.019 0.00151086 290.667 3.58377 297.043 9.96007C303.419 16.3364 307.001 24.9844 307.001 34.0016C307.001 43.0189 303.419 51.6668 297.042 58.0428C290.666 64.4189 282.018 68.0008 273.001 68.0007L273.001 34.001L273.002 0.00133809Z" fill="url(#paint11_linear_1626_3326)"/>
<path d="M209.749 302.999C204.777 302.999 200.008 301.024 196.491 297.507C192.975 293.991 191 289.222 191 284.249C191 279.276 192.976 274.507 196.492 270.991C200.008 267.475 204.777 265.5 209.75 265.5L209.75 284.249L209.749 302.999Z" fill="url(#paint12_linear_1626_3326)"/>
<path d="M209.751 265.499C214.723 265.499 219.492 267.474 223.009 270.991C226.525 274.507 228.5 279.276 228.5 284.249C228.5 289.222 226.524 293.991 223.008 297.507C219.492 301.023 214.723 302.999 209.75 302.998L209.75 284.249L209.751 265.499Z" fill="url(#paint13_linear_1626_3326)"/>
<path d="M209.749 284.249C204.777 284.249 200.008 282.274 196.491 278.757C192.975 275.241 191 270.472 191 265.499C191 260.526 192.976 255.757 196.492 252.241C200.008 248.725 204.777 246.75 209.75 246.75L209.75 265.499L209.749 284.249Z" fill="url(#paint14_linear_1626_3326)"/>
<path d="M209.751 246.749C214.723 246.749 219.492 248.724 223.009 252.241C226.525 255.757 228.5 260.526 228.5 265.499C228.5 270.472 226.524 275.241 223.008 278.757C219.492 282.273 214.723 284.249 209.75 284.248L209.75 265.499L209.751 246.749Z" fill="url(#paint15_linear_1626_3326)"/>
<path d="M209.75 265.501C204.778 265.501 200.009 263.526 196.492 260.009C192.976 256.493 191.001 251.724 191.001 246.751C191.001 241.778 192.977 237.009 196.493 233.493C200.009 229.977 204.778 228.001 209.751 228.002L209.751 246.751L209.75 265.501Z" fill="url(#paint16_linear_1626_3326)"/>
<path d="M209.752 228.001C214.724 228.001 219.493 229.976 223.01 233.493C226.526 237.009 228.501 241.778 228.501 246.751C228.501 251.724 226.525 256.493 223.009 260.009C219.493 263.525 214.724 265.5 209.751 265.5L209.751 246.751L209.752 228.001Z" fill="url(#paint17_linear_1626_3326)"/>
<path d="M62.2236 349.545C78.3425 349.545 93.8012 355.948 105.199 367.346C116.597 378.744 123 394.202 123 410.321C123 426.44 116.597 441.899 105.199 453.297C93.8012 464.694 78.3425 471.098 62.2236 471.098L62.2236 410.321L62.2236 349.545Z" fill="url(#paint18_linear_1626_3326)"/>
<path d="M62.2237 471.098C46.1048 471.098 30.6461 464.694 19.2483 453.297C7.85054 441.899 1.44733 426.44 1.44733 410.321C1.44733 394.202 7.85053 378.744 19.2483 367.346C30.6461 355.948 46.1048 349.545 62.2237 349.545L62.2237 410.321L62.2237 471.098Z" fill="url(#paint19_linear_1626_3326)"/>
<path d="M61.5 288.774C77.6189 288.774 93.0775 295.177 104.475 306.574C115.873 317.972 122.276 333.431 122.276 349.55C122.276 365.669 115.873 381.127 104.475 392.525C93.0776 403.923 77.6189 410.326 61.5 410.326L61.5 349.55L61.5 288.774Z" fill="url(#paint20_linear_1626_3326)"/>
<path d="M61.5 410.326C45.3811 410.326 29.9225 403.923 18.5247 392.525C7.12691 381.127 0.723701 365.669 0.723701 349.55C0.723701 333.431 7.1269 317.972 18.5247 306.574C29.9224 295.177 45.3811 288.773 61.5 288.773L61.5 349.55L61.5 410.326Z" fill="url(#paint21_linear_1626_3326)"/>
<path d="M60.7763 228C76.8952 228 92.3539 234.403 103.752 245.801C115.149 257.199 121.553 272.658 121.553 288.776C121.553 304.895 115.149 320.354 103.752 331.752C92.3539 343.15 76.8952 349.553 60.7763 349.553L60.7763 288.776L60.7763 228Z" fill="url(#paint22_linear_1626_3326)"/>
<path d="M60.7764 349.553C44.6575 349.553 29.1988 343.149 17.801 331.752C6.40327 320.354 6.86646e-05 304.895 6.86646e-05 288.776C6.86646e-05 272.657 6.40327 257.199 17.801 245.801C29.1988 234.403 44.6575 228 60.7764 228L60.7764 288.776L60.7764 349.553Z" fill="url(#paint23_linear_1626_3326)"/>
<path d="M319.083 286.829C332.056 286.829 344.499 291.983 353.672 301.157C362.846 310.33 368 322.773 368 335.747C368 348.72 362.846 361.163 353.672 370.336C344.499 379.51 332.056 384.664 319.083 384.664L319.083 335.747V286.829Z" fill="url(#paint24_linear_1626_3326)"/>
<path d="M319.082 384.663C306.109 384.663 293.666 379.509 284.493 370.336C275.319 361.162 270.165 348.719 270.165 335.746C270.165 322.772 275.319 310.33 284.493 301.156C293.666 291.982 306.109 286.828 319.082 286.828L319.082 335.746V384.663Z" fill="url(#paint25_linear_1626_3326)"/>
<path d="M318.5 237.915C331.473 237.915 343.916 243.069 353.089 252.243C362.263 261.416 367.417 273.859 367.417 286.832C367.417 299.806 362.263 312.249 353.089 321.422C343.916 330.596 331.473 335.75 318.5 335.75L318.5 286.832V237.915Z" fill="url(#paint26_linear_1626_3326)"/>
<path d="M318.499 335.749C305.526 335.749 293.083 330.595 283.91 321.422C274.736 312.248 269.582 299.805 269.582 286.832C269.582 273.858 274.736 261.415 283.91 252.242C293.083 243.068 305.526 237.914 318.499 237.914L318.499 286.832V335.749Z" fill="url(#paint27_linear_1626_3326)"/>
<path d="M317.918 188.999C330.891 188.999 343.334 194.153 352.507 203.327C361.681 212.5 366.835 224.943 366.835 237.916C366.835 250.89 361.681 263.333 352.507 272.506C343.334 281.68 330.891 286.834 317.918 286.834L317.918 237.916V188.999Z" fill="url(#paint28_linear_1626_3326)"/>
<path d="M317.917 286.835C304.944 286.835 292.501 281.681 283.328 272.507C274.154 263.334 269 250.891 269 237.918C269 224.944 274.154 212.501 283.328 203.328C292.501 194.154 304.944 189 317.917 189L317.917 237.918V286.835Z" fill="url(#paint29_linear_1626_3326)"/>
<defs>
<linearGradient id="paint0_linear_1626_3326" x1="157.001" y1="149.001" x2="157" y2="217.001" gradientUnits="userSpaceOnUse">
<stop stop-color="#FBD653" stop-opacity="0"/>
<stop offset="1" stop-color="#E2CF27"/>
</linearGradient>
<linearGradient id="paint1_linear_1626_3326" x1="157" y1="217.001" x2="157.001" y2="149.001" gradientUnits="userSpaceOnUse">
<stop stop-color="#FBD653" stop-opacity="0"/>
<stop offset="1" stop-color="#E2CF27"/>
</linearGradient>
<linearGradient id="paint2_linear_1626_3326" x1="157.002" y1="115.001" x2="157.001" y2="183.001" gradientUnits="userSpaceOnUse">
<stop stop-color="#FBD653" stop-opacity="0"/>
<stop offset="1" stop-color="#E2CF27"/>
</linearGradient>
<linearGradient id="paint3_linear_1626_3326" x1="157.001" y1="183.001" x2="157.002" y2="115.001" gradientUnits="userSpaceOnUse">
<stop stop-color="#FBD653" stop-opacity="0"/>
<stop offset="1" stop-color="#E2CF27"/>
</linearGradient>
<linearGradient id="paint4_linear_1626_3326" x1="157.002" y1="81.0013" x2="157.001" y2="149.001" gradientUnits="userSpaceOnUse">
<stop stop-color="#FBD653" stop-opacity="0"/>
<stop offset="1" stop-color="#E2CF27"/>
</linearGradient>
<linearGradient id="paint5_linear_1626_3326" x1="157.001" y1="149.001" x2="157.002" y2="81.0013" gradientUnits="userSpaceOnUse">
<stop stop-color="#FBD653" stop-opacity="0"/>
<stop offset="1" stop-color="#E2CF27"/>
</linearGradient>
<linearGradient id="paint6_linear_1626_3326" x1="273.001" y1="68.0013" x2="273" y2="136.001" gradientUnits="userSpaceOnUse">
<stop stop-color="#39A6BE" stop-opacity="0"/>
<stop offset="1" stop-color="#2788E2"/>
</linearGradient>
<linearGradient id="paint7_linear_1626_3326" x1="273" y1="136.001" x2="273.001" y2="68.0013" gradientUnits="userSpaceOnUse">
<stop stop-color="#39A6BE" stop-opacity="0"/>
<stop offset="1" stop-color="#2788E2"/>
</linearGradient>
<linearGradient id="paint8_linear_1626_3326" x1="273.002" y1="34.0013" x2="273.001" y2="102.001" gradientUnits="userSpaceOnUse">
<stop stop-color="#39A6BE" stop-opacity="0"/>
<stop offset="1" stop-color="#2788E2"/>
</linearGradient>
<linearGradient id="paint9_linear_1626_3326" x1="273.001" y1="102.001" x2="273.002" y2="34.0013" gradientUnits="userSpaceOnUse">
<stop stop-color="#39A6BE" stop-opacity="0"/>
<stop offset="1" stop-color="#2788E2"/>
</linearGradient>
<linearGradient id="paint10_linear_1626_3326" x1="273.002" y1="0.00130168" x2="273.001" y2="68.0006" gradientUnits="userSpaceOnUse">
<stop stop-color="#39A6BE" stop-opacity="0"/>
<stop offset="1" stop-color="#2788E2"/>
</linearGradient>
<linearGradient id="paint11_linear_1626_3326" x1="273.001" y1="68.0007" x2="273.002" y2="0.00133809" gradientUnits="userSpaceOnUse">
<stop stop-color="#39A6BE" stop-opacity="0"/>
<stop offset="1" stop-color="#2788E2"/>
</linearGradient>
<linearGradient id="paint12_linear_1626_3326" x1="209.75" y1="265.5" x2="209.749" y2="302.999" gradientUnits="userSpaceOnUse">
<stop stop-color="#E453FB" stop-opacity="0"/>
<stop offset="1" stop-color="#E270F4"/>
</linearGradient>
<linearGradient id="paint13_linear_1626_3326" x1="209.75" y1="302.998" x2="209.751" y2="265.499" gradientUnits="userSpaceOnUse">
<stop stop-color="#E453FB" stop-opacity="0"/>
<stop offset="1" stop-color="#E270F4"/>
</linearGradient>
<linearGradient id="paint14_linear_1626_3326" x1="209.75" y1="246.75" x2="209.749" y2="284.249" gradientUnits="userSpaceOnUse">
<stop stop-color="#E453FB" stop-opacity="0"/>
<stop offset="1" stop-color="#E270F4"/>
</linearGradient>
<linearGradient id="paint15_linear_1626_3326" x1="209.75" y1="284.248" x2="209.751" y2="246.749" gradientUnits="userSpaceOnUse">
<stop stop-color="#E453FB" stop-opacity="0"/>
<stop offset="1" stop-color="#E270F4"/>
</linearGradient>
<linearGradient id="paint16_linear_1626_3326" x1="209.751" y1="228.002" x2="209.75" y2="265.501" gradientUnits="userSpaceOnUse">
<stop stop-color="#E453FB" stop-opacity="0"/>
<stop offset="1" stop-color="#E270F4"/>
</linearGradient>
<linearGradient id="paint17_linear_1626_3326" x1="209.751" y1="265.5" x2="209.752" y2="228.001" gradientUnits="userSpaceOnUse">
<stop stop-color="#E453FB" stop-opacity="0"/>
<stop offset="1" stop-color="#E270F4"/>
</linearGradient>
<linearGradient id="paint18_linear_1626_3326" x1="62.2236" y1="471.098" x2="62.2236" y2="349.545" gradientUnits="userSpaceOnUse">
<stop stop-color="#FF4747" stop-opacity="0"/>
<stop offset="1" stop-color="#E86C26"/>
</linearGradient>
<linearGradient id="paint19_linear_1626_3326" x1="62.2237" y1="349.545" x2="62.2237" y2="471.098" gradientUnits="userSpaceOnUse">
<stop stop-color="#FF4747" stop-opacity="0"/>
<stop offset="1" stop-color="#E86C26"/>
</linearGradient>
<linearGradient id="paint20_linear_1626_3326" x1="61.5" y1="410.326" x2="61.5" y2="288.774" gradientUnits="userSpaceOnUse">
<stop stop-color="#FF4747" stop-opacity="0"/>
<stop offset="1" stop-color="#E86C26"/>
</linearGradient>
<linearGradient id="paint21_linear_1626_3326" x1="61.5" y1="288.773" x2="61.5" y2="410.326" gradientUnits="userSpaceOnUse">
<stop stop-color="#FF4747" stop-opacity="0"/>
<stop offset="1" stop-color="#E86C26"/>
</linearGradient>
<linearGradient id="paint22_linear_1626_3326" x1="60.7763" y1="349.553" x2="60.7763" y2="228" gradientUnits="userSpaceOnUse">
<stop stop-color="#FF4747" stop-opacity="0"/>
<stop offset="1" stop-color="#E86C26"/>
</linearGradient>
<linearGradient id="paint23_linear_1626_3326" x1="60.7764" y1="228" x2="60.7764" y2="349.553" gradientUnits="userSpaceOnUse">
<stop stop-color="#FF4747" stop-opacity="0"/>
<stop offset="1" stop-color="#E86C26"/>
</linearGradient>
<linearGradient id="paint24_linear_1626_3326" x1="319.083" y1="384.664" x2="319.083" y2="286.829" gradientUnits="userSpaceOnUse">
<stop stop-color="#475AFF" stop-opacity="0"/>
<stop offset="1" stop-color="#9BAEF0"/>
</linearGradient>
<linearGradient id="paint25_linear_1626_3326" x1="319.082" y1="286.828" x2="319.082" y2="384.663" gradientUnits="userSpaceOnUse">
<stop stop-color="#475AFF" stop-opacity="0"/>
<stop offset="1" stop-color="#9BAEF0"/>
</linearGradient>
<linearGradient id="paint26_linear_1626_3326" x1="318.5" y1="335.75" x2="318.5" y2="237.915" gradientUnits="userSpaceOnUse">
<stop stop-color="#475AFF" stop-opacity="0"/>
<stop offset="1" stop-color="#9BAEF0"/>
</linearGradient>
<linearGradient id="paint27_linear_1626_3326" x1="318.499" y1="237.914" x2="318.499" y2="335.749" gradientUnits="userSpaceOnUse">
<stop stop-color="#475AFF" stop-opacity="0"/>
<stop offset="1" stop-color="#9BAEF0"/>
</linearGradient>
<linearGradient id="paint28_linear_1626_3326" x1="317.918" y1="286.834" x2="317.918" y2="188.999" gradientUnits="userSpaceOnUse">
<stop stop-color="#475AFF" stop-opacity="0"/>
<stop offset="1" stop-color="#9BAEF0"/>
</linearGradient>
<linearGradient id="paint29_linear_1626_3326" x1="317.917" y1="189" x2="317.917" y2="286.835" gradientUnits="userSpaceOnUse">
<stop stop-color="#475AFF" stop-opacity="0"/>
<stop offset="1" stop-color="#9BAEF0"/>
</linearGradient>
</defs>
</svg>
