<svg width="504" height="663" viewBox="0 0 504 663" fill="none" xmlns="http://www.w3.org/2000/svg">
<path d="M248.864 519.893C272.174 518.461 291.553 510.395 304.257 495.152C342.777 448.933 305.332 354.232 220.622 283.632C135.911 213.032 36.0126 193.268 -2.50733 239.487C-15.2112 254.73 -19.6525 275.246 -16.8608 298.432C30.507 295.521 94.1019 320.003 150.875 367.319C207.648 414.635 243.191 472.776 248.864 519.893Z" fill="url(#paint0_linear_1315_4949)"/>
<path d="M81.1289 451.007C165.84 521.607 265.738 541.371 304.258 495.152L234.511 578.839C195.991 625.058 96.0931 605.293 11.3824 534.693C-73.3284 464.093 -110.773 369.393 -72.2534 323.174L-2.50684 239.487C-41.0268 285.706 -3.5818 380.407 81.1289 451.007Z" fill="url(#paint1_linear_1315_4949)"/>
<path d="M312.957 396.293C332.299 395.104 348.38 388.411 358.922 375.763C390.885 337.411 359.814 258.83 289.522 200.247C219.23 141.664 136.336 125.263 104.372 163.615C93.8307 176.264 90.1454 193.288 92.4619 212.527C131.767 210.111 184.537 230.427 231.647 269.689C278.757 308.951 308.25 357.196 312.957 396.293Z" fill="url(#paint2_linear_1315_4949)"/>
<path d="M173.772 339.131C244.064 397.714 326.958 414.115 358.921 375.763L301.047 445.205C269.083 483.557 186.189 467.156 115.897 408.573C45.6052 349.991 14.5339 271.409 46.4973 233.057L104.372 163.615C72.4087 201.967 103.48 280.548 173.772 339.131Z" fill="url(#paint3_linear_1315_4949)"/>
<path d="M368.859 283.969C384.289 283.021 397.117 277.682 405.526 267.592C431.024 236.998 406.238 174.312 350.164 127.579C294.091 80.8463 227.965 67.7633 202.467 98.3574C194.058 108.447 191.118 122.028 192.966 137.375C224.32 135.448 266.416 151.654 303.996 182.975C341.577 214.295 365.104 252.781 368.859 283.969Z" fill="url(#paint4_linear_1315_4949)"/>
<path d="M259.06 235.28C315.133 282.013 381.26 295.096 406.758 264.502L360.59 319.898C335.092 350.492 268.965 337.409 212.892 290.676C156.819 243.943 132.032 181.257 157.53 150.663L203.698 95.2676C178.2 125.862 202.987 188.548 259.06 235.28Z" fill="url(#paint5_linear_1315_4949)"/>
<defs>
<linearGradient id="paint0_linear_1315_4949" x1="220.622" y1="283.632" x2="124.72" y2="398.702" gradientUnits="userSpaceOnUse">
<stop stop-color="#C79AE9"/>
<stop offset="1" stop-color="#413687"/>
</linearGradient>
<linearGradient id="paint1_linear_1315_4949" x1="110.19" y1="416.137" x2="11.3824" y2="534.693" gradientUnits="userSpaceOnUse">
<stop stop-color="#E4CBF8"/>
<stop offset="0.419792" stop-color="#C79AE9"/>
<stop offset="1" stop-color="#413687"/>
</linearGradient>
<linearGradient id="paint2_linear_1315_4949" x1="289.522" y1="200.247" x2="209.944" y2="295.73" gradientUnits="userSpaceOnUse">
<stop stop-color="#C79AE9"/>
<stop offset="1" stop-color="#413687"/>
</linearGradient>
<linearGradient id="paint3_linear_1315_4949" x1="197.886" y1="310.197" x2="115.897" y2="408.573" gradientUnits="userSpaceOnUse">
<stop stop-color="#E4CBF8"/>
<stop offset="0.419792" stop-color="#C79AE9"/>
<stop offset="1" stop-color="#413687"/>
</linearGradient>
<linearGradient id="paint4_linear_1315_4949" x1="350.164" y1="127.579" x2="286.683" y2="203.748" gradientUnits="userSpaceOnUse">
<stop stop-color="#C79AE9"/>
<stop offset="1" stop-color="#413687"/>
</linearGradient>
<linearGradient id="paint5_linear_1315_4949" x1="278.297" y1="212.199" x2="212.892" y2="290.676" gradientUnits="userSpaceOnUse">
<stop stop-color="#E4CBF8"/>
<stop offset="0.419792" stop-color="#C79AE9"/>
<stop offset="1" stop-color="#413687"/>
</linearGradient>
</defs>
</svg>
