<svg width="321" height="94" viewBox="0 0 321 94" fill="none" xmlns="http://www.w3.org/2000/svg">
<rect x="76" y="62" width="113" height="32" fill="url(#paint0_linear_1354_3295)"/>
<rect y="27" width="102" height="22" fill="url(#paint1_linear_1354_3295)"/>
<rect x="177" width="144" height="14" fill="url(#paint2_linear_1354_3295)"/>
<rect width="164" height="22" transform="matrix(-1 8.74228e-08 8.74228e-08 1 280 27)" fill="url(#paint3_linear_1354_3295)"/>
<rect width="64" height="14" transform="matrix(-1 8.74228e-08 8.74228e-08 1 162 0)" fill="url(#paint4_linear_1354_3295)"/>
<rect width="114" height="14" transform="matrix(-1 8.74228e-08 8.74228e-08 1 315 64)" fill="url(#paint5_linear_1354_3295)"/>
<defs>
<linearGradient id="paint0_linear_1354_3295" x1="124.213" y1="78" x2="194.273" y2="78" gradientUnits="userSpaceOnUse">
<stop stop-color="#48BAA9"/>
<stop offset="1" stop-color="#413687"/>
</linearGradient>
<linearGradient id="paint1_linear_1354_3295" x1="43.52" y1="38" x2="106.76" y2="38" gradientUnits="userSpaceOnUse">
<stop stop-color="#48BAA9"/>
<stop offset="1" stop-color="#413687"/>
</linearGradient>
<linearGradient id="paint2_linear_1354_3295" x1="238.44" y1="7" x2="327.72" y2="6.99999" gradientUnits="userSpaceOnUse">
<stop stop-color="#48BAA9"/>
<stop offset="1" stop-color="#413687"/>
</linearGradient>
<linearGradient id="paint3_linear_1354_3295" x1="69.9733" y1="11" x2="171.653" y2="11" gradientUnits="userSpaceOnUse">
<stop stop-color="#E22727"/>
<stop offset="1" stop-color="#413687"/>
</linearGradient>
<linearGradient id="paint4_linear_1354_3295" x1="27.3067" y1="7" x2="66.9867" y2="7" gradientUnits="userSpaceOnUse">
<stop stop-color="#F8A22D"/>
<stop offset="1" stop-color="#413687"/>
</linearGradient>
<linearGradient id="paint5_linear_1354_3295" x1="48.64" y1="7" x2="119.32" y2="6.99999" gradientUnits="userSpaceOnUse">
<stop stop-color="#F8A22D"/>
<stop offset="1" stop-color="#413687"/>
</linearGradient>
</defs>
</svg>
