<svg width="321" height="94" viewBox="0 0 321 94" fill="none" xmlns="http://www.w3.org/2000/svg">
<rect width="113" height="32" transform="matrix(-1 0 0 1 245 62)" fill="url(#paint0_linear_1354_3288)"/>
<rect width="102" height="22" transform="matrix(-1 0 0 1 321 27)" fill="url(#paint1_linear_1354_3288)"/>
<rect width="144" height="14" transform="matrix(-1 0 0 1 144 0)" fill="url(#paint2_linear_1354_3288)"/>
<rect x="41" y="27" width="164" height="22" fill="url(#paint3_linear_1354_3288)"/>
<rect x="159" width="64" height="14" fill="url(#paint4_linear_1354_3288)"/>
<rect x="6" y="64" width="114" height="14" fill="url(#paint5_linear_1354_3288)"/>
<defs>
<linearGradient id="paint0_linear_1354_3288" x1="48.2133" y1="16" x2="118.273" y2="16" gradientUnits="userSpaceOnUse">
<stop stop-color="#48BAA9"/>
<stop offset="1" stop-color="#413687"/>
</linearGradient>
<linearGradient id="paint1_linear_1354_3288" x1="43.52" y1="11" x2="106.76" y2="11" gradientUnits="userSpaceOnUse">
<stop stop-color="#48BAA9"/>
<stop offset="1" stop-color="#413687"/>
</linearGradient>
<linearGradient id="paint2_linear_1354_3288" x1="61.44" y1="7" x2="150.72" y2="6.99999" gradientUnits="userSpaceOnUse">
<stop stop-color="#48BAA9"/>
<stop offset="1" stop-color="#413687"/>
</linearGradient>
<linearGradient id="paint3_linear_1354_3288" x1="110.973" y1="38" x2="212.653" y2="38" gradientUnits="userSpaceOnUse">
<stop stop-color="#E22727"/>
<stop offset="1" stop-color="#413687"/>
</linearGradient>
<linearGradient id="paint4_linear_1354_3288" x1="186.307" y1="7" x2="225.987" y2="7" gradientUnits="userSpaceOnUse">
<stop stop-color="#F8A22D"/>
<stop offset="1" stop-color="#413687"/>
</linearGradient>
<linearGradient id="paint5_linear_1354_3288" x1="54.64" y1="71" x2="125.32" y2="71" gradientUnits="userSpaceOnUse">
<stop stop-color="#F8A22D"/>
<stop offset="1" stop-color="#413687"/>
</linearGradient>
</defs>
</svg>
