<svg width="177" height="165" viewBox="0 0 177 165" fill="none" xmlns="http://www.w3.org/2000/svg">
<path d="M111.91 131.538H63.9484C58.903 131.538 54.8129 135.671 54.8129 140.769V151.154H52.529C50.0063 151.154 47.9613 153.22 47.9613 155.769V160.385C47.9613 162.934 50.0063 165 52.529 165H123.329C125.852 165 127.897 162.934 127.897 160.385V155.769C127.897 153.22 125.852 151.154 123.329 151.154H121.045V140.769C121.045 135.671 116.955 131.538 111.91 131.538Z" fill="#5446A5"/>
<path d="M111.91 131.538H63.9484C58.903 131.538 54.8129 135.671 54.8129 140.769V151.154H52.529C50.0063 151.154 47.9613 153.22 47.9613 155.769V160.385C47.9613 162.934 50.0063 165 52.529 165H123.329C125.852 165 127.897 162.934 127.897 160.385V155.769C127.897 153.22 125.852 151.154 123.329 151.154H121.045V140.769C121.045 135.671 116.955 131.538 111.91 131.538Z" fill="url(#paint0_linear_1354_3226)"/>
<path fill-rule="evenodd" clip-rule="evenodd" d="M146.168 0H29.6903C28.429 0 27.4065 1.03319 27.4065 2.30769V8.84615C27.4065 10.9703 29.1107 12.6923 31.2129 12.6923C32.264 12.6923 33.1161 13.5533 33.1161 14.6154V26.5385C33.1161 27.813 32.0936 28.8462 30.8323 28.8462H2.28387C1.02252 28.8462 0 29.8793 0 31.1538V51.9051C0 57.1452 1.76499 62.2293 5.00468 66.3211L9.13548 71.5385L25.1226 83.0769L43.3935 91.1538L57.0968 96.9231L69.658 112.335C71.8272 114.997 75.0607 116.538 78.4729 116.538H97.3851C100.797 116.538 104.031 114.997 106.2 112.335L118.761 96.9231L133.606 91.1538L150.735 83.0769L166.723 71.5385L171.137 66.5822C174.912 62.3447 177 56.8455 177 51.1446V31.1538C177 29.8793 175.977 28.8462 174.716 28.8462H145.026C143.764 28.8462 142.742 27.813 142.742 26.5385V14.6154C142.742 13.5533 143.594 12.6923 144.645 12.6923C146.747 12.6923 148.452 10.9703 148.452 8.84615V2.30769C148.452 1.03319 147.429 0 146.168 0ZM33.1161 41.5385H15.7032C14.5987 41.5385 13.7032 42.4339 13.7032 43.5385V55.2336C13.7032 58.1703 15.3123 60.871 17.8949 62.269L45.6774 77.3077L33.1161 41.5385ZM163.297 43.5385C163.297 42.4339 162.401 41.5385 161.297 41.5385H142.742L130.181 77.3077L157.929 62.8056C161.228 61.081 163.297 57.6661 163.297 53.943V43.5385Z" fill="#5446A5"/>
<path fill-rule="evenodd" clip-rule="evenodd" d="M146.168 0H29.6903C28.429 0 27.4065 1.03319 27.4065 2.30769V8.84615C27.4065 10.9703 29.1107 12.6923 31.2129 12.6923C32.264 12.6923 33.1161 13.5533 33.1161 14.6154V26.5385C33.1161 27.813 32.0936 28.8462 30.8323 28.8462H2.28387C1.02252 28.8462 0 29.8793 0 31.1538V51.9051C0 57.1452 1.76499 62.2293 5.00468 66.3211L9.13548 71.5385L25.1226 83.0769L43.3935 91.1538L57.0968 96.9231L69.658 112.335C71.8272 114.997 75.0607 116.538 78.4729 116.538H97.3851C100.797 116.538 104.031 114.997 106.2 112.335L118.761 96.9231L133.606 91.1538L150.735 83.0769L166.723 71.5385L171.137 66.5822C174.912 62.3447 177 56.8455 177 51.1446V31.1538C177 29.8793 175.977 28.8462 174.716 28.8462H145.026C143.764 28.8462 142.742 27.813 142.742 26.5385V14.6154C142.742 13.5533 143.594 12.6923 144.645 12.6923C146.747 12.6923 148.452 10.9703 148.452 8.84615V2.30769C148.452 1.03319 147.429 0 146.168 0ZM33.1161 41.5385H15.7032C14.5987 41.5385 13.7032 42.4339 13.7032 43.5385V55.2336C13.7032 58.1703 15.3123 60.871 17.8949 62.269L45.6774 77.3077L33.1161 41.5385ZM163.297 43.5385C163.297 42.4339 162.401 41.5385 161.297 41.5385H142.742L130.181 77.3077L157.929 62.8056C161.228 61.081 163.297 57.6661 163.297 53.943V43.5385Z" fill="url(#paint1_linear_1354_3226)"/>
<defs>
<linearGradient id="paint0_linear_1354_3226" x1="0" y1="0" x2="164.594" y2="176.565" gradientUnits="userSpaceOnUse">
<stop stop-color="#F8A22D"/>
<stop offset="1" stop-color="#EA5455"/>
</linearGradient>
<linearGradient id="paint1_linear_1354_3226" x1="0" y1="0" x2="164.594" y2="176.565" gradientUnits="userSpaceOnUse">
<stop stop-color="#F8A22D"/>
<stop offset="1" stop-color="#EA5455"/>
</linearGradient>
</defs>
</svg>
