<svg width="267" height="316" viewBox="0 0 267 316" fill="none" xmlns="http://www.w3.org/2000/svg">
<path d="M132 5L132 311" stroke="url(#paint0_linear_1607_3535)" stroke-width="10" stroke-linecap="round"/>
<circle cx="133" cy="65" r="14" transform="rotate(-90 133 65)" fill="#F8A22D"/>
<circle cx="133" cy="153" r="14" transform="rotate(-90 133 153)" fill="#F8A22D"/>
<circle cx="133" cy="241" r="14" transform="rotate(-90 133 241)" fill="#F8A22D"/>
<path d="M8.48323 70.21C7.47523 70.21 6.6119 69.9907 5.89323 69.552C5.17457 69.1087 4.62157 68.4927 4.23423 67.704C3.85157 66.9153 3.66023 66.0007 3.66023 64.96C3.66023 63.9193 3.85157 63.0047 4.23423 62.216C4.62157 61.4273 5.17457 60.8137 5.89323 60.375C6.6119 59.9317 7.47523 59.71 8.48323 59.71C9.49123 59.71 10.3546 59.9317 11.0732 60.375C11.7966 60.8137 12.3496 61.4273 12.7322 62.216C13.1196 63.0047 13.3132 63.9193 13.3132 64.96C13.3132 66.0007 13.1196 66.9153 12.7322 67.704C12.3496 68.4927 11.7966 69.1087 11.0732 69.552C10.3546 69.9907 9.49123 70.21 8.48323 70.21ZM8.48323 68.621C9.1599 68.6257 9.72223 68.4763 10.1702 68.173C10.6229 67.8697 10.9612 67.4427 11.1852 66.892C11.4139 66.3413 11.5282 65.6973 11.5282 64.96C11.5282 64.2227 11.4139 63.5833 11.1852 63.042C10.9612 62.496 10.6229 62.0713 10.1702 61.768C9.72223 61.4647 9.1599 61.3083 8.48323 61.299C7.80657 61.2943 7.24423 61.4437 6.79623 61.747C6.34823 62.0503 6.0099 62.4773 5.78123 63.028C5.55723 63.5787 5.44523 64.2227 5.44523 64.96C5.44523 65.6973 5.55723 66.339 5.78123 66.885C6.00523 67.4263 6.34123 67.8487 6.78923 68.152C7.2419 68.4553 7.80657 68.6117 8.48323 68.621ZM17.9896 70.21C17.2102 70.21 16.5452 70.0373 15.9946 69.692C15.4439 69.342 15.0216 68.866 14.7276 68.264C14.4382 67.662 14.2912 66.9807 14.2866 66.22C14.2912 65.4453 14.4429 64.7593 14.7416 64.162C15.0449 63.56 15.4742 63.0887 16.0296 62.748C16.5849 62.4027 17.2452 62.23 18.0106 62.23C18.8692 62.23 19.5949 62.447 20.1876 62.881C20.7849 63.3103 21.1746 63.8983 21.3566 64.645L19.6766 65.1C19.5459 64.694 19.3289 64.379 19.0256 64.155C18.7222 63.9263 18.3769 63.812 17.9896 63.812C17.5509 63.812 17.1892 63.917 16.9046 64.127C16.6199 64.3323 16.4099 64.617 16.2746 64.981C16.1392 65.345 16.0716 65.758 16.0716 66.22C16.0716 66.9387 16.2326 67.5197 16.5546 67.963C16.8766 68.4063 17.3549 68.628 17.9896 68.628C18.4376 68.628 18.7899 68.5253 19.0466 68.32C19.3079 68.1147 19.5039 67.8183 19.6346 67.431L21.3566 67.816C21.1232 68.586 20.7149 69.1787 20.1316 69.594C19.5482 70.0047 18.8342 70.21 17.9896 70.21ZM27.1903 70C26.691 70.0933 26.201 70.133 25.7203 70.119C25.2443 70.1097 24.8173 70.0233 24.4393 69.86C24.0613 69.692 23.7743 69.4283 23.5783 69.069C23.4056 68.7423 23.3146 68.4087 23.3053 68.068C23.296 67.7273 23.2913 67.3423 23.2913 66.913V60.34H24.9713V66.815C24.9713 67.1183 24.9736 67.3843 24.9783 67.613C24.9876 67.8417 25.0366 68.0283 25.1253 68.173C25.2933 68.453 25.5616 68.6093 25.9303 68.642C26.299 68.6747 26.719 68.656 27.1903 68.586V70ZM21.9193 63.763V62.44H27.1903V63.763H21.9193ZM34.8737 59.724C35.5317 59.724 36.1243 59.8803 36.6517 60.193C37.179 60.501 37.5943 60.9303 37.8977 61.481C38.2057 62.027 38.3597 62.657 38.3597 63.371V66.444C38.3597 67.2047 38.2057 67.8697 37.8977 68.439C37.5943 69.0037 37.1673 69.44 36.6167 69.748C36.066 70.056 35.422 70.21 34.6847 70.21C34.176 70.21 33.6953 70.1237 33.2427 69.951C32.79 69.7737 32.384 69.503 32.0247 69.139L33.2357 67.956C33.4177 68.166 33.6347 68.3317 33.8867 68.453C34.1433 68.5697 34.4093 68.628 34.6847 68.628C35.0767 68.628 35.4197 68.537 35.7137 68.355C36.0077 68.1683 36.2363 67.928 36.3997 67.634C36.563 67.3353 36.6447 67.0157 36.6447 66.675V65.002L36.9457 65.338C36.661 65.674 36.3157 65.9377 35.9097 66.129C35.5037 66.3157 35.0767 66.409 34.6287 66.409C33.9987 66.409 33.4387 66.2643 32.9487 65.975C32.4633 65.6857 32.0807 65.2937 31.8007 64.799C31.5253 64.2997 31.3877 63.735 31.3877 63.105C31.3877 62.475 31.5463 61.9057 31.8637 61.397C32.181 60.8837 32.6033 60.4777 33.1307 60.179C33.6627 59.8757 34.2437 59.724 34.8737 59.724ZM34.8737 61.334C34.547 61.334 34.2483 61.4133 33.9777 61.572C33.707 61.7307 33.4923 61.9453 33.3337 62.216C33.175 62.482 33.0957 62.7783 33.0957 63.105C33.0957 63.4317 33.1727 63.7303 33.3267 64.001C33.4853 64.2717 33.6977 64.4863 33.9637 64.645C34.2343 64.8037 34.533 64.883 34.8597 64.883C35.1863 64.883 35.485 64.8037 35.7557 64.645C36.0263 64.4863 36.241 64.2717 36.3997 64.001C36.563 63.7303 36.6447 63.4317 36.6447 63.105C36.6447 62.7877 36.5653 62.496 36.4067 62.23C36.248 61.9593 36.0333 61.7423 35.7627 61.579C35.4967 61.4157 35.2003 61.334 34.8737 61.334ZM42.9767 66.248V64.925H47.1767V66.248H42.9767ZM56.0614 70.21C55.0534 70.21 54.19 69.9907 53.4714 69.552C52.7527 69.1087 52.1997 68.4927 51.8124 67.704C51.4297 66.9153 51.2384 66.0007 51.2384 64.96C51.2384 63.9193 51.4297 63.0047 51.8124 62.216C52.1997 61.4273 52.7527 60.8137 53.4714 60.375C54.19 59.9317 55.0534 59.71 56.0614 59.71C57.0694 59.71 57.9327 59.9317 58.6514 60.375C59.3747 60.8137 59.9277 61.4273 60.3104 62.216C60.6977 63.0047 60.8914 63.9193 60.8914 64.96C60.8914 66.0007 60.6977 66.9153 60.3104 67.704C59.9277 68.4927 59.3747 69.1087 58.6514 69.552C57.9327 69.9907 57.0694 70.21 56.0614 70.21ZM56.0614 68.621C56.738 68.6257 57.3004 68.4763 57.7484 68.173C58.201 67.8697 58.5394 67.4427 58.7634 66.892C58.992 66.3413 59.1064 65.6973 59.1064 64.96C59.1064 64.2227 58.992 63.5833 58.7634 63.042C58.5394 62.496 58.201 62.0713 57.7484 61.768C57.3004 61.4647 56.738 61.3083 56.0614 61.299C55.3847 61.2943 54.8224 61.4437 54.3744 61.747C53.9264 62.0503 53.588 62.4773 53.3594 63.028C53.1354 63.5787 53.0234 64.2227 53.0234 64.96C53.0234 65.6973 53.1354 66.339 53.3594 66.885C53.5834 67.4263 53.9194 67.8487 54.3674 68.152C54.82 68.4553 55.3847 68.6117 56.0614 68.621ZM65.5677 70.21C64.7884 70.21 64.1234 70.0373 63.5727 69.692C63.022 69.342 62.5997 68.866 62.3057 68.264C62.0164 67.662 61.8694 66.9807 61.8647 66.22C61.8694 65.4453 62.021 64.7593 62.3197 64.162C62.623 63.56 63.0524 63.0887 63.6077 62.748C64.163 62.4027 64.8234 62.23 65.5887 62.23C66.4474 62.23 67.173 62.447 67.7657 62.881C68.363 63.3103 68.7527 63.8983 68.9347 64.645L67.2547 65.1C67.124 64.694 66.907 64.379 66.6037 64.155C66.3004 63.9263 65.955 63.812 65.5677 63.812C65.129 63.812 64.7674 63.917 64.4827 64.127C64.198 64.3323 63.988 64.617 63.8527 64.981C63.7174 65.345 63.6497 65.758 63.6497 66.22C63.6497 66.9387 63.8107 67.5197 64.1327 67.963C64.4547 68.4063 64.933 68.628 65.5677 68.628C66.0157 68.628 66.368 68.5253 66.6247 68.32C66.886 68.1147 67.082 67.8183 67.2127 67.431L68.9347 67.816C68.7014 68.586 68.293 69.1787 67.7097 69.594C67.1264 70.0047 66.4124 70.21 65.5677 70.21ZM74.7684 70C74.2691 70.0933 73.7791 70.133 73.2984 70.119C72.8224 70.1097 72.3954 70.0233 72.0174 69.86C71.6394 69.692 71.3524 69.4283 71.1564 69.069C70.9838 68.7423 70.8928 68.4087 70.8834 68.068C70.8741 67.7273 70.8694 67.3423 70.8694 66.913V60.34H72.5494V66.815C72.5494 67.1183 72.5518 67.3843 72.5564 67.613C72.5658 67.8417 72.6148 68.0283 72.7034 68.173C72.8714 68.453 73.1398 68.6093 73.5084 68.642C73.8771 68.6747 74.2971 68.656 74.7684 68.586V70ZM69.4974 63.763V62.44H74.7684V63.763H69.4974ZM78.9168 69.986V68.516L83.2288 64.673C83.5648 64.3743 83.7981 64.092 83.9288 63.826C84.0595 63.56 84.1248 63.3033 84.1248 63.056C84.1248 62.72 84.0525 62.4213 83.9078 62.16C83.7631 61.894 83.5625 61.684 83.3058 61.53C83.0538 61.376 82.7621 61.299 82.4308 61.299C82.0808 61.299 81.7705 61.3807 81.4998 61.544C81.2338 61.7027 81.0261 61.915 80.8768 62.181C80.7275 62.447 80.6575 62.734 80.6668 63.042H78.9308C78.9308 62.37 79.0801 61.7843 79.3788 61.285C79.6821 60.7857 80.0975 60.3983 80.6248 60.123C81.1568 59.8477 81.7705 59.71 82.4658 59.71C83.1098 59.71 83.6885 59.8547 84.2018 60.144C84.7151 60.4287 85.1188 60.8253 85.4128 61.334C85.7068 61.838 85.8538 62.419 85.8538 63.077C85.8538 63.5577 85.7885 63.9613 85.6578 64.288C85.5271 64.6147 85.3311 64.9157 85.0698 65.191C84.8131 65.4663 84.4935 65.772 84.1108 66.108L81.0518 68.817L80.8978 68.397H85.8538V69.986H78.9168ZM90.7916 59.724C91.4496 59.724 92.0423 59.8803 92.5696 60.193C93.097 60.501 93.5123 60.9303 93.8156 61.481C94.1236 62.027 94.2776 62.657 94.2776 63.371V66.444C94.2776 67.2047 94.1236 67.8697 93.8156 68.439C93.5123 69.0037 93.0853 69.44 92.5346 69.748C91.984 70.056 91.34 70.21 90.6026 70.21C90.094 70.21 89.6133 70.1237 89.1606 69.951C88.708 69.7737 88.302 69.503 87.9426 69.139L89.1536 67.956C89.3356 68.166 89.5526 68.3317 89.8046 68.453C90.0613 68.5697 90.3273 68.628 90.6026 68.628C90.9946 68.628 91.3376 68.537 91.6316 68.355C91.9256 68.1683 92.1543 67.928 92.3176 67.634C92.481 67.3353 92.5626 67.0157 92.5626 66.675V65.002L92.8636 65.338C92.579 65.674 92.2336 65.9377 91.8276 66.129C91.4216 66.3157 90.9946 66.409 90.5466 66.409C89.9166 66.409 89.3566 66.2643 88.8666 65.975C88.3813 65.6857 87.9986 65.2937 87.7186 64.799C87.4433 64.2997 87.3056 63.735 87.3056 63.105C87.3056 62.475 87.4643 61.9057 87.7816 61.397C88.099 60.8837 88.5213 60.4777 89.0486 60.179C89.5806 59.8757 90.1616 59.724 90.7916 59.724ZM90.7916 61.334C90.465 61.334 90.1663 61.4133 89.8956 61.572C89.625 61.7307 89.4103 61.9453 89.2516 62.216C89.093 62.482 89.0136 62.7783 89.0136 63.105C89.0136 63.4317 89.0906 63.7303 89.2446 64.001C89.4033 64.2717 89.6156 64.4863 89.8816 64.645C90.1523 64.8037 90.451 64.883 90.7776 64.883C91.1043 64.883 91.403 64.8037 91.6736 64.645C91.9443 64.4863 92.159 64.2717 92.3176 64.001C92.481 63.7303 92.5626 63.4317 92.5626 63.105C92.5626 62.7877 92.4833 62.496 92.3246 62.23C92.166 61.9593 91.9513 61.7423 91.6806 61.579C91.4146 61.4157 91.1183 61.334 90.7916 61.334ZM97.415 64.911L96.204 64.036L97.261 62.797L95.672 62.37L96.134 60.949L97.653 61.572L97.548 59.92H99.046L98.941 61.572L100.453 60.949L100.915 62.37L99.333 62.797L100.383 64.036L99.172 64.911L98.297 63.539L97.415 64.911Z" fill="white"/>
<path d="M7.62874 158.21C6.62074 158.21 5.75741 157.991 5.03874 157.552C4.32008 157.109 3.76708 156.493 3.37974 155.704C2.99708 154.915 2.80574 154.001 2.80574 152.96C2.80574 151.919 2.99708 151.005 3.37974 150.216C3.76708 149.427 4.32008 148.814 5.03874 148.375C5.75741 147.932 6.62074 147.71 7.62874 147.71C8.63674 147.71 9.50008 147.932 10.2187 148.375C10.9421 148.814 11.4951 149.427 11.8777 150.216C12.2651 151.005 12.4587 151.919 12.4587 152.96C12.4587 154.001 12.2651 154.915 11.8777 155.704C11.4951 156.493 10.9421 157.109 10.2187 157.552C9.50008 157.991 8.63674 158.21 7.62874 158.21ZM7.62874 156.621C8.30541 156.626 8.86774 156.476 9.31574 156.173C9.76841 155.87 10.1067 155.443 10.3307 154.892C10.5594 154.341 10.6737 153.697 10.6737 152.96C10.6737 152.223 10.5594 151.583 10.3307 151.042C10.1067 150.496 9.76841 150.071 9.31574 149.768C8.86774 149.465 8.30541 149.308 7.62874 149.299C6.95208 149.294 6.38974 149.444 5.94174 149.747C5.49374 150.05 5.15541 150.477 4.92674 151.028C4.70274 151.579 4.59074 152.223 4.59074 152.96C4.59074 153.697 4.70274 154.339 4.92674 154.885C5.15074 155.426 5.48674 155.849 5.93474 156.152C6.38741 156.455 6.95208 156.612 7.62874 156.621ZM17.1351 158.21C16.3557 158.21 15.6907 158.037 15.1401 157.692C14.5894 157.342 14.1671 156.866 13.8731 156.264C13.5837 155.662 13.4367 154.981 13.4321 154.22C13.4367 153.445 13.5884 152.759 13.8871 152.162C14.1904 151.56 14.6197 151.089 15.1751 150.748C15.7304 150.403 16.3907 150.23 17.1561 150.23C18.0147 150.23 18.7404 150.447 19.3331 150.881C19.9304 151.31 20.3201 151.898 20.5021 152.645L18.8221 153.1C18.6914 152.694 18.4744 152.379 18.1711 152.155C17.8677 151.926 17.5224 151.812 17.1351 151.812C16.6964 151.812 16.3347 151.917 16.0501 152.127C15.7654 152.332 15.5554 152.617 15.4201 152.981C15.2847 153.345 15.2171 153.758 15.2171 154.22C15.2171 154.939 15.3781 155.52 15.7001 155.963C16.0221 156.406 16.5004 156.628 17.1351 156.628C17.5831 156.628 17.9354 156.525 18.1921 156.32C18.4534 156.115 18.6494 155.818 18.7801 155.431L20.5021 155.816C20.2687 156.586 19.8604 157.179 19.2771 157.594C18.6937 158.005 17.9797 158.21 17.1351 158.21ZM26.3358 158C25.8365 158.093 25.3465 158.133 24.8658 158.119C24.3898 158.11 23.9628 158.023 23.5848 157.86C23.2068 157.692 22.9198 157.428 22.7238 157.069C22.5511 156.742 22.4601 156.409 22.4508 156.068C22.4415 155.727 22.4368 155.342 22.4368 154.913V148.34H24.1168V154.815C24.1168 155.118 24.1191 155.384 24.1238 155.613C24.1331 155.842 24.1821 156.028 24.2708 156.173C24.4388 156.453 24.7071 156.609 25.0758 156.642C25.4445 156.675 25.8645 156.656 26.3358 156.586V158ZM21.0648 151.763V150.44H26.3358V151.763H21.0648ZM33.6482 158.189C33.1442 158.189 32.6682 158.091 32.2202 157.895C31.7722 157.699 31.3825 157.421 31.0512 157.062C30.7245 156.703 30.4888 156.278 30.3442 155.788L31.9752 155.347C32.0918 155.748 32.3042 156.059 32.6122 156.278C32.9248 156.493 33.2678 156.598 33.6412 156.593C33.9725 156.593 34.2688 156.516 34.5302 156.362C34.7915 156.208 34.9968 156 35.1462 155.739C35.2955 155.473 35.3702 155.177 35.3702 154.85C35.3702 154.351 35.2092 153.933 34.8872 153.597C34.5652 153.261 34.1498 153.093 33.6412 153.093C33.4872 153.093 33.3355 153.114 33.1862 153.156C33.0415 153.198 32.9015 153.256 32.7662 153.331L31.9962 152.001L35.3842 149.103L35.5312 149.509H30.7362V147.92H36.9172V149.516L34.1942 152.134L34.1802 151.637C34.7915 151.679 35.3118 151.849 35.7412 152.148C36.1752 152.447 36.5065 152.832 36.7352 153.303C36.9685 153.774 37.0852 154.29 37.0852 154.85C37.0852 155.485 36.9288 156.054 36.6162 156.558C36.3082 157.062 35.8928 157.461 35.3702 157.755C34.8522 158.044 34.2782 158.189 33.6482 158.189ZM42.5249 158.21C41.8109 158.21 41.1809 158.058 40.6349 157.755C40.0889 157.447 39.6619 157.02 39.3539 156.474C39.0506 155.928 38.8989 155.298 38.8989 154.584V151.336C38.8989 150.622 39.0506 149.992 39.3539 149.446C39.6619 148.9 40.0889 148.475 40.6349 148.172C41.1809 147.864 41.8109 147.71 42.5249 147.71C43.2389 147.71 43.8666 147.864 44.4079 148.172C44.9539 148.475 45.3809 148.9 45.6889 149.446C45.9969 149.992 46.1509 150.622 46.1509 151.336V154.584C46.1509 155.298 45.9969 155.928 45.6889 156.474C45.3809 157.02 44.9539 157.447 44.4079 157.755C43.8666 158.058 43.2389 158.21 42.5249 158.21ZM42.5249 156.607C42.8796 156.607 43.2016 156.523 43.4909 156.355C43.7803 156.182 44.0089 155.954 44.1769 155.669C44.3449 155.38 44.4289 155.058 44.4289 154.703V151.21C44.4289 150.851 44.3449 150.529 44.1769 150.244C44.0089 149.955 43.7803 149.726 43.4909 149.558C43.2016 149.385 42.8796 149.299 42.5249 149.299C42.1703 149.299 41.8483 149.385 41.5589 149.558C41.2696 149.726 41.0409 149.955 40.8729 150.244C40.7049 150.529 40.6209 150.851 40.6209 151.21V154.703C40.6209 155.058 40.7049 155.38 40.8729 155.669C41.0409 155.954 41.2696 156.182 41.5589 156.355C41.8483 156.523 42.1703 156.607 42.5249 156.607ZM50.7765 154.248V152.925H54.9765V154.248H50.7765ZM59.5982 158V147.92H61.3062L65.9822 155.025V147.92H67.6902V158H65.9822L61.3062 150.895V158H59.5982ZM72.986 158.21C72.23 158.21 71.5697 158.04 71.005 157.699C70.4403 157.358 70.0017 156.889 69.689 156.292C69.381 155.69 69.227 154.999 69.227 154.22C69.227 153.427 69.3857 152.731 69.703 152.134C70.0203 151.537 70.4613 151.07 71.026 150.734C71.5907 150.398 72.244 150.23 72.986 150.23C73.7467 150.23 74.4093 150.4 74.974 150.741C75.5387 151.082 75.9773 151.553 76.29 152.155C76.6027 152.752 76.759 153.441 76.759 154.22C76.759 155.004 76.6003 155.697 76.283 156.299C75.9703 156.896 75.5317 157.365 74.967 157.706C74.4023 158.042 73.742 158.21 72.986 158.21ZM72.986 156.628C73.658 156.628 74.1573 156.404 74.484 155.956C74.8107 155.508 74.974 154.929 74.974 154.22C74.974 153.487 74.8083 152.904 74.477 152.47C74.1457 152.031 73.6487 151.812 72.986 151.812C72.5333 151.812 72.16 151.915 71.866 152.12C71.5767 152.321 71.362 152.603 71.222 152.967C71.082 153.326 71.012 153.744 71.012 154.22C71.012 154.953 71.1777 155.538 71.509 155.977C71.845 156.411 72.3373 156.628 72.986 156.628ZM80.0719 158L77.3279 150.44H79.0149L80.9189 155.921L82.8159 150.44H84.5099L81.7659 158H80.0719ZM92.7549 158V156.334H88.2889V154.759L91.5159 147.92H93.4409L90.2139 154.759H92.7549V152.134H94.4629V154.759H95.4079V156.334H94.4629V158H92.7549ZM98.2694 152.911L97.0584 152.036L98.1154 150.797L96.5264 150.37L96.9884 148.949L98.5074 149.572L98.4024 147.92H99.9004L99.7954 149.572L101.307 148.949L101.769 150.37L100.187 150.797L101.237 152.036L100.026 152.911L99.1514 151.539L98.2694 152.911Z" fill="white"/>
<path d="M31.6392 246V235.92H33.3472L38.0232 243.025V235.92H39.7312V246H38.0232L33.3472 238.895V246H31.6392ZM45.027 246.21C44.271 246.21 43.6107 246.04 43.046 245.699C42.4813 245.358 42.0427 244.889 41.73 244.292C41.422 243.69 41.268 242.999 41.268 242.22C41.268 241.427 41.4267 240.731 41.744 240.134C42.0613 239.537 42.5023 239.07 43.067 238.734C43.6317 238.398 44.285 238.23 45.027 238.23C45.7877 238.23 46.4503 238.4 47.015 238.741C47.5797 239.082 48.0183 239.553 48.331 240.155C48.6437 240.752 48.8 241.441 48.8 242.22C48.8 243.004 48.6413 243.697 48.324 244.299C48.0113 244.896 47.5727 245.365 47.008 245.706C46.4433 246.042 45.783 246.21 45.027 246.21ZM45.027 244.628C45.699 244.628 46.1983 244.404 46.525 243.956C46.8517 243.508 47.015 242.929 47.015 242.22C47.015 241.487 46.8493 240.904 46.518 240.47C46.1867 240.031 45.6897 239.812 45.027 239.812C44.5743 239.812 44.201 239.915 43.907 240.12C43.6177 240.321 43.403 240.603 43.263 240.967C43.123 241.326 43.053 241.744 43.053 242.22C43.053 242.953 43.2187 243.538 43.55 243.977C43.886 244.411 44.3783 244.628 45.027 244.628ZM52.1129 246L49.3689 238.44H51.0559L52.9599 243.921L54.8569 238.44H56.5509L53.8069 246H52.1129ZM63.5989 246.21C63.0855 246.21 62.6072 246.105 62.1639 245.895C61.7205 245.68 61.3379 245.386 61.0159 245.013C60.6985 244.64 60.4699 244.206 60.3299 243.711L61.9539 243.277C62.0192 243.548 62.1382 243.781 62.3109 243.977C62.4882 244.173 62.6935 244.325 62.9269 244.432C63.1649 244.539 63.4099 244.593 63.6619 244.593C63.9885 244.593 64.2872 244.514 64.5579 244.355C64.8285 244.196 65.0432 243.984 65.2019 243.718C65.3605 243.447 65.4399 243.149 65.4399 242.822C65.4399 242.495 65.3582 242.199 65.1949 241.933C65.0362 241.662 64.8215 241.45 64.5509 241.296C64.2802 241.137 63.9839 241.058 63.6619 241.058C63.2745 241.058 62.9525 241.128 62.6959 241.268C62.4439 241.408 62.2502 241.557 62.1149 241.716L60.6729 241.254L60.9809 235.92H66.4549V237.502H61.8839L62.5139 236.907L62.2899 240.617L61.9819 240.239C62.2432 240.001 62.5465 239.824 62.8919 239.707C63.2372 239.59 63.5709 239.532 63.8929 239.532C64.5229 239.532 65.0805 239.677 65.5659 239.966C66.0559 240.251 66.4385 240.64 66.7139 241.135C66.9939 241.63 67.1339 242.192 67.1339 242.822C67.1339 243.452 66.9705 244.024 66.6439 244.537C66.3172 245.046 65.8855 245.452 65.3489 245.755C64.8169 246.058 64.2335 246.21 63.5989 246.21ZM69.996 240.911L68.785 240.036L69.842 238.797L68.253 238.37L68.715 236.949L70.234 237.572L70.129 235.92H71.627L71.522 237.572L73.034 236.949L73.496 238.37L71.914 238.797L72.964 240.036L71.753 240.911L70.878 239.539L69.996 240.911Z" fill="white"/>
<path d="M174.709 55V44.92H178.601C178.699 44.92 178.808 44.9247 178.93 44.934C179.056 44.9387 179.182 44.9527 179.308 44.976C179.835 45.0553 180.281 45.2397 180.645 45.529C181.013 45.8137 181.291 46.173 181.478 46.607C181.669 47.041 181.765 47.5217 181.765 48.049C181.765 48.8097 181.564 49.47 181.163 50.03C180.761 50.59 180.187 50.9423 179.441 51.087L179.084 51.171H175.738V55H174.709ZM180.813 55L178.825 50.898L179.812 50.52L181.996 55H180.813ZM175.738 50.191H178.573C178.657 50.191 178.755 50.1863 178.867 50.177C178.979 50.1677 179.088 50.1513 179.196 50.128C179.541 50.0533 179.823 49.911 180.043 49.701C180.267 49.491 180.432 49.2413 180.54 48.952C180.652 48.6627 180.708 48.3617 180.708 48.049C180.708 47.7363 180.652 47.4353 180.54 47.146C180.432 46.852 180.267 46.6 180.043 46.39C179.823 46.18 179.541 46.0377 179.196 45.963C179.088 45.9397 178.979 45.9257 178.867 45.921C178.755 45.9117 178.657 45.907 178.573 45.907H175.738V50.191ZM186.74 55.21C186.002 55.21 185.363 55.0467 184.822 54.72C184.285 54.3933 183.867 53.9337 183.569 53.341C183.27 52.7483 183.121 52.053 183.121 51.255C183.121 50.429 183.268 49.715 183.562 49.113C183.856 48.511 184.269 48.0467 184.801 47.72C185.337 47.3933 185.97 47.23 186.698 47.23C187.444 47.23 188.081 47.4027 188.609 47.748C189.136 48.0887 189.535 48.5787 189.806 49.218C190.076 49.8573 190.2 50.6203 190.177 51.507H189.127V51.143C189.108 50.163 188.896 49.4233 188.49 48.924C188.088 48.4247 187.5 48.175 186.726 48.175C185.914 48.175 185.291 48.4387 184.857 48.966C184.427 49.4933 184.213 50.2447 184.213 51.22C184.213 52.172 184.427 52.9117 184.857 53.439C185.291 53.9617 185.904 54.223 186.698 54.223C187.239 54.223 187.71 54.0993 188.112 53.852C188.518 53.6 188.837 53.2383 189.071 52.767L190.03 53.138C189.731 53.796 189.29 54.307 188.707 54.671C188.128 55.0303 187.472 55.21 186.74 55.21ZM183.849 51.507V50.646H189.624V51.507H183.849ZM194.733 58.57C194.346 58.57 193.963 58.5117 193.585 58.395C193.212 58.283 192.866 58.1033 192.549 57.856C192.232 57.6133 191.966 57.296 191.751 56.904L192.682 56.386C192.892 56.806 193.186 57.107 193.564 57.289C193.947 57.4757 194.336 57.569 194.733 57.569C195.279 57.569 195.72 57.4663 196.056 57.261C196.397 57.0603 196.644 56.7617 196.798 56.365C196.952 55.9683 197.027 55.4737 197.022 54.881V52.865H197.141V47.44H198.058V54.895C198.058 55.1097 198.051 55.315 198.037 55.511C198.028 55.7117 198.007 55.9077 197.974 56.099C197.885 56.6637 197.701 57.128 197.421 57.492C197.146 57.856 196.782 58.1267 196.329 58.304C195.881 58.4813 195.349 58.57 194.733 58.57ZM194.663 55.21C193.958 55.21 193.356 55.035 192.857 54.685C192.358 54.3303 191.975 53.852 191.709 53.25C191.443 52.648 191.31 51.969 191.31 51.213C191.31 50.4617 191.441 49.785 191.702 49.183C191.968 48.581 192.348 48.105 192.843 47.755C193.338 47.405 193.93 47.23 194.621 47.23C195.33 47.23 195.928 47.4027 196.413 47.748C196.898 48.0933 197.265 48.567 197.512 49.169C197.764 49.7663 197.89 50.4477 197.89 51.213C197.89 51.9643 197.766 52.6433 197.519 53.25C197.272 53.852 196.908 54.3303 196.427 54.685C195.946 55.035 195.358 55.21 194.663 55.21ZM194.768 54.251C195.305 54.251 195.748 54.1203 196.098 53.859C196.448 53.5977 196.709 53.2383 196.882 52.781C197.055 52.319 197.141 51.7963 197.141 51.213C197.141 50.6203 197.055 50.0977 196.882 49.645C196.709 49.1877 196.448 48.8307 196.098 48.574C195.753 48.3173 195.316 48.189 194.789 48.189C194.248 48.189 193.8 48.322 193.445 48.588C193.09 48.854 192.827 49.2157 192.654 49.673C192.486 50.1303 192.402 50.6437 192.402 51.213C192.402 51.787 192.488 52.305 192.661 52.767C192.838 53.2243 193.102 53.586 193.452 53.852C193.802 54.118 194.241 54.251 194.768 54.251ZM200.155 46.005V44.85H201.184V46.005H200.155ZM200.155 55V47.44H201.184V55H200.155ZM206.104 55.203C205.217 55.203 204.487 55.0117 203.913 54.629C203.343 54.2463 202.993 53.7143 202.863 53.033L203.913 52.858C204.025 53.2873 204.279 53.6303 204.676 53.887C205.077 54.139 205.572 54.265 206.16 54.265C206.734 54.265 207.186 54.146 207.518 53.908C207.849 53.6653 208.015 53.3363 208.015 52.921C208.015 52.6877 207.961 52.4987 207.854 52.354C207.751 52.2047 207.539 52.067 207.217 51.941C206.895 51.815 206.414 51.6657 205.775 51.493C205.089 51.3063 204.552 51.1197 204.165 50.933C203.777 50.7463 203.502 50.5317 203.339 50.289C203.175 50.0417 203.094 49.7407 203.094 49.386C203.094 48.9567 203.215 48.581 203.458 48.259C203.7 47.9323 204.036 47.6803 204.466 47.503C204.895 47.321 205.394 47.23 205.964 47.23C206.533 47.23 207.042 47.3233 207.49 47.51C207.942 47.692 208.306 47.9487 208.582 48.28C208.857 48.6113 209.02 48.9963 209.072 49.435L208.022 49.624C207.952 49.1807 207.73 48.8307 207.357 48.574C206.988 48.3127 206.519 48.1773 205.95 48.168C205.413 48.154 204.977 48.2567 204.641 48.476C204.305 48.6907 204.137 48.9777 204.137 49.337C204.137 49.5377 204.197 49.7103 204.319 49.855C204.44 49.995 204.659 50.128 204.977 50.254C205.299 50.38 205.756 50.5177 206.349 50.667C207.044 50.8443 207.59 51.031 207.987 51.227C208.383 51.423 208.666 51.654 208.834 51.92C209.002 52.186 209.086 52.515 209.086 52.907C209.086 53.621 208.82 54.1833 208.288 54.594C207.76 55 207.032 55.203 206.104 55.203ZM214.754 55C214.33 55.0887 213.91 55.1237 213.494 55.105C213.084 55.0863 212.715 54.9977 212.388 54.839C212.066 54.6803 211.821 54.433 211.653 54.097C211.518 53.817 211.443 53.5347 211.429 53.25C211.42 52.9607 211.415 52.6317 211.415 52.263V45.34H212.437V52.221C212.437 52.5383 212.44 52.8043 212.444 53.019C212.454 53.229 212.503 53.4157 212.591 53.579C212.759 53.8917 213.025 54.0783 213.389 54.139C213.758 54.1997 214.213 54.1857 214.754 54.097V55ZM209.798 48.322V47.44H214.754V48.322H209.798ZM216.244 55V47.44H217.168V49.26L216.986 49.022C217.07 48.798 217.179 48.5927 217.315 48.406C217.45 48.2147 217.597 48.0583 217.756 47.937C217.952 47.7643 218.18 47.6337 218.442 47.545C218.703 47.4517 218.967 47.398 219.233 47.384C219.499 47.3653 219.741 47.384 219.961 47.44V48.406C219.685 48.336 219.384 48.3197 219.058 48.357C218.731 48.3943 218.43 48.525 218.155 48.749C217.903 48.945 217.714 49.1807 217.588 49.456C217.462 49.7267 217.378 50.016 217.336 50.324C217.294 50.6273 217.273 50.9283 217.273 51.227V55H216.244ZM223.164 55.21C222.595 55.21 222.117 55.1073 221.729 54.902C221.347 54.6967 221.06 54.4237 220.868 54.083C220.677 53.7423 220.581 53.3713 220.581 52.97C220.581 52.5593 220.663 52.2093 220.826 51.92C220.994 51.626 221.221 51.3857 221.505 51.199C221.795 51.0123 222.128 50.87 222.506 50.772C222.889 50.6787 223.311 50.597 223.773 50.527C224.24 50.4523 224.695 50.3893 225.138 50.338C225.586 50.282 225.978 50.2283 226.314 50.177L225.95 50.401C225.964 49.6543 225.82 49.1013 225.516 48.742C225.213 48.3827 224.686 48.203 223.934 48.203C223.416 48.203 222.978 48.3197 222.618 48.553C222.264 48.7863 222.014 49.155 221.869 49.659L220.868 49.365C221.041 48.6883 221.389 48.1633 221.911 47.79C222.434 47.4167 223.113 47.23 223.948 47.23C224.639 47.23 225.225 47.3607 225.705 47.622C226.191 47.8787 226.534 48.252 226.734 48.742C226.828 48.9613 226.888 49.2063 226.916 49.477C226.944 49.7477 226.958 50.023 226.958 50.303V55H226.041V53.103L226.307 53.215C226.051 53.8637 225.652 54.3583 225.11 54.699C224.569 55.0397 223.92 55.21 223.164 55.21ZM223.283 54.321C223.764 54.321 224.184 54.2347 224.543 54.062C224.903 53.8893 225.192 53.6537 225.411 53.355C225.631 53.0517 225.773 52.711 225.838 52.333C225.894 52.0903 225.925 51.8243 225.929 51.535C225.934 51.241 225.936 51.0217 225.936 50.877L226.328 51.08C225.978 51.1267 225.598 51.1733 225.187 51.22C224.781 51.2667 224.38 51.3203 223.983 51.381C223.591 51.4417 223.237 51.514 222.919 51.598C222.705 51.6587 222.497 51.745 222.296 51.857C222.096 51.9643 221.93 52.109 221.799 52.291C221.673 52.473 221.61 52.6993 221.61 52.97C221.61 53.1893 221.664 53.4017 221.771 53.607C221.883 53.8123 222.061 53.9827 222.303 54.118C222.551 54.2533 222.877 54.321 223.283 54.321ZM232.897 55C232.472 55.0887 232.052 55.1237 231.637 55.105C231.226 55.0863 230.857 54.9977 230.531 54.839C230.209 54.6803 229.964 54.433 229.796 54.097C229.66 53.817 229.586 53.5347 229.572 53.25C229.562 52.9607 229.558 52.6317 229.558 52.263V45.34H230.58V52.221C230.58 52.5383 230.582 52.8043 230.587 53.019C230.596 53.229 230.645 53.4157 230.734 53.579C230.902 53.8917 231.168 54.0783 231.532 54.139C231.9 54.1997 232.355 54.1857 232.897 54.097V55ZM227.941 48.322V47.44H232.897V48.322H227.941ZM234.526 46.005V44.85H235.555V46.005H234.526ZM234.526 55V47.44H235.555V55H234.526ZM240.811 55.21C240.059 55.21 239.418 55.0397 238.886 54.699C238.354 54.3583 237.945 53.887 237.661 53.285C237.376 52.683 237.234 51.9923 237.234 51.213C237.234 50.4197 237.378 49.7243 237.668 49.127C237.957 48.5297 238.368 48.0653 238.9 47.734C239.436 47.398 240.073 47.23 240.811 47.23C241.567 47.23 242.211 47.4003 242.743 47.741C243.279 48.077 243.688 48.546 243.968 49.148C244.252 49.7453 244.395 50.4337 244.395 51.213C244.395 52.0063 244.252 52.704 243.968 53.306C243.683 53.9033 243.272 54.37 242.736 54.706C242.199 55.042 241.557 55.21 240.811 55.21ZM240.811 54.223C241.651 54.223 242.276 53.9453 242.687 53.39C243.097 52.83 243.303 52.1043 243.303 51.213C243.303 50.2983 243.095 49.5703 242.68 49.029C242.269 48.4877 241.646 48.217 240.811 48.217C240.246 48.217 239.779 48.3453 239.411 48.602C239.047 48.854 238.774 49.2063 238.592 49.659C238.414 50.107 238.326 50.625 238.326 51.213C238.326 52.123 238.536 52.8533 238.956 53.404C239.376 53.95 239.994 54.223 240.811 54.223ZM251.399 55V51.143C251.399 50.723 251.359 50.338 251.28 49.988C251.201 49.6333 251.072 49.3253 250.895 49.064C250.722 48.798 250.496 48.5927 250.216 48.448C249.941 48.3033 249.605 48.231 249.208 48.231C248.844 48.231 248.522 48.294 248.242 48.42C247.967 48.546 247.733 48.728 247.542 48.966C247.355 49.1993 247.213 49.484 247.115 49.82C247.017 50.156 246.968 50.5387 246.968 50.968L246.24 50.807C246.24 50.0323 246.375 49.3813 246.646 48.854C246.917 48.3267 247.29 47.9277 247.766 47.657C248.242 47.3863 248.788 47.251 249.404 47.251C249.857 47.251 250.251 47.321 250.587 47.461C250.928 47.601 251.215 47.79 251.448 48.028C251.686 48.266 251.877 48.539 252.022 48.847C252.167 49.1503 252.272 49.4747 252.337 49.82C252.402 50.1607 252.435 50.5013 252.435 50.842V55H251.399ZM245.932 55V47.44H246.863V49.302H246.968V55H245.932ZM204.468 75.21C203.899 75.21 203.421 75.1073 203.033 74.902C202.651 74.6967 202.364 74.4237 202.172 74.083C201.981 73.7423 201.885 73.3713 201.885 72.97C201.885 72.5593 201.967 72.2093 202.13 71.92C202.298 71.626 202.525 71.3857 202.809 71.199C203.099 71.0123 203.432 70.87 203.81 70.772C204.193 70.6787 204.615 70.597 205.077 70.527C205.544 70.4523 205.999 70.3893 206.442 70.338C206.89 70.282 207.282 70.2283 207.618 70.177L207.254 70.401C207.268 69.6543 207.124 69.1013 206.82 68.742C206.517 68.3827 205.99 68.203 205.238 68.203C204.72 68.203 204.282 68.3197 203.922 68.553C203.568 68.7863 203.318 69.155 203.173 69.659L202.172 69.365C202.345 68.6883 202.693 68.1633 203.215 67.79C203.738 67.4167 204.417 67.23 205.252 67.23C205.943 67.23 206.529 67.3607 207.009 67.622C207.495 67.8787 207.838 68.252 208.038 68.742C208.132 68.9613 208.192 69.2063 208.22 69.477C208.248 69.7477 208.262 70.023 208.262 70.303V75H207.345V73.103L207.611 73.215C207.355 73.8637 206.956 74.3583 206.414 74.699C205.873 75.0397 205.224 75.21 204.468 75.21ZM204.587 74.321C205.068 74.321 205.488 74.2347 205.847 74.062C206.207 73.8893 206.496 73.6537 206.715 73.355C206.935 73.0517 207.077 72.711 207.142 72.333C207.198 72.0903 207.229 71.8243 207.233 71.535C207.238 71.241 207.24 71.0217 207.24 70.877L207.632 71.08C207.282 71.1267 206.902 71.1733 206.491 71.22C206.085 71.2667 205.684 71.3203 205.287 71.381C204.895 71.4417 204.541 71.514 204.223 71.598C204.009 71.6587 203.801 71.745 203.6 71.857C203.4 71.9643 203.234 72.109 203.103 72.291C202.977 72.473 202.914 72.6993 202.914 72.97C202.914 73.1893 202.968 73.4017 203.075 73.607C203.187 73.8123 203.365 73.9827 203.607 74.118C203.855 74.2533 204.181 74.321 204.587 74.321ZM215.544 75V71.143C215.544 70.723 215.505 70.338 215.425 69.988C215.346 69.6333 215.218 69.3253 215.04 69.064C214.868 68.798 214.641 68.5927 214.361 68.448C214.086 68.3033 213.75 68.231 213.353 68.231C212.989 68.231 212.667 68.294 212.387 68.42C212.112 68.546 211.879 68.728 211.687 68.966C211.501 69.1993 211.358 69.484 211.26 69.82C211.162 70.156 211.113 70.5387 211.113 70.968L210.385 70.807C210.385 70.0323 210.521 69.3813 210.791 68.854C211.062 68.3267 211.435 67.9277 211.911 67.657C212.387 67.3863 212.933 67.251 213.549 67.251C214.002 67.251 214.396 67.321 214.732 67.461C215.073 67.601 215.36 67.79 215.593 68.028C215.831 68.266 216.023 68.539 216.167 68.847C216.312 69.1503 216.417 69.4747 216.482 69.82C216.548 70.1607 216.58 70.5013 216.58 70.842V75H215.544ZM210.077 75V67.44H211.008V69.302H211.113V75H210.077ZM221.289 75.21C220.584 75.21 219.982 75.035 219.483 74.685C218.984 74.3303 218.601 73.852 218.335 73.25C218.069 72.648 217.936 71.969 217.936 71.213C217.936 70.4617 218.067 69.785 218.328 69.183C218.594 68.581 218.974 68.105 219.469 67.755C219.964 67.405 220.556 67.23 221.247 67.23C221.956 67.23 222.554 67.4027 223.039 67.748C223.524 68.0933 223.891 68.567 224.138 69.169C224.39 69.7663 224.516 70.4477 224.516 71.213C224.516 71.9643 224.392 72.6433 224.145 73.25C223.898 73.852 223.534 74.3303 223.053 74.685C222.572 75.035 221.984 75.21 221.289 75.21ZM221.394 74.251C221.931 74.251 222.374 74.1203 222.724 73.859C223.074 73.5977 223.335 73.2383 223.508 72.781C223.681 72.319 223.767 71.7963 223.767 71.213C223.767 70.6203 223.681 70.0977 223.508 69.645C223.335 69.1877 223.074 68.8307 222.724 68.574C222.379 68.3173 221.942 68.189 221.415 68.189C220.874 68.189 220.426 68.322 220.071 68.588C219.716 68.854 219.453 69.2157 219.28 69.673C219.112 70.1303 219.028 70.6437 219.028 71.213C219.028 71.787 219.114 72.305 219.287 72.767C219.464 73.2243 219.728 73.586 220.078 73.852C220.428 74.118 220.867 74.251 221.394 74.251ZM223.767 75V69.309H223.655V64.92H224.691V75H223.767ZM180.512 94.21C179.808 94.21 179.173 94.0933 178.608 93.86C178.048 93.622 177.584 93.286 177.215 92.852C176.851 92.418 176.613 91.9023 176.501 91.305L177.551 91.13C177.719 91.7833 178.074 92.2967 178.615 92.67C179.157 93.0387 179.803 93.223 180.554 93.223C181.049 93.223 181.492 93.146 181.884 92.992C182.276 92.8333 182.584 92.6093 182.808 92.32C183.032 92.0307 183.144 91.6877 183.144 91.291C183.144 91.0297 183.098 90.808 183.004 90.626C182.911 90.4393 182.787 90.2853 182.633 90.164C182.479 90.0427 182.311 89.9423 182.129 89.863C181.947 89.779 181.77 89.7113 181.597 89.66L179.042 88.897C178.734 88.8083 178.45 88.6963 178.188 88.561C177.927 88.421 177.698 88.2553 177.502 88.064C177.311 87.868 177.162 87.6393 177.054 87.378C176.947 87.1167 176.893 86.818 176.893 86.482C176.893 85.9127 177.043 85.4203 177.341 85.005C177.64 84.5897 178.048 84.27 178.566 84.046C179.084 83.822 179.675 83.7123 180.337 83.717C181.009 83.717 181.609 83.836 182.136 84.074C182.668 84.312 183.107 84.6527 183.452 85.096C183.798 85.5347 184.026 86.055 184.138 86.657L183.06 86.853C182.99 86.4143 182.829 86.034 182.577 85.712C182.325 85.39 182.003 85.1427 181.611 84.97C181.224 84.7927 180.797 84.7017 180.33 84.697C179.878 84.697 179.474 84.774 179.119 84.928C178.769 85.0773 178.492 85.2827 178.286 85.544C178.081 85.8053 177.978 86.104 177.978 86.44C177.978 86.7807 178.072 87.0537 178.258 87.259C178.45 87.4643 178.683 87.6253 178.958 87.742C179.238 87.8587 179.509 87.9543 179.77 88.029L181.744 88.61C181.95 88.666 182.19 88.7477 182.465 88.855C182.745 88.9577 183.016 89.107 183.277 89.303C183.543 89.4943 183.763 89.7463 183.935 90.059C184.108 90.3717 184.194 90.7683 184.194 91.249C184.194 91.7157 184.101 92.1333 183.914 92.502C183.732 92.8707 183.473 93.181 183.137 93.433C182.806 93.685 182.416 93.8763 181.968 94.007C181.525 94.1423 181.04 94.21 180.512 94.21ZM188.53 94.189C188.078 94.189 187.681 94.119 187.34 93.979C187.004 93.839 186.717 93.65 186.479 93.412C186.246 93.174 186.057 92.9033 185.912 92.6C185.768 92.292 185.663 91.9677 185.597 91.627C185.532 91.2817 185.499 90.9387 185.499 90.598V86.44H186.535V90.297C186.535 90.7123 186.575 91.0973 186.654 91.452C186.734 91.8067 186.86 92.117 187.032 92.383C187.21 92.6443 187.436 92.8473 187.711 92.992C187.991 93.1367 188.33 93.209 188.726 93.209C189.09 93.209 189.41 93.146 189.685 93.02C189.965 92.894 190.199 92.7143 190.385 92.481C190.577 92.243 190.721 91.956 190.819 91.62C190.917 91.2793 190.966 90.8967 190.966 90.472L191.694 90.633C191.694 91.4077 191.559 92.0587 191.288 92.586C191.018 93.1133 190.644 93.5123 190.168 93.783C189.692 94.0537 189.146 94.189 188.53 94.189ZM191.071 94V92.138H190.966V86.44H191.995V94H191.071ZM197.347 94.21C196.651 94.21 196.063 94.035 195.583 93.685C195.102 93.3303 194.738 92.852 194.491 92.25C194.243 91.6433 194.12 90.9643 194.12 90.213C194.12 89.4477 194.243 88.7663 194.491 88.169C194.743 87.567 195.111 87.0933 195.597 86.748C196.082 86.4027 196.679 86.23 197.389 86.23C198.079 86.23 198.672 86.405 199.167 86.755C199.661 87.105 200.039 87.581 200.301 88.183C200.567 88.785 200.7 89.4617 200.7 90.213C200.7 90.969 200.567 91.648 200.301 92.25C200.035 92.852 199.652 93.3303 199.153 93.685C198.653 94.035 198.051 94.21 197.347 94.21ZM193.945 94V83.92H194.981V88.309H194.869V94H193.945ZM197.242 93.251C197.769 93.251 198.208 93.118 198.558 92.852C198.908 92.586 199.169 92.2243 199.342 91.767C199.519 91.305 199.608 90.787 199.608 90.213C199.608 89.6437 199.521 89.1303 199.349 88.673C199.176 88.2157 198.912 87.854 198.558 87.588C198.208 87.322 197.762 87.189 197.221 87.189C196.693 87.189 196.255 87.3173 195.905 87.574C195.559 87.8307 195.3 88.1877 195.128 88.645C194.955 89.0977 194.869 89.6203 194.869 90.213C194.869 90.7963 194.955 91.319 195.128 91.781C195.3 92.2383 195.562 92.5977 195.912 92.859C196.262 93.1203 196.705 93.251 197.242 93.251ZM211.253 94L211.26 89.037C211.26 88.4537 211.097 87.9963 210.77 87.665C210.448 87.329 210.037 87.161 209.538 87.161C209.253 87.161 208.976 87.2263 208.705 87.357C208.434 87.4877 208.21 87.6977 208.033 87.987C207.86 88.2763 207.774 88.6543 207.774 89.121L207.165 88.946C207.151 88.4047 207.256 87.931 207.48 87.525C207.709 87.119 208.021 86.804 208.418 86.58C208.819 86.3513 209.272 86.237 209.776 86.237C210.537 86.237 211.146 86.4727 211.603 86.944C212.06 87.4107 212.289 88.043 212.289 88.841L212.282 94H211.253ZM202.23 94V86.44H203.154V88.302H203.266V94H202.23ZM206.752 94L206.759 89.107C206.759 88.505 206.598 88.0313 206.276 87.686C205.959 87.336 205.539 87.161 205.016 87.161C204.493 87.161 204.071 87.3407 203.749 87.7C203.427 88.0547 203.266 88.5283 203.266 89.121L202.65 88.785C202.65 88.2997 202.764 87.8657 202.993 87.483C203.222 87.0957 203.534 86.7923 203.931 86.573C204.328 86.349 204.778 86.237 205.282 86.237C205.763 86.237 206.19 86.3397 206.563 86.545C206.941 86.7503 207.237 87.049 207.452 87.441C207.667 87.833 207.774 88.309 207.774 88.869L207.767 94H206.752ZM214.244 85.005V83.85H215.273V85.005H214.244ZM214.244 94V86.44H215.273V94H214.244ZM220.193 94.203C219.306 94.203 218.576 94.0117 218.002 93.629C217.432 93.2463 217.082 92.7143 216.952 92.033L218.002 91.858C218.114 92.2873 218.368 92.6303 218.765 92.887C219.166 93.139 219.661 93.265 220.249 93.265C220.823 93.265 221.275 93.146 221.607 92.908C221.938 92.6653 222.104 92.3363 222.104 91.921C222.104 91.6877 222.05 91.4987 221.943 91.354C221.84 91.2047 221.628 91.067 221.306 90.941C220.984 90.815 220.503 90.6657 219.864 90.493C219.178 90.3063 218.641 90.1197 218.254 89.933C217.866 89.7463 217.591 89.5317 217.428 89.289C217.264 89.0417 217.183 88.7407 217.183 88.386C217.183 87.9567 217.304 87.581 217.547 87.259C217.789 86.9323 218.125 86.6803 218.555 86.503C218.984 86.321 219.483 86.23 220.053 86.23C220.622 86.23 221.131 86.3233 221.579 86.51C222.031 86.692 222.395 86.9487 222.671 87.28C222.946 87.6113 223.109 87.9963 223.161 88.435L222.111 88.624C222.041 88.1807 221.819 87.8307 221.446 87.574C221.077 87.3127 220.608 87.1773 220.039 87.168C219.502 87.154 219.066 87.2567 218.73 87.476C218.394 87.6907 218.226 87.9777 218.226 88.337C218.226 88.5377 218.286 88.7103 218.408 88.855C218.529 88.995 218.748 89.128 219.066 89.254C219.388 89.38 219.845 89.5177 220.438 89.667C221.133 89.8443 221.679 90.031 222.076 90.227C222.472 90.423 222.755 90.654 222.923 90.92C223.091 91.186 223.175 91.515 223.175 91.907C223.175 92.621 222.909 93.1833 222.377 93.594C221.849 94 221.121 94.203 220.193 94.203ZM227.548 94.203C226.661 94.203 225.931 94.0117 225.357 93.629C224.788 93.2463 224.438 92.7143 224.307 92.033L225.357 91.858C225.469 92.2873 225.723 92.6303 226.12 92.887C226.521 93.139 227.016 93.265 227.604 93.265C228.178 93.265 228.631 93.146 228.962 92.908C229.293 92.6653 229.459 92.3363 229.459 91.921C229.459 91.6877 229.405 91.4987 229.298 91.354C229.195 91.2047 228.983 91.067 228.661 90.941C228.339 90.815 227.858 90.6657 227.219 90.493C226.533 90.3063 225.996 90.1197 225.609 89.933C225.222 89.7463 224.946 89.5317 224.783 89.289C224.62 89.0417 224.538 88.7407 224.538 88.386C224.538 87.9567 224.659 87.581 224.902 87.259C225.145 86.9323 225.481 86.6803 225.91 86.503C226.339 86.321 226.839 86.23 227.408 86.23C227.977 86.23 228.486 86.3233 228.934 86.51C229.387 86.692 229.751 86.9487 230.026 87.28C230.301 87.6113 230.465 87.9963 230.516 88.435L229.466 88.624C229.396 88.1807 229.174 87.8307 228.801 87.574C228.432 87.3127 227.963 87.1773 227.394 87.168C226.857 87.154 226.421 87.2567 226.085 87.476C225.749 87.6907 225.581 87.9777 225.581 88.337C225.581 88.5377 225.642 88.7103 225.763 88.855C225.884 88.995 226.104 89.128 226.421 89.254C226.743 89.38 227.2 89.5177 227.793 89.667C228.488 89.8443 229.034 90.031 229.431 90.227C229.828 90.423 230.11 90.654 230.278 90.92C230.446 91.186 230.53 91.515 230.53 91.907C230.53 92.621 230.264 93.1833 229.732 93.594C229.205 94 228.477 94.203 227.548 94.203ZM232.223 85.005V83.85H233.252V85.005H232.223ZM232.223 94V86.44H233.252V94H232.223ZM238.507 94.21C237.756 94.21 237.114 94.0397 236.582 93.699C236.05 93.3583 235.642 92.887 235.357 92.285C235.072 91.683 234.93 90.9923 234.93 90.213C234.93 89.4197 235.075 88.7243 235.364 88.127C235.653 87.5297 236.064 87.0653 236.596 86.734C237.133 86.398 237.77 86.23 238.507 86.23C239.263 86.23 239.907 86.4003 240.439 86.741C240.976 87.077 241.384 87.546 241.664 88.148C241.949 88.7453 242.091 89.4337 242.091 90.213C242.091 91.0063 241.949 91.704 241.664 92.306C241.379 92.9033 240.969 93.37 240.432 93.706C239.895 94.042 239.254 94.21 238.507 94.21ZM238.507 93.223C239.347 93.223 239.972 92.9453 240.383 92.39C240.794 91.83 240.999 91.1043 240.999 90.213C240.999 89.2983 240.791 88.5703 240.376 88.029C239.965 87.4877 239.342 87.217 238.507 87.217C237.942 87.217 237.476 87.3453 237.107 87.602C236.743 87.854 236.47 88.2063 236.288 88.659C236.111 89.107 236.022 89.625 236.022 90.213C236.022 91.123 236.232 91.8533 236.652 92.404C237.072 92.95 237.69 93.223 238.507 93.223ZM249.095 94V90.143C249.095 89.723 249.056 89.338 248.976 88.988C248.897 88.6333 248.769 88.3253 248.591 88.064C248.419 87.798 248.192 87.5927 247.912 87.448C247.637 87.3033 247.301 87.231 246.904 87.231C246.54 87.231 246.218 87.294 245.938 87.42C245.663 87.546 245.43 87.728 245.238 87.966C245.052 88.1993 244.909 88.484 244.811 88.82C244.713 89.156 244.664 89.5387 244.664 89.968L243.936 89.807C243.936 89.0323 244.072 88.3813 244.342 87.854C244.613 87.3267 244.986 86.9277 245.462 86.657C245.938 86.3863 246.484 86.251 247.1 86.251C247.553 86.251 247.947 86.321 248.283 86.461C248.624 86.601 248.911 86.79 249.144 87.028C249.382 87.266 249.574 87.539 249.718 87.847C249.863 88.1503 249.968 88.4747 250.033 88.82C250.099 89.1607 250.131 89.5013 250.131 89.842V94H249.095ZM243.628 94V86.44H244.559V88.302H244.664V94H243.628Z" fill="white"/>
<path d="M198.934 148L195.462 137.92H196.533L199.606 146.831L202.7 137.92H203.771L200.299 148H198.934ZM204.687 139.005V137.85H205.716V139.005H204.687ZM204.687 148V140.44H205.716V148H204.687ZM210.748 148.21C210.043 148.21 209.441 148.035 208.942 147.685C208.443 147.33 208.06 146.852 207.794 146.25C207.528 145.648 207.395 144.969 207.395 144.213C207.395 143.462 207.526 142.785 207.787 142.183C208.053 141.581 208.433 141.105 208.928 140.755C209.423 140.405 210.015 140.23 210.706 140.23C211.415 140.23 212.013 140.403 212.498 140.748C212.983 141.093 213.35 141.567 213.597 142.169C213.849 142.766 213.975 143.448 213.975 144.213C213.975 144.964 213.851 145.643 213.604 146.25C213.357 146.852 212.993 147.33 212.512 147.685C212.031 148.035 211.443 148.21 210.748 148.21ZM210.853 147.251C211.39 147.251 211.833 147.12 212.183 146.859C212.533 146.598 212.794 146.238 212.967 145.781C213.14 145.319 213.226 144.796 213.226 144.213C213.226 143.62 213.14 143.098 212.967 142.645C212.794 142.188 212.533 141.831 212.183 141.574C211.838 141.317 211.401 141.189 210.874 141.189C210.333 141.189 209.885 141.322 209.53 141.588C209.175 141.854 208.912 142.216 208.739 142.673C208.571 143.13 208.487 143.644 208.487 144.213C208.487 144.787 208.573 145.305 208.746 145.767C208.923 146.224 209.187 146.586 209.537 146.852C209.887 147.118 210.326 147.251 210.853 147.251ZM213.226 148V142.309H213.114V137.92H214.15V148H213.226ZM219.313 148.21C218.575 148.21 217.936 148.047 217.395 147.72C216.858 147.393 216.44 146.934 216.142 146.341C215.843 145.748 215.694 145.053 215.694 144.255C215.694 143.429 215.841 142.715 216.135 142.113C216.429 141.511 216.842 141.047 217.374 140.72C217.91 140.393 218.543 140.23 219.271 140.23C220.017 140.23 220.654 140.403 221.182 140.748C221.709 141.089 222.108 141.579 222.379 142.218C222.649 142.857 222.773 143.62 222.75 144.507H221.7V144.143C221.681 143.163 221.469 142.423 221.063 141.924C220.661 141.425 220.073 141.175 219.299 141.175C218.487 141.175 217.864 141.439 217.43 141.966C217 142.493 216.786 143.245 216.786 144.22C216.786 145.172 217 145.912 217.43 146.439C217.864 146.962 218.477 147.223 219.271 147.223C219.812 147.223 220.283 147.099 220.685 146.852C221.091 146.6 221.41 146.238 221.644 145.767L222.603 146.138C222.304 146.796 221.863 147.307 221.28 147.671C220.701 148.03 220.045 148.21 219.313 148.21ZM216.422 144.507V143.646H222.197V144.507H216.422ZM227.46 148.21C226.709 148.21 226.067 148.04 225.535 147.699C225.003 147.358 224.595 146.887 224.31 146.285C224.026 145.683 223.883 144.992 223.883 144.213C223.883 143.42 224.028 142.724 224.317 142.127C224.607 141.53 225.017 141.065 225.549 140.734C226.086 140.398 226.723 140.23 227.46 140.23C228.216 140.23 228.86 140.4 229.392 140.741C229.929 141.077 230.337 141.546 230.617 142.148C230.902 142.745 231.044 143.434 231.044 144.213C231.044 145.006 230.902 145.704 230.617 146.306C230.333 146.903 229.922 147.37 229.385 147.706C228.849 148.042 228.207 148.21 227.46 148.21ZM227.46 147.223C228.3 147.223 228.926 146.945 229.336 146.39C229.747 145.83 229.952 145.104 229.952 144.213C229.952 143.298 229.745 142.57 229.329 142.029C228.919 141.488 228.296 141.217 227.46 141.217C226.896 141.217 226.429 141.345 226.06 141.602C225.696 141.854 225.423 142.206 225.241 142.659C225.064 143.107 224.975 143.625 224.975 144.213C224.975 145.123 225.185 145.853 225.605 146.404C226.025 146.95 226.644 147.223 227.46 147.223ZM173.674 168L177.146 157.92H178.511L181.983 168H180.912L177.615 158.494H178.021L174.745 168H173.674ZM175.221 165.557V164.591H180.429V165.557H175.221ZM186.068 168.203C185.181 168.203 184.451 168.012 183.877 167.629C183.307 167.246 182.957 166.714 182.827 166.033L183.877 165.858C183.989 166.287 184.243 166.63 184.64 166.887C185.041 167.139 185.536 167.265 186.124 167.265C186.698 167.265 187.15 167.146 187.482 166.908C187.813 166.665 187.979 166.336 187.979 165.921C187.979 165.688 187.925 165.499 187.818 165.354C187.715 165.205 187.503 165.067 187.181 164.941C186.859 164.815 186.378 164.666 185.739 164.493C185.053 164.306 184.516 164.12 184.129 163.933C183.741 163.746 183.466 163.532 183.303 163.289C183.139 163.042 183.058 162.741 183.058 162.386C183.058 161.957 183.179 161.581 183.422 161.259C183.664 160.932 184 160.68 184.43 160.503C184.859 160.321 185.358 160.23 185.928 160.23C186.497 160.23 187.006 160.323 187.454 160.51C187.906 160.692 188.27 160.949 188.546 161.28C188.821 161.611 188.984 161.996 189.036 162.435L187.986 162.624C187.916 162.181 187.694 161.831 187.321 161.574C186.952 161.313 186.483 161.177 185.914 161.168C185.377 161.154 184.941 161.257 184.605 161.476C184.269 161.691 184.101 161.978 184.101 162.337C184.101 162.538 184.161 162.71 184.283 162.855C184.404 162.995 184.623 163.128 184.941 163.254C185.263 163.38 185.72 163.518 186.313 163.667C187.008 163.844 187.554 164.031 187.951 164.227C188.347 164.423 188.63 164.654 188.798 164.92C188.966 165.186 189.05 165.515 189.05 165.907C189.05 166.621 188.784 167.183 188.252 167.594C187.724 168 186.996 168.203 186.068 168.203ZM193.423 168.203C192.536 168.203 191.806 168.012 191.232 167.629C190.663 167.246 190.313 166.714 190.182 166.033L191.232 165.858C191.344 166.287 191.598 166.63 191.995 166.887C192.396 167.139 192.891 167.265 193.479 167.265C194.053 167.265 194.506 167.146 194.837 166.908C195.168 166.665 195.334 166.336 195.334 165.921C195.334 165.688 195.28 165.499 195.173 165.354C195.07 165.205 194.858 165.067 194.536 164.941C194.214 164.815 193.733 164.666 193.094 164.493C192.408 164.306 191.871 164.12 191.484 163.933C191.097 163.746 190.821 163.532 190.658 163.289C190.495 163.042 190.413 162.741 190.413 162.386C190.413 161.957 190.534 161.581 190.777 161.259C191.02 160.932 191.356 160.68 191.785 160.503C192.214 160.321 192.714 160.23 193.283 160.23C193.852 160.23 194.361 160.323 194.809 160.51C195.262 160.692 195.626 160.949 195.901 161.28C196.176 161.611 196.34 161.996 196.391 162.435L195.341 162.624C195.271 162.181 195.049 161.831 194.676 161.574C194.307 161.313 193.838 161.177 193.269 161.168C192.732 161.154 192.296 161.257 191.96 161.476C191.624 161.691 191.456 161.978 191.456 162.337C191.456 162.538 191.517 162.71 191.638 162.855C191.759 162.995 191.979 163.128 192.296 163.254C192.618 163.38 193.075 163.518 193.668 163.667C194.363 163.844 194.909 164.031 195.306 164.227C195.703 164.423 195.985 164.654 196.153 164.92C196.321 165.186 196.405 165.515 196.405 165.907C196.405 166.621 196.139 167.183 195.607 167.594C195.08 168 194.352 168.203 193.423 168.203ZM201.157 168.21C200.419 168.21 199.78 168.047 199.239 167.72C198.702 167.393 198.284 166.934 197.986 166.341C197.687 165.748 197.538 165.053 197.538 164.255C197.538 163.429 197.685 162.715 197.979 162.113C198.273 161.511 198.686 161.047 199.218 160.72C199.754 160.393 200.387 160.23 201.115 160.23C201.861 160.23 202.498 160.403 203.026 160.748C203.553 161.089 203.952 161.579 204.223 162.218C204.493 162.857 204.617 163.62 204.594 164.507H203.544V164.143C203.525 163.163 203.313 162.423 202.907 161.924C202.505 161.425 201.917 161.175 201.143 161.175C200.331 161.175 199.708 161.439 199.274 161.966C198.844 162.493 198.63 163.245 198.63 164.22C198.63 165.172 198.844 165.912 199.274 166.439C199.708 166.962 200.321 167.223 201.115 167.223C201.656 167.223 202.127 167.099 202.529 166.852C202.935 166.6 203.254 166.238 203.488 165.767L204.447 166.138C204.148 166.796 203.707 167.307 203.124 167.671C202.545 168.03 201.889 168.21 201.157 168.21ZM198.266 164.507V163.646H204.041V164.507H198.266ZM208.968 168.203C208.081 168.203 207.351 168.012 206.777 167.629C206.208 167.246 205.858 166.714 205.727 166.033L206.777 165.858C206.889 166.287 207.143 166.63 207.54 166.887C207.941 167.139 208.436 167.265 209.024 167.265C209.598 167.265 210.051 167.146 210.382 166.908C210.713 166.665 210.879 166.336 210.879 165.921C210.879 165.688 210.825 165.499 210.718 165.354C210.615 165.205 210.403 165.067 210.081 164.941C209.759 164.815 209.278 164.666 208.639 164.493C207.953 164.306 207.416 164.12 207.029 163.933C206.642 163.746 206.366 163.532 206.203 163.289C206.04 163.042 205.958 162.741 205.958 162.386C205.958 161.957 206.079 161.581 206.322 161.259C206.565 160.932 206.901 160.68 207.33 160.503C207.759 160.321 208.259 160.23 208.828 160.23C209.397 160.23 209.906 160.323 210.354 160.51C210.807 160.692 211.171 160.949 211.446 161.28C211.721 161.611 211.885 161.996 211.936 162.435L210.886 162.624C210.816 162.181 210.594 161.831 210.221 161.574C209.852 161.313 209.383 161.177 208.814 161.168C208.277 161.154 207.841 161.257 207.505 161.476C207.169 161.691 207.001 161.978 207.001 162.337C207.001 162.538 207.062 162.71 207.183 162.855C207.304 162.995 207.524 163.128 207.841 163.254C208.163 163.38 208.62 163.518 209.213 163.667C209.908 163.844 210.454 164.031 210.851 164.227C211.248 164.423 211.53 164.654 211.698 164.92C211.866 165.186 211.95 165.515 211.95 165.907C211.95 166.621 211.684 167.183 211.152 167.594C210.625 168 209.897 168.203 208.968 168.203ZM216.323 168.203C215.437 168.203 214.706 168.012 214.132 167.629C213.563 167.246 213.213 166.714 213.082 166.033L214.132 165.858C214.244 166.287 214.499 166.63 214.895 166.887C215.297 167.139 215.791 167.265 216.379 167.265C216.953 167.265 217.406 167.146 217.737 166.908C218.069 166.665 218.234 166.336 218.234 165.921C218.234 165.688 218.181 165.499 218.073 165.354C217.971 165.205 217.758 165.067 217.436 164.941C217.114 164.815 216.634 164.666 215.994 164.493C215.308 164.306 214.772 164.12 214.384 163.933C213.997 163.746 213.722 163.532 213.558 163.289C213.395 163.042 213.313 162.741 213.313 162.386C213.313 161.957 213.435 161.581 213.677 161.259C213.92 160.932 214.256 160.68 214.685 160.503C215.115 160.321 215.614 160.23 216.183 160.23C216.753 160.23 217.261 160.323 217.709 160.51C218.162 160.692 218.526 160.949 218.801 161.28C219.077 161.611 219.24 161.996 219.291 162.435L218.241 162.624C218.171 162.181 217.95 161.831 217.576 161.574C217.208 161.313 216.739 161.177 216.169 161.168C215.633 161.154 215.196 161.257 214.86 161.476C214.524 161.691 214.356 161.978 214.356 162.337C214.356 162.538 214.417 162.71 214.538 162.855C214.66 162.995 214.879 163.128 215.196 163.254C215.518 163.38 215.976 163.518 216.568 163.667C217.264 163.844 217.81 164.031 218.206 164.227C218.603 164.423 218.885 164.654 219.053 164.92C219.221 165.186 219.305 165.515 219.305 165.907C219.305 166.621 219.039 167.183 218.507 167.594C217.98 168 217.252 168.203 216.323 168.203ZM229.874 168L229.881 163.037C229.881 162.454 229.718 161.996 229.391 161.665C229.069 161.329 228.658 161.161 228.159 161.161C227.874 161.161 227.597 161.226 227.326 161.357C227.055 161.488 226.831 161.698 226.654 161.987C226.481 162.276 226.395 162.654 226.395 163.121L225.786 162.946C225.772 162.405 225.877 161.931 226.101 161.525C226.33 161.119 226.642 160.804 227.039 160.58C227.44 160.351 227.893 160.237 228.397 160.237C229.158 160.237 229.767 160.473 230.224 160.944C230.681 161.411 230.91 162.043 230.91 162.841L230.903 168H229.874ZM220.851 168V160.44H221.775V162.302H221.887V168H220.851ZM225.373 168L225.38 163.107C225.38 162.505 225.219 162.031 224.897 161.686C224.58 161.336 224.16 161.161 223.637 161.161C223.114 161.161 222.692 161.341 222.37 161.7C222.048 162.055 221.887 162.528 221.887 163.121L221.271 162.785C221.271 162.3 221.385 161.866 221.614 161.483C221.843 161.096 222.155 160.792 222.552 160.573C222.949 160.349 223.399 160.237 223.903 160.237C224.384 160.237 224.811 160.34 225.184 160.545C225.562 160.75 225.858 161.049 226.073 161.441C226.288 161.833 226.395 162.309 226.395 162.869L226.388 168H225.373ZM235.883 168.21C235.146 168.21 234.506 168.047 233.965 167.72C233.428 167.393 233.011 166.934 232.712 166.341C232.413 165.748 232.264 165.053 232.264 164.255C232.264 163.429 232.411 162.715 232.705 162.113C232.999 161.511 233.412 161.047 233.944 160.72C234.481 160.393 235.113 160.23 235.841 160.23C236.588 160.23 237.225 160.403 237.752 160.748C238.279 161.089 238.678 161.579 238.949 162.218C239.22 162.857 239.343 163.62 239.32 164.507H238.27V164.143C238.251 163.163 238.039 162.423 237.633 161.924C237.232 161.425 236.644 161.175 235.869 161.175C235.057 161.175 234.434 161.439 234 161.966C233.571 162.493 233.356 163.245 233.356 164.22C233.356 165.172 233.571 165.912 234 166.439C234.434 166.962 235.048 167.223 235.841 167.223C236.382 167.223 236.854 167.099 237.255 166.852C237.661 166.6 237.981 166.238 238.214 165.767L239.173 166.138C238.874 166.796 238.433 167.307 237.85 167.671C237.271 168.03 236.616 168.21 235.883 168.21ZM232.992 164.507V163.646H238.767V164.507H232.992ZM246.128 168V164.143C246.128 163.723 246.089 163.338 246.009 162.988C245.93 162.633 245.802 162.325 245.624 162.064C245.452 161.798 245.225 161.593 244.945 161.448C244.67 161.303 244.334 161.231 243.937 161.231C243.573 161.231 243.251 161.294 242.971 161.42C242.696 161.546 242.463 161.728 242.271 161.966C242.085 162.199 241.942 162.484 241.844 162.82C241.746 163.156 241.697 163.539 241.697 163.968L240.969 163.807C240.969 163.032 241.105 162.381 241.375 161.854C241.646 161.327 242.019 160.928 242.495 160.657C242.971 160.386 243.517 160.251 244.133 160.251C244.586 160.251 244.98 160.321 245.316 160.461C245.657 160.601 245.944 160.79 246.177 161.028C246.415 161.266 246.607 161.539 246.751 161.847C246.896 162.15 247.001 162.475 247.066 162.82C247.132 163.161 247.164 163.501 247.164 163.842V168H246.128ZM240.661 168V160.44H241.592V162.302H241.697V168H240.661ZM253.097 168C252.672 168.089 252.252 168.124 251.837 168.105C251.426 168.086 251.058 167.998 250.731 167.839C250.409 167.68 250.164 167.433 249.996 167.097C249.861 166.817 249.786 166.535 249.772 166.25C249.763 165.961 249.758 165.632 249.758 165.263V158.34H250.78V165.221C250.78 165.538 250.782 165.804 250.787 166.019C250.796 166.229 250.845 166.416 250.934 166.579C251.102 166.892 251.368 167.078 251.732 167.139C252.101 167.2 252.556 167.186 253.097 167.097V168ZM248.141 161.322V160.44H253.097V161.322H248.141Z" fill="white"/>
<path d="M194.188 236L191.276 225.92H192.347L194.706 234.243L197.051 225.927L198.129 225.92L200.488 234.243L202.833 225.92H203.911L201.006 236H199.97L197.59 227.733L195.224 236H194.188ZM204.989 227.005V225.85H206.018V227.005H204.989ZM204.989 236V228.44H206.018V236H204.989ZM213.577 236V232.143C213.577 231.723 213.537 231.338 213.458 230.988C213.378 230.633 213.25 230.325 213.073 230.064C212.9 229.798 212.674 229.593 212.394 229.448C212.118 229.303 211.782 229.231 211.386 229.231C211.022 229.231 210.7 229.294 210.42 229.42C210.144 229.546 209.911 229.728 209.72 229.966C209.533 230.199 209.391 230.484 209.293 230.82C209.195 231.156 209.146 231.539 209.146 231.968L208.418 231.807C208.418 231.032 208.553 230.381 208.824 229.854C209.094 229.327 209.468 228.928 209.944 228.657C210.42 228.386 210.966 228.251 211.582 228.251C212.034 228.251 212.429 228.321 212.765 228.461C213.105 228.601 213.392 228.79 213.626 229.028C213.864 229.266 214.055 229.539 214.2 229.847C214.344 230.15 214.449 230.475 214.515 230.82C214.58 231.161 214.613 231.501 214.613 231.842V236H213.577ZM208.11 236V228.44H209.041V230.302H209.146V236H208.11ZM221.889 236V232.143C221.889 231.723 221.85 231.338 221.77 230.988C221.691 230.633 221.563 230.325 221.385 230.064C221.213 229.798 220.986 229.593 220.706 229.448C220.431 229.303 220.095 229.231 219.698 229.231C219.334 229.231 219.012 229.294 218.732 229.42C218.457 229.546 218.224 229.728 218.032 229.966C217.846 230.199 217.703 230.484 217.605 230.82C217.507 231.156 217.458 231.539 217.458 231.968L216.73 231.807C216.73 231.032 216.866 230.381 217.136 229.854C217.407 229.327 217.78 228.928 218.256 228.657C218.732 228.386 219.278 228.251 219.894 228.251C220.347 228.251 220.741 228.321 221.077 228.461C221.418 228.601 221.705 228.79 221.938 229.028C222.176 229.266 222.368 229.539 222.512 229.847C222.657 230.15 222.762 230.475 222.827 230.82C222.893 231.161 222.925 231.501 222.925 231.842V236H221.889ZM216.422 236V228.44H217.353V230.302H217.458V236H216.422ZM227.9 236.21C227.162 236.21 226.523 236.047 225.982 235.72C225.445 235.393 225.027 234.934 224.729 234.341C224.43 233.748 224.281 233.053 224.281 232.255C224.281 231.429 224.428 230.715 224.722 230.113C225.016 229.511 225.429 229.047 225.961 228.72C226.497 228.393 227.13 228.23 227.858 228.23C228.604 228.23 229.241 228.403 229.769 228.748C230.296 229.089 230.695 229.579 230.966 230.218C231.236 230.857 231.36 231.62 231.337 232.507H230.287V232.143C230.268 231.163 230.056 230.423 229.65 229.924C229.248 229.425 228.66 229.175 227.886 229.175C227.074 229.175 226.451 229.439 226.017 229.966C225.587 230.493 225.373 231.245 225.373 232.22C225.373 233.172 225.587 233.912 226.017 234.439C226.451 234.962 227.064 235.223 227.858 235.223C228.399 235.223 228.87 235.099 229.272 234.852C229.678 234.6 229.997 234.238 230.231 233.767L231.19 234.138C230.891 234.796 230.45 235.307 229.867 235.671C229.288 236.03 228.632 236.21 227.9 236.21ZM225.009 232.507V231.646H230.784V232.507H225.009ZM232.89 236V228.44H233.814V230.26L233.632 230.022C233.716 229.798 233.826 229.593 233.961 229.406C234.096 229.215 234.243 229.058 234.402 228.937C234.598 228.764 234.827 228.634 235.088 228.545C235.349 228.452 235.613 228.398 235.879 228.384C236.145 228.365 236.388 228.384 236.607 228.44V229.406C236.332 229.336 236.031 229.32 235.704 229.357C235.377 229.394 235.076 229.525 234.801 229.749C234.549 229.945 234.36 230.181 234.234 230.456C234.108 230.727 234.024 231.016 233.982 231.324C233.94 231.627 233.919 231.928 233.919 232.227V236H232.89ZM164.487 256L167.959 245.92H169.324L172.796 256H171.725L168.428 246.494H168.834L165.558 256H164.487ZM166.034 253.557V252.591H171.242V253.557H166.034ZM179.52 256V252.143C179.52 251.723 179.48 251.338 179.401 250.988C179.322 250.633 179.193 250.325 179.016 250.064C178.843 249.798 178.617 249.593 178.337 249.448C178.062 249.303 177.726 249.231 177.329 249.231C176.965 249.231 176.643 249.294 176.363 249.42C176.088 249.546 175.854 249.728 175.663 249.966C175.476 250.199 175.334 250.484 175.236 250.82C175.138 251.156 175.089 251.539 175.089 251.968L174.361 251.807C174.361 251.032 174.496 250.381 174.767 249.854C175.038 249.327 175.411 248.928 175.887 248.657C176.363 248.386 176.909 248.251 177.525 248.251C177.978 248.251 178.372 248.321 178.708 248.461C179.049 248.601 179.336 248.79 179.569 249.028C179.807 249.266 179.998 249.539 180.143 249.847C180.288 250.15 180.393 250.475 180.458 250.82C180.523 251.161 180.556 251.501 180.556 251.842V256H179.52ZM174.053 256V248.44H174.984V250.302H175.089V256H174.053ZM187.833 256V252.143C187.833 251.723 187.793 251.338 187.714 250.988C187.634 250.633 187.506 250.325 187.329 250.064C187.156 249.798 186.93 249.593 186.65 249.448C186.374 249.303 186.038 249.231 185.642 249.231C185.278 249.231 184.956 249.294 184.676 249.42C184.4 249.546 184.167 249.728 183.976 249.966C183.789 250.199 183.647 250.484 183.549 250.82C183.451 251.156 183.402 251.539 183.402 251.968L182.674 251.807C182.674 251.032 182.809 250.381 183.08 249.854C183.35 249.327 183.724 248.928 184.2 248.657C184.676 248.386 185.222 248.251 185.838 248.251C186.29 248.251 186.685 248.321 187.021 248.461C187.361 248.601 187.648 248.79 187.882 249.028C188.12 249.266 188.311 249.539 188.456 249.847C188.6 250.15 188.705 250.475 188.771 250.82C188.836 251.161 188.869 251.501 188.869 251.842V256H187.833ZM182.366 256V248.44H183.297V250.302H183.402V256H182.366ZM193.801 256.21C193.05 256.21 192.408 256.04 191.876 255.699C191.344 255.358 190.936 254.887 190.651 254.285C190.366 253.683 190.224 252.992 190.224 252.213C190.224 251.42 190.369 250.724 190.658 250.127C190.947 249.53 191.358 249.065 191.89 248.734C192.427 248.398 193.064 248.23 193.801 248.23C194.557 248.23 195.201 248.4 195.733 248.741C196.27 249.077 196.678 249.546 196.958 250.148C197.243 250.745 197.385 251.434 197.385 252.213C197.385 253.006 197.243 253.704 196.958 254.306C196.673 254.903 196.263 255.37 195.726 255.706C195.189 256.042 194.548 256.21 193.801 256.21ZM193.801 255.223C194.641 255.223 195.266 254.945 195.677 254.39C196.088 253.83 196.293 253.104 196.293 252.213C196.293 251.298 196.085 250.57 195.67 250.029C195.259 249.488 194.636 249.217 193.801 249.217C193.236 249.217 192.77 249.345 192.401 249.602C192.037 249.854 191.764 250.206 191.582 250.659C191.405 251.107 191.316 251.625 191.316 252.213C191.316 253.123 191.526 253.853 191.946 254.404C192.366 254.95 192.984 255.223 193.801 255.223ZM201.82 256.189C201.368 256.189 200.971 256.119 200.63 255.979C200.294 255.839 200.007 255.65 199.769 255.412C199.536 255.174 199.347 254.903 199.202 254.6C199.058 254.292 198.953 253.968 198.887 253.627C198.822 253.282 198.789 252.939 198.789 252.598V248.44H199.825V252.297C199.825 252.712 199.865 253.097 199.944 253.452C200.024 253.807 200.15 254.117 200.322 254.383C200.5 254.644 200.726 254.847 201.001 254.992C201.281 255.137 201.62 255.209 202.016 255.209C202.38 255.209 202.7 255.146 202.975 255.02C203.255 254.894 203.489 254.714 203.675 254.481C203.867 254.243 204.011 253.956 204.109 253.62C204.207 253.279 204.256 252.897 204.256 252.472L204.984 252.633C204.984 253.408 204.849 254.059 204.578 254.586C204.308 255.113 203.934 255.512 203.458 255.783C202.982 256.054 202.436 256.189 201.82 256.189ZM204.361 256V254.138H204.256V248.44H205.285V256H204.361ZM212.702 256V252.143C212.702 251.723 212.662 251.338 212.583 250.988C212.503 250.633 212.375 250.325 212.198 250.064C212.025 249.798 211.799 249.593 211.519 249.448C211.243 249.303 210.907 249.231 210.511 249.231C210.147 249.231 209.825 249.294 209.545 249.42C209.269 249.546 209.036 249.728 208.845 249.966C208.658 250.199 208.516 250.484 208.418 250.82C208.32 251.156 208.271 251.539 208.271 251.968L207.543 251.807C207.543 251.032 207.678 250.381 207.949 249.854C208.219 249.327 208.593 248.928 209.069 248.657C209.545 248.386 210.091 248.251 210.707 248.251C211.159 248.251 211.554 248.321 211.89 248.461C212.23 248.601 212.517 248.79 212.751 249.028C212.989 249.266 213.18 249.539 213.325 249.847C213.469 250.15 213.574 250.475 213.64 250.82C213.705 251.161 213.738 251.501 213.738 251.842V256H212.702ZM207.235 256V248.44H208.166V250.302H208.271V256H207.235ZM218.649 256.21C217.889 256.21 217.245 256.04 216.717 255.699C216.19 255.358 215.789 254.889 215.513 254.292C215.243 253.69 215.103 252.999 215.093 252.22C215.103 251.427 215.247 250.731 215.527 250.134C215.807 249.532 216.211 249.065 216.738 248.734C217.266 248.398 217.905 248.23 218.656 248.23C219.422 248.23 220.087 248.417 220.651 248.79C221.221 249.163 221.61 249.674 221.82 250.323L220.812 250.645C220.635 250.192 220.353 249.842 219.965 249.595C219.583 249.343 219.144 249.217 218.649 249.217C218.094 249.217 217.634 249.345 217.27 249.602C216.906 249.854 216.636 250.206 216.458 250.659C216.281 251.112 216.19 251.632 216.185 252.22C216.195 253.125 216.405 253.853 216.815 254.404C217.226 254.95 217.837 255.223 218.649 255.223C219.163 255.223 219.599 255.106 219.958 254.873C220.322 254.635 220.598 254.29 220.784 253.837L221.82 254.145C221.54 254.817 221.13 255.33 220.588 255.685C220.047 256.035 219.401 256.21 218.649 256.21ZM226.259 256.21C225.522 256.21 224.882 256.047 224.341 255.72C223.804 255.393 223.387 254.934 223.088 254.341C222.789 253.748 222.64 253.053 222.64 252.255C222.64 251.429 222.787 250.715 223.081 250.113C223.375 249.511 223.788 249.047 224.32 248.72C224.857 248.393 225.489 248.23 226.217 248.23C226.964 248.23 227.601 248.403 228.128 248.748C228.655 249.089 229.054 249.579 229.325 250.218C229.596 250.857 229.719 251.62 229.696 252.507H228.646V252.143C228.627 251.163 228.415 250.423 228.009 249.924C227.608 249.425 227.02 249.175 226.245 249.175C225.433 249.175 224.81 249.439 224.376 249.966C223.947 250.493 223.732 251.245 223.732 252.22C223.732 253.172 223.947 253.912 224.376 254.439C224.81 254.962 225.424 255.223 226.217 255.223C226.758 255.223 227.23 255.099 227.631 254.852C228.037 254.6 228.357 254.238 228.59 253.767L229.549 254.138C229.25 254.796 228.809 255.307 228.226 255.671C227.647 256.03 226.992 256.21 226.259 256.21ZM223.368 252.507V251.646H229.143V252.507H223.368ZM240.06 256L240.067 251.037C240.067 250.454 239.904 249.996 239.577 249.665C239.255 249.329 238.845 249.161 238.345 249.161C238.061 249.161 237.783 249.226 237.512 249.357C237.242 249.488 237.018 249.698 236.84 249.987C236.668 250.276 236.581 250.654 236.581 251.121L235.972 250.946C235.958 250.405 236.063 249.931 236.287 249.525C236.516 249.119 236.829 248.804 237.225 248.58C237.627 248.351 238.079 248.237 238.583 248.237C239.344 248.237 239.953 248.473 240.41 248.944C240.868 249.411 241.096 250.043 241.096 250.841L241.089 256H240.06ZM231.037 256V248.44H231.961V250.302H232.073V256H231.037ZM235.559 256L235.566 251.107C235.566 250.505 235.405 250.031 235.083 249.686C234.766 249.336 234.346 249.161 233.823 249.161C233.301 249.161 232.878 249.341 232.556 249.7C232.234 250.055 232.073 250.528 232.073 251.121L231.457 250.785C231.457 250.3 231.572 249.866 231.8 249.483C232.029 249.096 232.342 248.792 232.738 248.573C233.135 248.349 233.585 248.237 234.089 248.237C234.57 248.237 234.997 248.34 235.37 248.545C235.748 248.75 236.045 249.049 236.259 249.441C236.474 249.833 236.581 250.309 236.581 250.869L236.574 256H235.559ZM246.07 256.21C245.332 256.21 244.693 256.047 244.152 255.72C243.615 255.393 243.197 254.934 242.899 254.341C242.6 253.748 242.451 253.053 242.451 252.255C242.451 251.429 242.598 250.715 242.892 250.113C243.186 249.511 243.599 249.047 244.131 248.72C244.667 248.393 245.3 248.23 246.028 248.23C246.774 248.23 247.411 248.403 247.939 248.748C248.466 249.089 248.865 249.579 249.136 250.218C249.406 250.857 249.53 251.62 249.507 252.507H248.457V252.143C248.438 251.163 248.226 250.423 247.82 249.924C247.418 249.425 246.83 249.175 246.056 249.175C245.244 249.175 244.621 249.439 244.187 249.966C243.757 250.493 243.543 251.245 243.543 252.22C243.543 253.172 243.757 253.912 244.187 254.439C244.621 254.962 245.234 255.223 246.028 255.223C246.569 255.223 247.04 255.099 247.442 254.852C247.848 254.6 248.167 254.238 248.401 253.767L249.36 254.138C249.061 254.796 248.62 255.307 248.037 255.671C247.458 256.03 246.802 256.21 246.07 256.21ZM243.179 252.507V251.646H248.954V252.507H243.179ZM256.315 256V252.143C256.315 251.723 256.275 251.338 256.196 250.988C256.117 250.633 255.988 250.325 255.811 250.064C255.638 249.798 255.412 249.593 255.132 249.448C254.857 249.303 254.521 249.231 254.124 249.231C253.76 249.231 253.438 249.294 253.158 249.42C252.883 249.546 252.649 249.728 252.458 249.966C252.271 250.199 252.129 250.484 252.031 250.82C251.933 251.156 251.884 251.539 251.884 251.968L251.156 251.807C251.156 251.032 251.291 250.381 251.562 249.854C251.833 249.327 252.206 248.928 252.682 248.657C253.158 248.386 253.704 248.251 254.32 248.251C254.773 248.251 255.167 248.321 255.503 248.461C255.844 248.601 256.131 248.79 256.364 249.028C256.602 249.266 256.793 249.539 256.938 249.847C257.083 250.15 257.188 250.475 257.253 250.82C257.318 251.161 257.351 251.501 257.351 251.842V256H256.315ZM250.848 256V248.44H251.779V250.302H251.884V256H250.848ZM263.284 256C262.859 256.089 262.439 256.124 262.024 256.105C261.613 256.086 261.244 255.998 260.918 255.839C260.596 255.68 260.351 255.433 260.183 255.097C260.047 254.817 259.973 254.535 259.959 254.25C259.949 253.961 259.945 253.632 259.945 253.263V246.34H260.967V253.221C260.967 253.538 260.969 253.804 260.974 254.019C260.983 254.229 261.032 254.416 261.121 254.579C261.289 254.892 261.555 255.078 261.919 255.139C262.287 255.2 262.742 255.186 263.284 255.097V256ZM258.328 249.322V248.44H263.284V249.322H258.328Z" fill="white"/>
<defs>
<linearGradient id="paint0_linear_1607_3535" x1="132" y1="311" x2="132" y2="5" gradientUnits="userSpaceOnUse">
<stop stop-color="#F3F3E7"/>
<stop offset="1" stop-color="#FBE3C0"/>
</linearGradient>
</defs>
</svg>
