<svg width="527" height="171" viewBox="0 0 527 171" fill="none" xmlns="http://www.w3.org/2000/svg">
<path d="M5 66L522 66" stroke="white" stroke-width="10" stroke-linecap="round"/>
<circle cx="395" cy="66" r="14" fill="#F8A22D"/>
<circle cx="259" cy="66" r="14" fill="#F8A22D"/>
<circle cx="123" cy="66" r="14" fill="#F8A22D"/>
<path d="M84.7085 127V116.92H88.6005C88.6985 116.92 88.8082 116.925 88.9295 116.934C89.0555 116.939 89.1815 116.953 89.3075 116.976C89.8348 117.055 90.2805 117.24 90.6445 117.529C91.0132 117.814 91.2908 118.173 91.4775 118.607C91.6688 119.041 91.7645 119.522 91.7645 120.049C91.7645 120.81 91.5638 121.47 91.1625 122.03C90.7612 122.59 90.1872 122.942 89.4405 123.087L89.0835 123.171H85.7375V127H84.7085ZM90.8125 127L88.8245 122.898L89.8115 122.52L91.9955 127H90.8125ZM85.7375 122.191H88.5725C88.6565 122.191 88.7545 122.186 88.8665 122.177C88.9785 122.168 89.0882 122.151 89.1955 122.128C89.5408 122.053 89.8232 121.911 90.0425 121.701C90.2665 121.491 90.4322 121.241 90.5395 120.952C90.6515 120.663 90.7075 120.362 90.7075 120.049C90.7075 119.736 90.6515 119.435 90.5395 119.146C90.4322 118.852 90.2665 118.6 90.0425 118.39C89.8232 118.18 89.5408 118.038 89.1955 117.963C89.0882 117.94 88.9785 117.926 88.8665 117.921C88.7545 117.912 88.6565 117.907 88.5725 117.907H85.7375V122.191ZM96.7395 127.21C96.0022 127.21 95.3629 127.047 94.8215 126.72C94.2849 126.393 93.8672 125.934 93.5685 125.341C93.2699 124.748 93.1205 124.053 93.1205 123.255C93.1205 122.429 93.2675 121.715 93.5615 121.113C93.8555 120.511 94.2685 120.047 94.8005 119.72C95.3372 119.393 95.9695 119.23 96.6975 119.23C97.4442 119.23 98.0812 119.403 98.6085 119.748C99.1359 120.089 99.5349 120.579 99.8055 121.218C100.076 121.857 100.2 122.62 100.177 123.507H99.1265V123.143C99.1079 122.163 98.8955 121.423 98.4895 120.924C98.0882 120.425 97.5002 120.175 96.7255 120.175C95.9135 120.175 95.2905 120.439 94.8565 120.966C94.4272 121.493 94.2125 122.245 94.2125 123.22C94.2125 124.172 94.4272 124.912 94.8565 125.439C95.2905 125.962 95.9042 126.223 96.6975 126.223C97.2389 126.223 97.7102 126.099 98.1115 125.852C98.5175 125.6 98.8372 125.238 99.0705 124.767L100.03 125.138C99.7309 125.796 99.2899 126.307 98.7065 126.671C98.1279 127.03 97.4722 127.21 96.7395 127.21ZM93.8485 123.507V122.646H99.6235V123.507H93.8485ZM104.733 130.57C104.346 130.57 103.963 130.512 103.585 130.395C103.212 130.283 102.866 130.103 102.549 129.856C102.232 129.613 101.966 129.296 101.751 128.904L102.682 128.386C102.892 128.806 103.186 129.107 103.564 129.289C103.947 129.476 104.336 129.569 104.733 129.569C105.279 129.569 105.72 129.466 106.056 129.261C106.397 129.06 106.644 128.762 106.798 128.365C106.952 127.968 107.027 127.474 107.022 126.881V124.865H107.141V119.44H108.058V126.895C108.058 127.11 108.051 127.315 108.037 127.511C108.028 127.712 108.007 127.908 107.974 128.099C107.885 128.664 107.701 129.128 107.421 129.492C107.146 129.856 106.782 130.127 106.329 130.304C105.881 130.481 105.349 130.57 104.733 130.57ZM104.663 127.21C103.958 127.21 103.356 127.035 102.857 126.685C102.358 126.33 101.975 125.852 101.709 125.25C101.443 124.648 101.31 123.969 101.31 123.213C101.31 122.462 101.441 121.785 101.702 121.183C101.968 120.581 102.348 120.105 102.843 119.755C103.338 119.405 103.93 119.23 104.621 119.23C105.33 119.23 105.928 119.403 106.413 119.748C106.898 120.093 107.265 120.567 107.512 121.169C107.764 121.766 107.89 122.448 107.89 123.213C107.89 123.964 107.766 124.643 107.519 125.25C107.272 125.852 106.908 126.33 106.427 126.685C105.946 127.035 105.358 127.21 104.663 127.21ZM104.768 126.251C105.305 126.251 105.748 126.12 106.098 125.859C106.448 125.598 106.709 125.238 106.882 124.781C107.055 124.319 107.141 123.796 107.141 123.213C107.141 122.62 107.055 122.098 106.882 121.645C106.709 121.188 106.448 120.831 106.098 120.574C105.753 120.317 105.316 120.189 104.789 120.189C104.248 120.189 103.8 120.322 103.445 120.588C103.09 120.854 102.827 121.216 102.654 121.673C102.486 122.13 102.402 122.644 102.402 123.213C102.402 123.787 102.488 124.305 102.661 124.767C102.838 125.224 103.102 125.586 103.452 125.852C103.802 126.118 104.241 126.251 104.768 126.251ZM110.155 118.005V116.85H111.184V118.005H110.155ZM110.155 127V119.44H111.184V127H110.155ZM116.104 127.203C115.217 127.203 114.487 127.012 113.913 126.629C113.343 126.246 112.993 125.714 112.863 125.033L113.913 124.858C114.025 125.287 114.279 125.63 114.676 125.887C115.077 126.139 115.572 126.265 116.16 126.265C116.734 126.265 117.186 126.146 117.518 125.908C117.849 125.665 118.015 125.336 118.015 124.921C118.015 124.688 117.961 124.499 117.854 124.354C117.751 124.205 117.539 124.067 117.217 123.941C116.895 123.815 116.414 123.666 115.775 123.493C115.089 123.306 114.552 123.12 114.165 122.933C113.777 122.746 113.502 122.532 113.339 122.289C113.175 122.042 113.094 121.741 113.094 121.386C113.094 120.957 113.215 120.581 113.458 120.259C113.7 119.932 114.036 119.68 114.466 119.503C114.895 119.321 115.394 119.23 115.964 119.23C116.533 119.23 117.042 119.323 117.49 119.51C117.942 119.692 118.306 119.949 118.582 120.28C118.857 120.611 119.02 120.996 119.072 121.435L118.022 121.624C117.952 121.181 117.73 120.831 117.357 120.574C116.988 120.313 116.519 120.177 115.95 120.168C115.413 120.154 114.977 120.257 114.641 120.476C114.305 120.691 114.137 120.978 114.137 121.337C114.137 121.538 114.197 121.71 114.319 121.855C114.44 121.995 114.659 122.128 114.977 122.254C115.299 122.38 115.756 122.518 116.349 122.667C117.044 122.844 117.59 123.031 117.987 123.227C118.383 123.423 118.666 123.654 118.834 123.92C119.002 124.186 119.086 124.515 119.086 124.907C119.086 125.621 118.82 126.183 118.288 126.594C117.76 127 117.032 127.203 116.104 127.203ZM124.754 127C124.33 127.089 123.91 127.124 123.494 127.105C123.084 127.086 122.715 126.998 122.388 126.839C122.066 126.68 121.821 126.433 121.653 126.097C121.518 125.817 121.443 125.535 121.429 125.25C121.42 124.961 121.415 124.632 121.415 124.263V117.34H122.437V124.221C122.437 124.538 122.44 124.804 122.444 125.019C122.454 125.229 122.503 125.416 122.591 125.579C122.759 125.892 123.025 126.078 123.389 126.139C123.758 126.2 124.213 126.186 124.754 126.097V127ZM119.798 120.322V119.44H124.754V120.322H119.798ZM126.244 127V119.44H127.168V121.26L126.986 121.022C127.07 120.798 127.179 120.593 127.315 120.406C127.45 120.215 127.597 120.058 127.756 119.937C127.952 119.764 128.18 119.634 128.442 119.545C128.703 119.452 128.967 119.398 129.233 119.384C129.499 119.365 129.741 119.384 129.961 119.44V120.406C129.685 120.336 129.384 120.32 129.058 120.357C128.731 120.394 128.43 120.525 128.155 120.749C127.903 120.945 127.714 121.181 127.588 121.456C127.462 121.727 127.378 122.016 127.336 122.324C127.294 122.627 127.273 122.928 127.273 123.227V127H126.244ZM133.164 127.21C132.595 127.21 132.117 127.107 131.729 126.902C131.347 126.697 131.06 126.424 130.868 126.083C130.677 125.742 130.581 125.371 130.581 124.97C130.581 124.559 130.663 124.209 130.826 123.92C130.994 123.626 131.221 123.386 131.505 123.199C131.795 123.012 132.128 122.87 132.506 122.772C132.889 122.679 133.311 122.597 133.773 122.527C134.24 122.452 134.695 122.389 135.138 122.338C135.586 122.282 135.978 122.228 136.314 122.177L135.95 122.401C135.964 121.654 135.82 121.101 135.516 120.742C135.213 120.383 134.686 120.203 133.934 120.203C133.416 120.203 132.978 120.32 132.618 120.553C132.264 120.786 132.014 121.155 131.869 121.659L130.868 121.365C131.041 120.688 131.389 120.163 131.911 119.79C132.434 119.417 133.113 119.23 133.948 119.23C134.639 119.23 135.225 119.361 135.705 119.622C136.191 119.879 136.534 120.252 136.734 120.742C136.828 120.961 136.888 121.206 136.916 121.477C136.944 121.748 136.958 122.023 136.958 122.303V127H136.041V125.103L136.307 125.215C136.051 125.864 135.652 126.358 135.11 126.699C134.569 127.04 133.92 127.21 133.164 127.21ZM133.283 126.321C133.764 126.321 134.184 126.235 134.543 126.062C134.903 125.889 135.192 125.654 135.411 125.355C135.631 125.052 135.773 124.711 135.838 124.333C135.894 124.09 135.925 123.824 135.929 123.535C135.934 123.241 135.936 123.022 135.936 122.877L136.328 123.08C135.978 123.127 135.598 123.173 135.187 123.22C134.781 123.267 134.38 123.32 133.983 123.381C133.591 123.442 133.237 123.514 132.919 123.598C132.705 123.659 132.497 123.745 132.296 123.857C132.096 123.964 131.93 124.109 131.799 124.291C131.673 124.473 131.61 124.699 131.61 124.97C131.61 125.189 131.664 125.402 131.771 125.607C131.883 125.812 132.061 125.983 132.303 126.118C132.551 126.253 132.877 126.321 133.283 126.321ZM142.897 127C142.472 127.089 142.052 127.124 141.637 127.105C141.226 127.086 140.857 126.998 140.531 126.839C140.209 126.68 139.964 126.433 139.796 126.097C139.66 125.817 139.586 125.535 139.572 125.25C139.562 124.961 139.558 124.632 139.558 124.263V117.34H140.58V124.221C140.58 124.538 140.582 124.804 140.587 125.019C140.596 125.229 140.645 125.416 140.734 125.579C140.902 125.892 141.168 126.078 141.532 126.139C141.9 126.2 142.355 126.186 142.897 126.097V127ZM137.941 120.322V119.44H142.897V120.322H137.941ZM144.526 118.005V116.85H145.555V118.005H144.526ZM144.526 127V119.44H145.555V127H144.526ZM150.811 127.21C150.059 127.21 149.418 127.04 148.886 126.699C148.354 126.358 147.945 125.887 147.661 125.285C147.376 124.683 147.234 123.992 147.234 123.213C147.234 122.42 147.378 121.724 147.668 121.127C147.957 120.53 148.368 120.065 148.9 119.734C149.436 119.398 150.073 119.23 150.811 119.23C151.567 119.23 152.211 119.4 152.743 119.741C153.279 120.077 153.688 120.546 153.968 121.148C154.252 121.745 154.395 122.434 154.395 123.213C154.395 124.006 154.252 124.704 153.968 125.306C153.683 125.903 153.272 126.37 152.736 126.706C152.199 127.042 151.557 127.21 150.811 127.21ZM150.811 126.223C151.651 126.223 152.276 125.945 152.687 125.39C153.097 124.83 153.303 124.104 153.303 123.213C153.303 122.298 153.095 121.57 152.68 121.029C152.269 120.488 151.646 120.217 150.811 120.217C150.246 120.217 149.779 120.345 149.411 120.602C149.047 120.854 148.774 121.206 148.592 121.659C148.414 122.107 148.326 122.625 148.326 123.213C148.326 124.123 148.536 124.853 148.956 125.404C149.376 125.95 149.994 126.223 150.811 126.223ZM161.399 127V123.143C161.399 122.723 161.359 122.338 161.28 121.988C161.201 121.633 161.072 121.325 160.895 121.064C160.722 120.798 160.496 120.593 160.216 120.448C159.941 120.303 159.605 120.231 159.208 120.231C158.844 120.231 158.522 120.294 158.242 120.42C157.967 120.546 157.733 120.728 157.542 120.966C157.355 121.199 157.213 121.484 157.115 121.82C157.017 122.156 156.968 122.539 156.968 122.968L156.24 122.807C156.24 122.032 156.375 121.381 156.646 120.854C156.917 120.327 157.29 119.928 157.766 119.657C158.242 119.386 158.788 119.251 159.404 119.251C159.857 119.251 160.251 119.321 160.587 119.461C160.928 119.601 161.215 119.79 161.448 120.028C161.686 120.266 161.877 120.539 162.022 120.847C162.167 121.15 162.272 121.475 162.337 121.82C162.402 122.161 162.435 122.501 162.435 122.842V127H161.399ZM155.932 127V119.44H156.863V121.302H156.968V127H155.932ZM114.468 147.21C113.899 147.21 113.421 147.107 113.033 146.902C112.651 146.697 112.364 146.424 112.172 146.083C111.981 145.742 111.885 145.371 111.885 144.97C111.885 144.559 111.967 144.209 112.13 143.92C112.298 143.626 112.525 143.386 112.809 143.199C113.099 143.012 113.432 142.87 113.81 142.772C114.193 142.679 114.615 142.597 115.077 142.527C115.544 142.452 115.999 142.389 116.442 142.338C116.89 142.282 117.282 142.228 117.618 142.177L117.254 142.401C117.268 141.654 117.124 141.101 116.82 140.742C116.517 140.383 115.99 140.203 115.238 140.203C114.72 140.203 114.282 140.32 113.922 140.553C113.568 140.786 113.318 141.155 113.173 141.659L112.172 141.365C112.345 140.688 112.693 140.163 113.215 139.79C113.738 139.417 114.417 139.23 115.252 139.23C115.943 139.23 116.529 139.361 117.009 139.622C117.495 139.879 117.838 140.252 118.038 140.742C118.132 140.961 118.192 141.206 118.22 141.477C118.248 141.748 118.262 142.023 118.262 142.303V147H117.345V145.103L117.611 145.215C117.355 145.864 116.956 146.358 116.414 146.699C115.873 147.04 115.224 147.21 114.468 147.21ZM114.587 146.321C115.068 146.321 115.488 146.235 115.847 146.062C116.207 145.889 116.496 145.654 116.715 145.355C116.935 145.052 117.077 144.711 117.142 144.333C117.198 144.09 117.229 143.824 117.233 143.535C117.238 143.241 117.24 143.022 117.24 142.877L117.632 143.08C117.282 143.127 116.902 143.173 116.491 143.22C116.085 143.267 115.684 143.32 115.287 143.381C114.895 143.442 114.541 143.514 114.223 143.598C114.009 143.659 113.801 143.745 113.6 143.857C113.4 143.964 113.234 144.109 113.103 144.291C112.977 144.473 112.914 144.699 112.914 144.97C112.914 145.189 112.968 145.402 113.075 145.607C113.187 145.812 113.365 145.983 113.607 146.118C113.855 146.253 114.181 146.321 114.587 146.321ZM125.544 147V143.143C125.544 142.723 125.505 142.338 125.425 141.988C125.346 141.633 125.218 141.325 125.04 141.064C124.868 140.798 124.641 140.593 124.361 140.448C124.086 140.303 123.75 140.231 123.353 140.231C122.989 140.231 122.667 140.294 122.387 140.42C122.112 140.546 121.879 140.728 121.687 140.966C121.501 141.199 121.358 141.484 121.26 141.82C121.162 142.156 121.113 142.539 121.113 142.968L120.385 142.807C120.385 142.032 120.521 141.381 120.791 140.854C121.062 140.327 121.435 139.928 121.911 139.657C122.387 139.386 122.933 139.251 123.549 139.251C124.002 139.251 124.396 139.321 124.732 139.461C125.073 139.601 125.36 139.79 125.593 140.028C125.831 140.266 126.023 140.539 126.167 140.847C126.312 141.15 126.417 141.475 126.482 141.82C126.548 142.161 126.58 142.501 126.58 142.842V147H125.544ZM120.077 147V139.44H121.008V141.302H121.113V147H120.077ZM131.289 147.21C130.584 147.21 129.982 147.035 129.483 146.685C128.984 146.33 128.601 145.852 128.335 145.25C128.069 144.648 127.936 143.969 127.936 143.213C127.936 142.462 128.067 141.785 128.328 141.183C128.594 140.581 128.974 140.105 129.469 139.755C129.964 139.405 130.556 139.23 131.247 139.23C131.956 139.23 132.554 139.403 133.039 139.748C133.524 140.093 133.891 140.567 134.138 141.169C134.39 141.766 134.516 142.448 134.516 143.213C134.516 143.964 134.392 144.643 134.145 145.25C133.898 145.852 133.534 146.33 133.053 146.685C132.572 147.035 131.984 147.21 131.289 147.21ZM131.394 146.251C131.931 146.251 132.374 146.12 132.724 145.859C133.074 145.598 133.335 145.238 133.508 144.781C133.681 144.319 133.767 143.796 133.767 143.213C133.767 142.62 133.681 142.098 133.508 141.645C133.335 141.188 133.074 140.831 132.724 140.574C132.379 140.317 131.942 140.189 131.415 140.189C130.874 140.189 130.426 140.322 130.071 140.588C129.716 140.854 129.453 141.216 129.28 141.673C129.112 142.13 129.028 142.644 129.028 143.213C129.028 143.787 129.114 144.305 129.287 144.767C129.464 145.224 129.728 145.586 130.078 145.852C130.428 146.118 130.867 146.251 131.394 146.251ZM133.767 147V141.309H133.655V136.92H134.691V147H133.767ZM90.5122 166.21C89.8076 166.21 89.1729 166.093 88.6082 165.86C88.0482 165.622 87.5839 165.286 87.2152 164.852C86.8512 164.418 86.6132 163.902 86.5012 163.305L87.5512 163.13C87.7192 163.783 88.0739 164.297 88.6152 164.67C89.1566 165.039 89.8029 165.223 90.5542 165.223C91.0489 165.223 91.4922 165.146 91.8842 164.992C92.2762 164.833 92.5842 164.609 92.8082 164.32C93.0322 164.031 93.1442 163.688 93.1442 163.291C93.1442 163.03 93.0976 162.808 93.0042 162.626C92.9109 162.439 92.7872 162.285 92.6332 162.164C92.4792 162.043 92.3112 161.942 92.1292 161.863C91.9472 161.779 91.7699 161.711 91.5972 161.66L89.0422 160.897C88.7342 160.808 88.4496 160.696 88.1882 160.561C87.9269 160.421 87.6982 160.255 87.5022 160.064C87.3109 159.868 87.1616 159.639 87.0542 159.378C86.9469 159.117 86.8932 158.818 86.8932 158.482C86.8932 157.913 87.0426 157.42 87.3412 157.005C87.6399 156.59 88.0482 156.27 88.5662 156.046C89.0842 155.822 89.6746 155.712 90.3372 155.717C91.0092 155.717 91.6089 155.836 92.1362 156.074C92.6682 156.312 93.1069 156.653 93.4522 157.096C93.7976 157.535 94.0262 158.055 94.1382 158.657L93.0602 158.853C92.9902 158.414 92.8292 158.034 92.5772 157.712C92.3252 157.39 92.0032 157.143 91.6112 156.97C91.2239 156.793 90.7969 156.702 90.3302 156.697C89.8776 156.697 89.4739 156.774 89.1192 156.928C88.7692 157.077 88.4916 157.283 88.2862 157.544C88.0809 157.805 87.9782 158.104 87.9782 158.44C87.9782 158.781 88.0716 159.054 88.2582 159.259C88.4496 159.464 88.6829 159.625 88.9582 159.742C89.2382 159.859 89.5089 159.954 89.7702 160.029L91.7442 160.61C91.9496 160.666 92.1899 160.748 92.4652 160.855C92.7452 160.958 93.0159 161.107 93.2772 161.303C93.5432 161.494 93.7626 161.746 93.9352 162.059C94.1079 162.372 94.1942 162.768 94.1942 163.249C94.1942 163.716 94.1009 164.133 93.9142 164.502C93.7322 164.871 93.4732 165.181 93.1372 165.433C92.8059 165.685 92.4162 165.876 91.9682 166.007C91.5249 166.142 91.0396 166.21 90.5122 166.21ZM98.5302 166.189C98.0775 166.189 97.6808 166.119 97.3402 165.979C97.0042 165.839 96.7172 165.65 96.4792 165.412C96.2458 165.174 96.0568 164.903 95.9122 164.6C95.7675 164.292 95.6625 163.968 95.5972 163.627C95.5318 163.282 95.4992 162.939 95.4992 162.598V158.44H96.5352V162.297C96.5352 162.712 96.5748 163.097 96.6542 163.452C96.7335 163.807 96.8595 164.117 97.0322 164.383C97.2095 164.644 97.4358 164.847 97.7112 164.992C97.9912 165.137 98.3295 165.209 98.7262 165.209C99.0902 165.209 99.4098 165.146 99.6852 165.02C99.9652 164.894 100.199 164.714 100.385 164.481C100.577 164.243 100.721 163.956 100.819 163.62C100.917 163.279 100.966 162.897 100.966 162.472L101.694 162.633C101.694 163.408 101.559 164.059 101.288 164.586C101.018 165.113 100.644 165.512 100.168 165.783C99.6922 166.054 99.1462 166.189 98.5302 166.189ZM101.071 166V164.138H100.966V158.44H101.995V166H101.071ZM107.347 166.21C106.651 166.21 106.063 166.035 105.583 165.685C105.102 165.33 104.738 164.852 104.491 164.25C104.243 163.643 104.12 162.964 104.12 162.213C104.12 161.448 104.243 160.766 104.491 160.169C104.743 159.567 105.111 159.093 105.597 158.748C106.082 158.403 106.679 158.23 107.389 158.23C108.079 158.23 108.672 158.405 109.167 158.755C109.661 159.105 110.039 159.581 110.301 160.183C110.567 160.785 110.7 161.462 110.7 162.213C110.7 162.969 110.567 163.648 110.301 164.25C110.035 164.852 109.652 165.33 109.153 165.685C108.653 166.035 108.051 166.21 107.347 166.21ZM103.945 166V155.92H104.981V160.309H104.869V166H103.945ZM107.242 165.251C107.769 165.251 108.208 165.118 108.558 164.852C108.908 164.586 109.169 164.224 109.342 163.767C109.519 163.305 109.608 162.787 109.608 162.213C109.608 161.644 109.521 161.13 109.349 160.673C109.176 160.216 108.912 159.854 108.558 159.588C108.208 159.322 107.762 159.189 107.221 159.189C106.693 159.189 106.255 159.317 105.905 159.574C105.559 159.831 105.3 160.188 105.128 160.645C104.955 161.098 104.869 161.62 104.869 162.213C104.869 162.796 104.955 163.319 105.128 163.781C105.3 164.238 105.562 164.598 105.912 164.859C106.262 165.12 106.705 165.251 107.242 165.251ZM121.253 166L121.26 161.037C121.26 160.454 121.097 159.996 120.77 159.665C120.448 159.329 120.037 159.161 119.538 159.161C119.253 159.161 118.976 159.226 118.705 159.357C118.434 159.488 118.21 159.698 118.033 159.987C117.86 160.276 117.774 160.654 117.774 161.121L117.165 160.946C117.151 160.405 117.256 159.931 117.48 159.525C117.709 159.119 118.021 158.804 118.418 158.58C118.819 158.351 119.272 158.237 119.776 158.237C120.537 158.237 121.146 158.473 121.603 158.944C122.06 159.411 122.289 160.043 122.289 160.841L122.282 166H121.253ZM112.23 166V158.44H113.154V160.302H113.266V166H112.23ZM116.752 166L116.759 161.107C116.759 160.505 116.598 160.031 116.276 159.686C115.959 159.336 115.539 159.161 115.016 159.161C114.493 159.161 114.071 159.341 113.749 159.7C113.427 160.055 113.266 160.528 113.266 161.121L112.65 160.785C112.65 160.3 112.764 159.866 112.993 159.483C113.222 159.096 113.534 158.792 113.931 158.573C114.328 158.349 114.778 158.237 115.282 158.237C115.763 158.237 116.19 158.34 116.563 158.545C116.941 158.75 117.237 159.049 117.452 159.441C117.667 159.833 117.774 160.309 117.774 160.869L117.767 166H116.752ZM124.244 157.005V155.85H125.273V157.005H124.244ZM124.244 166V158.44H125.273V166H124.244ZM130.193 166.203C129.306 166.203 128.576 166.012 128.002 165.629C127.432 165.246 127.082 164.714 126.952 164.033L128.002 163.858C128.114 164.287 128.368 164.63 128.765 164.887C129.166 165.139 129.661 165.265 130.249 165.265C130.823 165.265 131.275 165.146 131.607 164.908C131.938 164.665 132.104 164.336 132.104 163.921C132.104 163.688 132.05 163.499 131.943 163.354C131.84 163.205 131.628 163.067 131.306 162.941C130.984 162.815 130.503 162.666 129.864 162.493C129.178 162.306 128.641 162.12 128.254 161.933C127.866 161.746 127.591 161.532 127.428 161.289C127.264 161.042 127.183 160.741 127.183 160.386C127.183 159.957 127.304 159.581 127.547 159.259C127.789 158.932 128.125 158.68 128.555 158.503C128.984 158.321 129.483 158.23 130.053 158.23C130.622 158.23 131.131 158.323 131.579 158.51C132.031 158.692 132.395 158.949 132.671 159.28C132.946 159.611 133.109 159.996 133.161 160.435L132.111 160.624C132.041 160.181 131.819 159.831 131.446 159.574C131.077 159.313 130.608 159.177 130.039 159.168C129.502 159.154 129.066 159.257 128.73 159.476C128.394 159.691 128.226 159.978 128.226 160.337C128.226 160.538 128.286 160.71 128.408 160.855C128.529 160.995 128.748 161.128 129.066 161.254C129.388 161.38 129.845 161.518 130.438 161.667C131.133 161.844 131.679 162.031 132.076 162.227C132.472 162.423 132.755 162.654 132.923 162.92C133.091 163.186 133.175 163.515 133.175 163.907C133.175 164.621 132.909 165.183 132.377 165.594C131.849 166 131.121 166.203 130.193 166.203ZM137.548 166.203C136.661 166.203 135.931 166.012 135.357 165.629C134.788 165.246 134.438 164.714 134.307 164.033L135.357 163.858C135.469 164.287 135.723 164.63 136.12 164.887C136.521 165.139 137.016 165.265 137.604 165.265C138.178 165.265 138.631 165.146 138.962 164.908C139.293 164.665 139.459 164.336 139.459 163.921C139.459 163.688 139.405 163.499 139.298 163.354C139.195 163.205 138.983 163.067 138.661 162.941C138.339 162.815 137.858 162.666 137.219 162.493C136.533 162.306 135.996 162.12 135.609 161.933C135.222 161.746 134.946 161.532 134.783 161.289C134.62 161.042 134.538 160.741 134.538 160.386C134.538 159.957 134.659 159.581 134.902 159.259C135.145 158.932 135.481 158.68 135.91 158.503C136.339 158.321 136.839 158.23 137.408 158.23C137.977 158.23 138.486 158.323 138.934 158.51C139.387 158.692 139.751 158.949 140.026 159.28C140.301 159.611 140.465 159.996 140.516 160.435L139.466 160.624C139.396 160.181 139.174 159.831 138.801 159.574C138.432 159.313 137.963 159.177 137.394 159.168C136.857 159.154 136.421 159.257 136.085 159.476C135.749 159.691 135.581 159.978 135.581 160.337C135.581 160.538 135.642 160.71 135.763 160.855C135.884 160.995 136.104 161.128 136.421 161.254C136.743 161.38 137.2 161.518 137.793 161.667C138.488 161.844 139.034 162.031 139.431 162.227C139.828 162.423 140.11 162.654 140.278 162.92C140.446 163.186 140.53 163.515 140.53 163.907C140.53 164.621 140.264 165.183 139.732 165.594C139.205 166 138.477 166.203 137.548 166.203ZM142.223 157.005V155.85H143.252V157.005H142.223ZM142.223 166V158.44H143.252V166H142.223ZM148.507 166.21C147.756 166.21 147.114 166.04 146.582 165.699C146.05 165.358 145.642 164.887 145.357 164.285C145.072 163.683 144.93 162.992 144.93 162.213C144.93 161.42 145.075 160.724 145.364 160.127C145.653 159.53 146.064 159.065 146.596 158.734C147.133 158.398 147.77 158.23 148.507 158.23C149.263 158.23 149.907 158.4 150.439 158.741C150.976 159.077 151.384 159.546 151.664 160.148C151.949 160.745 152.091 161.434 152.091 162.213C152.091 163.006 151.949 163.704 151.664 164.306C151.379 164.903 150.969 165.37 150.432 165.706C149.895 166.042 149.254 166.21 148.507 166.21ZM148.507 165.223C149.347 165.223 149.972 164.945 150.383 164.39C150.794 163.83 150.999 163.104 150.999 162.213C150.999 161.298 150.791 160.57 150.376 160.029C149.965 159.488 149.342 159.217 148.507 159.217C147.942 159.217 147.476 159.345 147.107 159.602C146.743 159.854 146.47 160.206 146.288 160.659C146.111 161.107 146.022 161.625 146.022 162.213C146.022 163.123 146.232 163.853 146.652 164.404C147.072 164.95 147.69 165.223 148.507 165.223ZM159.095 166V162.143C159.095 161.723 159.056 161.338 158.976 160.988C158.897 160.633 158.769 160.325 158.591 160.064C158.419 159.798 158.192 159.593 157.912 159.448C157.637 159.303 157.301 159.231 156.904 159.231C156.54 159.231 156.218 159.294 155.938 159.42C155.663 159.546 155.43 159.728 155.238 159.966C155.052 160.199 154.909 160.484 154.811 160.82C154.713 161.156 154.664 161.539 154.664 161.968L153.936 161.807C153.936 161.032 154.072 160.381 154.342 159.854C154.613 159.327 154.986 158.928 155.462 158.657C155.938 158.386 156.484 158.251 157.1 158.251C157.553 158.251 157.947 158.321 158.283 158.461C158.624 158.601 158.911 158.79 159.144 159.028C159.382 159.266 159.574 159.539 159.718 159.847C159.863 160.15 159.968 160.475 160.033 160.82C160.099 161.161 160.131 161.501 160.131 161.842V166H159.095ZM153.628 166V158.44H154.559V160.302H154.664V166H153.628Z" fill="white"/>
<path d="M82.0069 15.21C81.2696 15.21 80.6046 15.0817 80.0119 14.825C79.4239 14.5683 78.9386 14.202 78.5559 13.726C78.1779 13.2453 77.9376 12.676 77.8349 12.018L79.5849 11.752C79.7342 12.3493 80.0399 12.8113 80.5019 13.138C80.9686 13.4647 81.5052 13.628 82.1119 13.628C82.4712 13.628 82.8096 13.572 83.1269 13.46C83.4442 13.348 83.7009 13.1847 83.8969 12.97C84.0976 12.7553 84.1979 12.4917 84.1979 12.179C84.1979 12.039 84.1746 11.9107 84.1279 11.794C84.0812 11.6727 84.0112 11.5653 83.9179 11.472C83.8292 11.3787 83.7126 11.2947 83.5679 11.22C83.4279 11.1407 83.2646 11.073 83.0779 11.017L80.4739 10.247C80.2499 10.1817 80.0072 10.0953 79.7459 9.988C79.4892 9.876 79.2442 9.72433 79.0109 9.533C78.7822 9.337 78.5932 9.08967 78.4439 8.791C78.2992 8.48767 78.2269 8.11433 78.2269 7.671C78.2269 7.02233 78.3902 6.47867 78.7169 6.04C79.0482 5.59667 79.4916 5.26533 80.0469 5.046C80.6069 4.82667 81.2276 4.71933 81.9089 4.724C82.5996 4.72867 83.2156 4.84767 83.7569 5.081C84.2982 5.30967 84.7509 5.64333 85.1149 6.082C85.4789 6.52067 85.7356 7.05033 85.8849 7.671L84.0719 7.986C83.9972 7.63133 83.8526 7.33033 83.6379 7.083C83.4279 6.831 83.1689 6.63967 82.8609 6.509C82.5576 6.37833 82.2332 6.30833 81.8879 6.299C81.5519 6.29433 81.2392 6.34567 80.9499 6.453C80.6652 6.55567 80.4342 6.705 80.2569 6.901C80.0842 7.097 79.9979 7.32567 79.9979 7.587C79.9979 7.83433 80.0726 8.03733 80.2219 8.196C80.3712 8.35 80.5556 8.47367 80.7749 8.567C80.9989 8.65567 81.2252 8.73033 81.4539 8.791L83.2599 9.295C83.5072 9.36033 83.7849 9.449 84.0929 9.561C84.4009 9.673 84.6972 9.82933 84.9819 10.03C85.2666 10.2307 85.4999 10.4943 85.6819 10.821C85.8686 11.1477 85.9619 11.563 85.9619 12.067C85.9619 12.5897 85.8522 13.0493 85.6329 13.446C85.4182 13.838 85.1266 14.1647 84.7579 14.426C84.3892 14.6873 83.9669 14.8833 83.4909 15.014C83.0196 15.1447 82.5249 15.21 82.0069 15.21ZM90.9141 15.21C90.1487 15.21 89.4767 15.0443 88.8981 14.713C88.3194 14.3817 87.8667 13.922 87.5401 13.334C87.2181 12.746 87.0571 12.0693 87.0571 11.304C87.0571 10.478 87.2157 9.76167 87.5331 9.155C87.8504 8.54367 88.2914 8.07 88.8561 7.734C89.4207 7.398 90.0741 7.23 90.8161 7.23C91.6001 7.23 92.2651 7.41433 92.8111 7.783C93.3617 8.147 93.7701 8.66267 94.0361 9.33C94.3021 9.99733 94.4024 10.7837 94.3371 11.689H92.6641V11.073C92.6594 10.2517 92.5147 9.652 92.2301 9.274C91.9454 8.896 91.4974 8.707 90.8861 8.707C90.1954 8.707 89.6821 8.92167 89.3461 9.351C89.0101 9.77567 88.8421 10.3987 88.8421 11.22C88.8421 11.9853 89.0101 12.578 89.3461 12.998C89.6821 13.418 90.1721 13.628 90.8161 13.628C91.2314 13.628 91.5884 13.537 91.8871 13.355C92.1904 13.1683 92.4237 12.9 92.5871 12.55L94.2531 13.054C93.9637 13.7353 93.5157 14.265 92.9091 14.643C92.3071 15.021 91.6421 15.21 90.9141 15.21ZM88.3101 11.689V10.415H93.5111V11.689H88.3101ZM99.3269 15.21C98.5895 15.21 97.9712 15.035 97.4719 14.685C96.9725 14.335 96.5969 13.859 96.3449 13.257C96.0929 12.6503 95.9669 11.9713 95.9669 11.22C95.9669 10.4593 96.0929 9.778 96.3449 9.176C96.5969 8.574 96.9655 8.10033 97.4509 7.755C97.9409 7.405 98.5452 7.23 99.2639 7.23C99.9779 7.23 100.596 7.405 101.119 7.755C101.646 8.10033 102.055 8.574 102.344 9.176C102.633 9.77333 102.778 10.4547 102.778 11.22C102.778 11.976 102.636 12.655 102.351 13.257C102.066 13.859 101.665 14.335 101.147 14.685C100.629 15.035 100.022 15.21 99.3269 15.21ZM95.6799 18.36V7.44H97.1709V12.746H97.3809V18.36H95.6799ZM99.0679 13.698C99.5065 13.698 99.8682 13.5883 100.153 13.369C100.438 13.1497 100.648 12.8533 100.783 12.48C100.923 12.102 100.993 11.682 100.993 11.22C100.993 10.7627 100.923 10.3473 100.783 9.974C100.643 9.596 100.426 9.29733 100.132 9.078C99.8379 8.854 99.4645 8.742 99.0119 8.742C98.5825 8.742 98.2325 8.847 97.9619 9.057C97.6912 9.26233 97.4905 9.55167 97.3599 9.925C97.2339 10.2937 97.1709 10.7253 97.1709 11.22C97.1709 11.71 97.2339 12.1417 97.3599 12.515C97.4905 12.8883 97.6935 13.18 97.9689 13.39C98.2489 13.5953 98.6152 13.698 99.0679 13.698ZM111.31 15V13.334H106.844V11.759L110.071 4.92H111.996L108.769 11.759H111.31V9.134H113.018V11.759H113.963V13.334H113.018V15H111.31ZM118.304 11.248V9.925H122.504V11.248H118.304ZM130.857 15.21C130.119 15.21 129.454 15.0817 128.862 14.825C128.274 14.5683 127.788 14.202 127.406 13.726C127.028 13.2453 126.787 12.676 126.685 12.018L128.435 11.752C128.584 12.3493 128.89 12.8113 129.352 13.138C129.818 13.4647 130.355 13.628 130.962 13.628C131.321 13.628 131.659 13.572 131.977 13.46C132.294 13.348 132.551 13.1847 132.747 12.97C132.947 12.7553 133.048 12.4917 133.048 12.179C133.048 12.039 133.024 11.9107 132.978 11.794C132.931 11.6727 132.861 11.5653 132.768 11.472C132.679 11.3787 132.562 11.2947 132.418 11.22C132.278 11.1407 132.114 11.073 131.928 11.017L129.324 10.247C129.1 10.1817 128.857 10.0953 128.596 9.988C128.339 9.876 128.094 9.72433 127.861 9.533C127.632 9.337 127.443 9.08967 127.294 8.791C127.149 8.48767 127.077 8.11433 127.077 7.671C127.077 7.02233 127.24 6.47867 127.567 6.04C127.898 5.59667 128.341 5.26533 128.897 5.046C129.457 4.82667 130.077 4.71933 130.759 4.724C131.449 4.72867 132.065 4.84767 132.607 5.081C133.148 5.30967 133.601 5.64333 133.965 6.082C134.329 6.52067 134.585 7.05033 134.735 7.671L132.922 7.986C132.847 7.63133 132.702 7.33033 132.488 7.083C132.278 6.831 132.019 6.63967 131.711 6.509C131.407 6.37833 131.083 6.30833 130.738 6.299C130.402 6.29433 130.089 6.34567 129.8 6.453C129.515 6.55567 129.284 6.705 129.107 6.901C128.934 7.097 128.848 7.32567 128.848 7.587C128.848 7.83433 128.922 8.03733 129.072 8.196C129.221 8.35 129.405 8.47367 129.625 8.567C129.849 8.65567 130.075 8.73033 130.304 8.791L132.11 9.295C132.357 9.36033 132.635 9.449 132.943 9.561C133.251 9.673 133.547 9.82933 133.832 10.03C134.116 10.2307 134.35 10.4943 134.532 10.821C134.718 11.1477 134.812 11.563 134.812 12.067C134.812 12.5897 134.702 13.0493 134.483 13.446C134.268 13.838 133.976 14.1647 133.608 14.426C133.239 14.6873 132.817 14.8833 132.341 15.014C131.869 15.1447 131.375 15.21 130.857 15.21ZM139.764 15.21C138.998 15.21 138.326 15.0443 137.748 14.713C137.169 14.3817 136.716 13.922 136.39 13.334C136.068 12.746 135.907 12.0693 135.907 11.304C135.907 10.478 136.065 9.76167 136.383 9.155C136.7 8.54367 137.141 8.07 137.706 7.734C138.27 7.398 138.924 7.23 139.666 7.23C140.45 7.23 141.115 7.41433 141.661 7.783C142.211 8.147 142.62 8.66267 142.886 9.33C143.152 9.99733 143.252 10.7837 143.187 11.689H141.514V11.073C141.509 10.2517 141.364 9.652 141.08 9.274C140.795 8.896 140.347 8.707 139.736 8.707C139.045 8.707 138.532 8.92167 138.196 9.351C137.86 9.77567 137.692 10.3987 137.692 11.22C137.692 11.9853 137.86 12.578 138.196 12.998C138.532 13.418 139.022 13.628 139.666 13.628C140.081 13.628 140.438 13.537 140.737 13.355C141.04 13.1683 141.273 12.9 141.437 12.55L143.103 13.054C142.813 13.7353 142.365 14.265 141.759 14.643C141.157 15.021 140.492 15.21 139.764 15.21ZM137.16 11.689V10.415H142.361V11.689H137.16ZM148.176 15.21C147.439 15.21 146.821 15.035 146.321 14.685C145.822 14.335 145.446 13.859 145.194 13.257C144.942 12.6503 144.816 11.9713 144.816 11.22C144.816 10.4593 144.942 9.778 145.194 9.176C145.446 8.574 145.815 8.10033 146.3 7.755C146.79 7.405 147.395 7.23 148.113 7.23C148.827 7.23 149.446 7.405 149.968 7.755C150.496 8.10033 150.904 8.574 151.193 9.176C151.483 9.77333 151.627 10.4547 151.627 11.22C151.627 11.976 151.485 12.655 151.2 13.257C150.916 13.859 150.514 14.335 149.996 14.685C149.478 15.035 148.872 15.21 148.176 15.21ZM144.529 18.36V7.44H146.02V12.746H146.23V18.36H144.529ZM147.917 13.698C148.356 13.698 148.718 13.5883 149.002 13.369C149.287 13.1497 149.497 12.8533 149.632 12.48C149.772 12.102 149.842 11.682 149.842 11.22C149.842 10.7627 149.772 10.3473 149.632 9.974C149.492 9.596 149.275 9.29733 148.981 9.078C148.687 8.854 148.314 8.742 147.861 8.742C147.432 8.742 147.082 8.847 146.811 9.057C146.541 9.26233 146.34 9.55167 146.209 9.925C146.083 10.2937 146.02 10.7253 146.02 11.22C146.02 11.71 146.083 12.1417 146.209 12.515C146.34 12.8883 146.543 13.18 146.818 13.39C147.098 13.5953 147.465 13.698 147.917 13.698ZM157.723 15V6.761L155.833 7.916V6.054L157.723 4.92H159.445V15H157.723ZM165.409 15.21C164.742 15.21 164.149 15.0747 163.631 14.804C163.113 14.5333 162.707 14.1577 162.413 13.677C162.119 13.1963 161.972 12.6457 161.972 12.025C161.972 11.4697 162.1 10.954 162.357 10.478C162.614 10.002 162.989 9.62167 163.484 9.337L163.449 9.876C163.062 9.582 162.761 9.24367 162.546 8.861C162.336 8.47367 162.231 8.03967 162.231 7.559C162.231 6.98033 162.366 6.47867 162.637 6.054C162.912 5.62933 163.288 5.30033 163.764 5.067C164.24 4.829 164.788 4.71 165.409 4.71C166.03 4.71 166.578 4.829 167.054 5.067C167.535 5.30033 167.91 5.62933 168.181 6.054C168.456 6.47867 168.594 6.98033 168.594 7.559C168.594 8.03967 168.491 8.47133 168.286 8.854C168.085 9.23667 167.78 9.582 167.369 9.89L167.362 9.344C167.847 9.61933 168.218 9.99733 168.475 10.478C168.736 10.954 168.867 11.4697 168.867 12.025C168.867 12.6457 168.718 13.1963 168.419 13.677C168.125 14.1577 167.717 14.5333 167.194 14.804C166.676 15.0747 166.081 15.21 165.409 15.21ZM165.409 13.621C165.904 13.621 166.305 13.4857 166.613 13.215C166.926 12.9443 167.082 12.5477 167.082 12.025C167.082 11.5023 166.928 11.1057 166.62 10.835C166.312 10.5597 165.908 10.422 165.409 10.422C164.914 10.422 164.515 10.5597 164.212 10.835C163.909 11.1057 163.757 11.5023 163.757 12.025C163.757 12.5477 163.909 12.9443 164.212 13.215C164.515 13.4857 164.914 13.621 165.409 13.621ZM165.409 8.819C165.824 8.819 166.16 8.71633 166.417 8.511C166.678 8.301 166.809 7.98367 166.809 7.559C166.809 7.13433 166.678 6.81933 166.417 6.614C166.16 6.404 165.824 6.299 165.409 6.299C164.998 6.299 164.662 6.404 164.401 6.614C164.144 6.81933 164.016 7.13433 164.016 7.559C164.016 7.98367 164.144 8.301 164.401 8.511C164.662 8.71633 164.998 8.819 165.409 8.819Z" fill="white"/>
<path d="M213.933 16.21C213.195 16.21 212.53 16.0817 211.938 15.825C211.35 15.5683 210.864 15.202 210.482 14.726C210.104 14.2453 209.863 13.676 209.761 13.018L211.511 12.752C211.66 13.3493 211.966 13.8113 212.428 14.138C212.894 14.4647 213.431 14.628 214.038 14.628C214.397 14.628 214.735 14.572 215.053 14.46C215.37 14.348 215.627 14.1847 215.823 13.97C216.023 13.7553 216.124 13.4917 216.124 13.179C216.124 13.039 216.1 12.9107 216.054 12.794C216.007 12.6727 215.937 12.5653 215.844 12.472C215.755 12.3787 215.638 12.2947 215.494 12.22C215.354 12.1407 215.19 12.073 215.004 12.017L212.4 11.247C212.176 11.1817 211.933 11.0953 211.672 10.988C211.415 10.876 211.17 10.7243 210.937 10.533C210.708 10.337 210.519 10.0897 210.37 9.791C210.225 9.48767 210.153 9.11433 210.153 8.671C210.153 8.02233 210.316 7.47867 210.643 7.04C210.974 6.59667 211.417 6.26533 211.973 6.046C212.533 5.82667 213.153 5.71933 213.835 5.724C214.525 5.72867 215.141 5.84767 215.683 6.081C216.224 6.30967 216.677 6.64333 217.041 7.082C217.405 7.52067 217.661 8.05033 217.811 8.671L215.998 8.986C215.923 8.63133 215.778 8.33033 215.564 8.083C215.354 7.831 215.095 7.63967 214.787 7.509C214.483 7.37833 214.159 7.30833 213.814 7.299C213.478 7.29433 213.165 7.34567 212.876 7.453C212.591 7.55567 212.36 7.705 212.183 7.901C212.01 8.097 211.924 8.32567 211.924 8.587C211.924 8.83433 211.998 9.03733 212.148 9.196C212.297 9.35 212.481 9.47367 212.701 9.567C212.925 9.65567 213.151 9.73033 213.38 9.791L215.186 10.295C215.433 10.3603 215.711 10.449 216.019 10.561C216.327 10.673 216.623 10.8293 216.908 11.03C217.192 11.2307 217.426 11.4943 217.608 11.821C217.794 12.1477 217.888 12.563 217.888 13.067C217.888 13.5897 217.778 14.0493 217.559 14.446C217.344 14.838 217.052 15.1647 216.684 15.426C216.315 15.6873 215.893 15.8833 215.417 16.014C214.945 16.1447 214.451 16.21 213.933 16.21ZM222.84 16.21C222.075 16.21 221.403 16.0443 220.824 15.713C220.245 15.3817 219.793 14.922 219.466 14.334C219.144 13.746 218.983 13.0693 218.983 12.304C218.983 11.478 219.142 10.7617 219.459 10.155C219.776 9.54367 220.217 9.07 220.782 8.734C221.347 8.398 222 8.23 222.742 8.23C223.526 8.23 224.191 8.41433 224.737 8.783C225.288 9.147 225.696 9.66267 225.962 10.33C226.228 10.9973 226.328 11.7837 226.263 12.689H224.59V12.073C224.585 11.2517 224.441 10.652 224.156 10.274C223.871 9.896 223.423 9.707 222.812 9.707C222.121 9.707 221.608 9.92167 221.272 10.351C220.936 10.7757 220.768 11.3987 220.768 12.22C220.768 12.9853 220.936 13.578 221.272 13.998C221.608 14.418 222.098 14.628 222.742 14.628C223.157 14.628 223.514 14.537 223.813 14.355C224.116 14.1683 224.35 13.9 224.513 13.55L226.179 14.054C225.89 14.7353 225.442 15.265 224.835 15.643C224.233 16.021 223.568 16.21 222.84 16.21ZM220.236 12.689V11.415H225.437V12.689H220.236ZM231.253 16.21C230.515 16.21 229.897 16.035 229.398 15.685C228.898 15.335 228.523 14.859 228.271 14.257C228.019 13.6503 227.893 12.9713 227.893 12.22C227.893 11.4593 228.019 10.778 228.271 10.176C228.523 9.574 228.891 9.10033 229.377 8.755C229.867 8.405 230.471 8.23 231.19 8.23C231.904 8.23 232.522 8.405 233.045 8.755C233.572 9.10033 233.98 9.574 234.27 10.176C234.559 10.7733 234.704 11.4547 234.704 12.22C234.704 12.976 234.561 13.655 234.277 14.257C233.992 14.859 233.591 15.335 233.073 15.685C232.555 16.035 231.948 16.21 231.253 16.21ZM227.606 19.36V8.44H229.097V13.746H229.307V19.36H227.606ZM230.994 14.698C231.432 14.698 231.794 14.5883 232.079 14.369C232.363 14.1497 232.573 13.8533 232.709 13.48C232.849 13.102 232.919 12.682 232.919 12.22C232.919 11.7627 232.849 11.3473 232.709 10.974C232.569 10.596 232.352 10.2973 232.058 10.078C231.764 9.854 231.39 9.742 230.938 9.742C230.508 9.742 230.158 9.847 229.888 10.057C229.617 10.2623 229.416 10.5517 229.286 10.925C229.16 11.2937 229.097 11.7253 229.097 12.22C229.097 12.71 229.16 13.1417 229.286 13.515C229.416 13.8883 229.619 14.18 229.895 14.39C230.175 14.5953 230.541 14.698 230.994 14.698ZM240.799 16V7.761L238.909 8.916V7.054L240.799 5.92H242.521V16H240.799ZM248.443 5.724C249.101 5.724 249.694 5.88033 250.221 6.193C250.748 6.501 251.164 6.93033 251.467 7.481C251.775 8.027 251.929 8.657 251.929 9.371V12.444C251.929 13.2047 251.775 13.8697 251.467 14.439C251.164 15.0037 250.737 15.44 250.186 15.748C249.635 16.056 248.991 16.21 248.254 16.21C247.745 16.21 247.265 16.1237 246.812 15.951C246.359 15.7737 245.953 15.503 245.594 15.139L246.805 13.956C246.987 14.166 247.204 14.3317 247.456 14.453C247.713 14.5697 247.979 14.628 248.254 14.628C248.646 14.628 248.989 14.537 249.283 14.355C249.577 14.1683 249.806 13.928 249.969 13.634C250.132 13.3353 250.214 13.0157 250.214 12.675V11.002L250.515 11.338C250.23 11.674 249.885 11.9377 249.479 12.129C249.073 12.3157 248.646 12.409 248.198 12.409C247.568 12.409 247.008 12.2643 246.518 11.975C246.033 11.6857 245.65 11.2937 245.37 10.799C245.095 10.2997 244.957 9.735 244.957 9.105C244.957 8.475 245.116 7.90567 245.433 7.397C245.75 6.88367 246.173 6.47767 246.7 6.179C247.232 5.87567 247.813 5.724 248.443 5.724ZM248.443 7.334C248.116 7.334 247.818 7.41333 247.547 7.572C247.276 7.73067 247.062 7.94533 246.903 8.216C246.744 8.482 246.665 8.77833 246.665 9.105C246.665 9.43167 246.742 9.73033 246.896 10.001C247.055 10.2717 247.267 10.4863 247.533 10.645C247.804 10.8037 248.102 10.883 248.429 10.883C248.756 10.883 249.054 10.8037 249.325 10.645C249.596 10.4863 249.81 10.2717 249.969 10.001C250.132 9.73033 250.214 9.43167 250.214 9.105C250.214 8.78767 250.135 8.496 249.976 8.23C249.817 7.95933 249.603 7.74233 249.332 7.579C249.066 7.41567 248.77 7.334 248.443 7.334ZM256.546 12.248V10.925H260.746V12.248H256.546ZM269.099 16.21C268.361 16.21 267.696 16.0817 267.104 15.825C266.516 15.5683 266.03 15.202 265.648 14.726C265.27 14.2453 265.029 13.676 264.927 13.018L266.677 12.752C266.826 13.3493 267.132 13.8113 267.594 14.138C268.06 14.4647 268.597 14.628 269.204 14.628C269.563 14.628 269.901 14.572 270.219 14.46C270.536 14.348 270.793 14.1847 270.989 13.97C271.189 13.7553 271.29 13.4917 271.29 13.179C271.29 13.039 271.266 12.9107 271.22 12.794C271.173 12.6727 271.103 12.5653 271.01 12.472C270.921 12.3787 270.804 12.2947 270.66 12.22C270.52 12.1407 270.356 12.073 270.17 12.017L267.566 11.247C267.342 11.1817 267.099 11.0953 266.838 10.988C266.581 10.876 266.336 10.7243 266.103 10.533C265.874 10.337 265.685 10.0897 265.536 9.791C265.391 9.48767 265.319 9.11433 265.319 8.671C265.319 8.02233 265.482 7.47867 265.809 7.04C266.14 6.59667 266.583 6.26533 267.139 6.046C267.699 5.82667 268.319 5.71933 269.001 5.724C269.691 5.72867 270.307 5.84767 270.849 6.081C271.39 6.30967 271.843 6.64333 272.207 7.082C272.571 7.52067 272.827 8.05033 272.977 8.671L271.164 8.986C271.089 8.63133 270.944 8.33033 270.73 8.083C270.52 7.831 270.261 7.63967 269.953 7.509C269.649 7.37833 269.325 7.30833 268.98 7.299C268.644 7.29433 268.331 7.34567 268.042 7.453C267.757 7.55567 267.526 7.705 267.349 7.901C267.176 8.097 267.09 8.32567 267.09 8.587C267.09 8.83433 267.164 9.03733 267.314 9.196C267.463 9.35 267.647 9.47367 267.867 9.567C268.091 9.65567 268.317 9.73033 268.546 9.791L270.352 10.295C270.599 10.3603 270.877 10.449 271.185 10.561C271.493 10.673 271.789 10.8293 272.074 11.03C272.358 11.2307 272.592 11.4943 272.774 11.821C272.96 12.1477 273.054 12.563 273.054 13.067C273.054 13.5897 272.944 14.0493 272.725 14.446C272.51 14.838 272.218 15.1647 271.85 15.426C271.481 15.6873 271.059 15.8833 270.583 16.014C270.111 16.1447 269.617 16.21 269.099 16.21ZM278.006 16.21C277.241 16.21 276.569 16.0443 275.99 15.713C275.411 15.3817 274.959 14.922 274.632 14.334C274.31 13.746 274.149 13.0693 274.149 12.304C274.149 11.478 274.308 10.7617 274.625 10.155C274.942 9.54367 275.383 9.07 275.948 8.734C276.513 8.398 277.166 8.23 277.908 8.23C278.692 8.23 279.357 8.41433 279.903 8.783C280.454 9.147 280.862 9.66267 281.128 10.33C281.394 10.9973 281.494 11.7837 281.429 12.689H279.756V12.073C279.751 11.2517 279.607 10.652 279.322 10.274C279.037 9.896 278.589 9.707 277.978 9.707C277.287 9.707 276.774 9.92167 276.438 10.351C276.102 10.7757 275.934 11.3987 275.934 12.22C275.934 12.9853 276.102 13.578 276.438 13.998C276.774 14.418 277.264 14.628 277.908 14.628C278.323 14.628 278.68 14.537 278.979 14.355C279.282 14.1683 279.516 13.9 279.679 13.55L281.345 14.054C281.056 14.7353 280.608 15.265 280.001 15.643C279.399 16.021 278.734 16.21 278.006 16.21ZM275.402 12.689V11.415H280.603V12.689H275.402ZM286.419 16.21C285.681 16.21 285.063 16.035 284.564 15.685C284.064 15.335 283.689 14.859 283.437 14.257C283.185 13.6503 283.059 12.9713 283.059 12.22C283.059 11.4593 283.185 10.778 283.437 10.176C283.689 9.574 284.057 9.10033 284.543 8.755C285.033 8.405 285.637 8.23 286.356 8.23C287.07 8.23 287.688 8.405 288.211 8.755C288.738 9.10033 289.146 9.574 289.436 10.176C289.725 10.7733 289.87 11.4547 289.87 12.22C289.87 12.976 289.727 13.655 289.443 14.257C289.158 14.859 288.757 15.335 288.239 15.685C287.721 16.035 287.114 16.21 286.419 16.21ZM282.772 19.36V8.44H284.263V13.746H284.473V19.36H282.772ZM286.16 14.698C286.598 14.698 286.96 14.5883 287.245 14.369C287.529 14.1497 287.739 13.8533 287.875 13.48C288.015 13.102 288.085 12.682 288.085 12.22C288.085 11.7627 288.015 11.3473 287.875 10.974C287.735 10.596 287.518 10.2973 287.224 10.078C286.93 9.854 286.556 9.742 286.104 9.742C285.674 9.742 285.324 9.847 285.054 10.057C284.783 10.2623 284.582 10.5517 284.452 10.925C284.326 11.2937 284.263 11.7253 284.263 12.22C284.263 12.71 284.326 13.1417 284.452 13.515C284.582 13.8883 284.785 14.18 285.061 14.39C285.341 14.5953 285.707 14.698 286.16 14.698ZM293.935 15.986V14.516L298.247 10.673C298.583 10.3743 298.817 10.092 298.947 9.826C299.078 9.56 299.143 9.30333 299.143 9.056C299.143 8.72 299.071 8.42133 298.926 8.16C298.782 7.894 298.581 7.684 298.324 7.53C298.072 7.376 297.781 7.299 297.449 7.299C297.099 7.299 296.789 7.38067 296.518 7.544C296.252 7.70267 296.045 7.915 295.895 8.181C295.746 8.447 295.676 8.734 295.685 9.042H293.949C293.949 8.37 294.099 7.78433 294.397 7.285C294.701 6.78567 295.116 6.39833 295.643 6.123C296.175 5.84767 296.789 5.71 297.484 5.71C298.128 5.71 298.707 5.85467 299.22 6.144C299.734 6.42867 300.137 6.82533 300.431 7.334C300.725 7.838 300.872 8.419 300.872 9.077C300.872 9.55767 300.807 9.96133 300.676 10.288C300.546 10.6147 300.35 10.9157 300.088 11.191C299.832 11.4663 299.512 11.772 299.129 12.108L296.07 14.817L295.916 14.397H300.872V15.986H293.935ZM305.544 16.21C305.031 16.21 304.553 16.105 304.109 15.895C303.666 15.6803 303.283 15.3863 302.961 15.013C302.644 14.6397 302.415 14.2057 302.275 13.711L303.899 13.277C303.965 13.5477 304.084 13.781 304.256 13.977C304.434 14.173 304.639 14.3247 304.872 14.432C305.11 14.5393 305.355 14.593 305.607 14.593C305.934 14.593 306.233 14.5137 306.503 14.355C306.774 14.1963 306.989 13.984 307.147 13.718C307.306 13.4473 307.385 13.1487 307.385 12.822C307.385 12.4953 307.304 12.199 307.14 11.933C306.982 11.6623 306.767 11.45 306.496 11.296C306.226 11.1373 305.929 11.058 305.607 11.058C305.22 11.058 304.898 11.128 304.641 11.268C304.389 11.408 304.196 11.5573 304.06 11.716L302.618 11.254L302.926 5.92H308.4V7.502H303.829L304.459 6.907L304.235 10.617L303.927 10.239C304.189 10.001 304.492 9.82367 304.837 9.707C305.183 9.59033 305.516 9.532 305.838 9.532C306.468 9.532 307.026 9.67667 307.511 9.966C308.001 10.2507 308.384 10.6403 308.659 11.135C308.939 11.6297 309.079 12.192 309.079 12.822C309.079 13.452 308.916 14.0237 308.589 14.537C308.263 15.0457 307.831 15.4517 307.294 15.755C306.762 16.0583 306.179 16.21 305.544 16.21Z" fill="white"/>
<path d="M377.885 15.21C377.147 15.21 376.482 15.0817 375.89 14.825C375.302 14.5683 374.816 14.202 374.434 13.726C374.056 13.2453 373.815 12.676 373.713 12.018L375.463 11.752C375.612 12.3493 375.918 12.8113 376.38 13.138C376.846 13.4647 377.383 13.628 377.99 13.628C378.349 13.628 378.687 13.572 379.005 13.46C379.322 13.348 379.579 13.1847 379.775 12.97C379.975 12.7553 380.076 12.4917 380.076 12.179C380.076 12.039 380.052 11.9107 380.006 11.794C379.959 11.6727 379.889 11.5653 379.796 11.472C379.707 11.3787 379.59 11.2947 379.446 11.22C379.306 11.1407 379.142 11.073 378.956 11.017L376.352 10.247C376.128 10.1817 375.885 10.0953 375.624 9.988C375.367 9.876 375.122 9.72433 374.889 9.533C374.66 9.337 374.471 9.08967 374.322 8.791C374.177 8.48767 374.105 8.11433 374.105 7.671C374.105 7.02233 374.268 6.47867 374.595 6.04C374.926 5.59667 375.369 5.26533 375.925 5.046C376.485 4.82667 377.105 4.71933 377.787 4.724C378.477 4.72867 379.093 4.84767 379.635 5.081C380.176 5.30967 380.629 5.64333 380.993 6.082C381.357 6.52067 381.613 7.05033 381.763 7.671L379.95 7.986C379.875 7.63133 379.73 7.33033 379.516 7.083C379.306 6.831 379.047 6.63967 378.739 6.509C378.435 6.37833 378.111 6.30833 377.766 6.299C377.43 6.29433 377.117 6.34567 376.828 6.453C376.543 6.55567 376.312 6.705 376.135 6.901C375.962 7.097 375.876 7.32567 375.876 7.587C375.876 7.83433 375.95 8.03733 376.1 8.196C376.249 8.35 376.433 8.47367 376.653 8.567C376.877 8.65567 377.103 8.73033 377.332 8.791L379.138 9.295C379.385 9.36033 379.663 9.449 379.971 9.561C380.279 9.673 380.575 9.82933 380.86 10.03C381.144 10.2307 381.378 10.4943 381.56 10.821C381.746 11.1477 381.84 11.563 381.84 12.067C381.84 12.5897 381.73 13.0493 381.511 13.446C381.296 13.838 381.004 14.1647 380.636 14.426C380.267 14.6873 379.845 14.8833 379.369 15.014C378.897 15.1447 378.403 15.21 377.885 15.21ZM386.792 15.21C386.027 15.21 385.355 15.0443 384.776 14.713C384.197 14.3817 383.745 13.922 383.418 13.334C383.096 12.746 382.935 12.0693 382.935 11.304C382.935 10.478 383.094 9.76167 383.411 9.155C383.728 8.54367 384.169 8.07 384.734 7.734C385.299 7.398 385.952 7.23 386.694 7.23C387.478 7.23 388.143 7.41433 388.689 7.783C389.24 8.147 389.648 8.66267 389.914 9.33C390.18 9.99733 390.28 10.7837 390.215 11.689H388.542V11.073C388.537 10.2517 388.393 9.652 388.108 9.274C387.823 8.896 387.375 8.707 386.764 8.707C386.073 8.707 385.56 8.92167 385.224 9.351C384.888 9.77567 384.72 10.3987 384.72 11.22C384.72 11.9853 384.888 12.578 385.224 12.998C385.56 13.418 386.05 13.628 386.694 13.628C387.109 13.628 387.466 13.537 387.765 13.355C388.068 13.1683 388.302 12.9 388.465 12.55L390.131 13.054C389.842 13.7353 389.394 14.265 388.787 14.643C388.185 15.021 387.52 15.21 386.792 15.21ZM384.188 11.689V10.415H389.389V11.689H384.188ZM395.205 15.21C394.467 15.21 393.849 15.035 393.35 14.685C392.85 14.335 392.475 13.859 392.223 13.257C391.971 12.6503 391.845 11.9713 391.845 11.22C391.845 10.4593 391.971 9.778 392.223 9.176C392.475 8.574 392.843 8.10033 393.329 7.755C393.819 7.405 394.423 7.23 395.142 7.23C395.856 7.23 396.474 7.405 396.997 7.755C397.524 8.10033 397.932 8.574 398.222 9.176C398.511 9.77333 398.656 10.4547 398.656 11.22C398.656 11.976 398.513 12.655 398.229 13.257C397.944 13.859 397.543 14.335 397.025 14.685C396.507 15.035 395.9 15.21 395.205 15.21ZM391.558 18.36V7.44H393.049V12.746H393.259V18.36H391.558ZM394.946 13.698C395.384 13.698 395.746 13.5883 396.031 13.369C396.315 13.1497 396.525 12.8533 396.661 12.48C396.801 12.102 396.871 11.682 396.871 11.22C396.871 10.7627 396.801 10.3473 396.661 9.974C396.521 9.596 396.304 9.29733 396.01 9.078C395.716 8.854 395.342 8.742 394.89 8.742C394.46 8.742 394.11 8.847 393.84 9.057C393.569 9.26233 393.368 9.55167 393.238 9.925C393.112 10.2937 393.049 10.7253 393.049 11.22C393.049 11.71 393.112 12.1417 393.238 12.515C393.368 12.8883 393.571 13.18 393.847 13.39C394.127 13.5953 394.493 13.698 394.946 13.698ZM402.721 14.986V13.516L407.033 9.673C407.369 9.37433 407.603 9.092 407.733 8.826C407.864 8.56 407.929 8.30333 407.929 8.056C407.929 7.72 407.857 7.42133 407.712 7.16C407.568 6.894 407.367 6.684 407.11 6.53C406.858 6.376 406.567 6.299 406.235 6.299C405.885 6.299 405.575 6.38067 405.304 6.544C405.038 6.70267 404.831 6.915 404.681 7.181C404.532 7.447 404.462 7.734 404.471 8.042H402.735C402.735 7.37 402.885 6.78433 403.183 6.285C403.487 5.78567 403.902 5.39833 404.429 5.123C404.961 4.84767 405.575 4.71 406.27 4.71C406.914 4.71 407.493 4.85467 408.006 5.144C408.52 5.42867 408.923 5.82533 409.217 6.334C409.511 6.838 409.658 7.419 409.658 8.077C409.658 8.55767 409.593 8.96133 409.462 9.288C409.332 9.61467 409.136 9.91567 408.874 10.191C408.618 10.4663 408.298 10.772 407.915 11.108L404.856 13.817L404.702 13.397H409.658V14.986H402.721ZM411.852 15L415.324 6.516H410.921V4.92H417.13V6.516L413.672 15H411.852Z" fill="white"/>
<path d="M244.934 127L241.462 116.92H242.533L245.606 125.831L248.7 116.92H249.771L246.299 127H244.934ZM250.687 118.005V116.85H251.716V118.005H250.687ZM250.687 127V119.44H251.716V127H250.687ZM256.748 127.21C256.043 127.21 255.441 127.035 254.942 126.685C254.443 126.33 254.06 125.852 253.794 125.25C253.528 124.648 253.395 123.969 253.395 123.213C253.395 122.462 253.526 121.785 253.787 121.183C254.053 120.581 254.433 120.105 254.928 119.755C255.423 119.405 256.015 119.23 256.706 119.23C257.415 119.23 258.013 119.403 258.498 119.748C258.983 120.093 259.35 120.567 259.597 121.169C259.849 121.766 259.975 122.448 259.975 123.213C259.975 123.964 259.851 124.643 259.604 125.25C259.357 125.852 258.993 126.33 258.512 126.685C258.031 127.035 257.443 127.21 256.748 127.21ZM256.853 126.251C257.39 126.251 257.833 126.12 258.183 125.859C258.533 125.598 258.794 125.238 258.967 124.781C259.14 124.319 259.226 123.796 259.226 123.213C259.226 122.62 259.14 122.098 258.967 121.645C258.794 121.188 258.533 120.831 258.183 120.574C257.838 120.317 257.401 120.189 256.874 120.189C256.333 120.189 255.885 120.322 255.53 120.588C255.175 120.854 254.912 121.216 254.739 121.673C254.571 122.13 254.487 122.644 254.487 123.213C254.487 123.787 254.573 124.305 254.746 124.767C254.923 125.224 255.187 125.586 255.537 125.852C255.887 126.118 256.326 126.251 256.853 126.251ZM259.226 127V121.309H259.114V116.92H260.15V127H259.226ZM265.313 127.21C264.575 127.21 263.936 127.047 263.395 126.72C262.858 126.393 262.44 125.934 262.142 125.341C261.843 124.748 261.694 124.053 261.694 123.255C261.694 122.429 261.841 121.715 262.135 121.113C262.429 120.511 262.842 120.047 263.374 119.72C263.91 119.393 264.543 119.23 265.271 119.23C266.017 119.23 266.654 119.403 267.182 119.748C267.709 120.089 268.108 120.579 268.379 121.218C268.649 121.857 268.773 122.62 268.75 123.507H267.7V123.143C267.681 122.163 267.469 121.423 267.063 120.924C266.661 120.425 266.073 120.175 265.299 120.175C264.487 120.175 263.864 120.439 263.43 120.966C263 121.493 262.786 122.245 262.786 123.22C262.786 124.172 263 124.912 263.43 125.439C263.864 125.962 264.477 126.223 265.271 126.223C265.812 126.223 266.283 126.099 266.685 125.852C267.091 125.6 267.41 125.238 267.644 124.767L268.603 125.138C268.304 125.796 267.863 126.307 267.28 126.671C266.701 127.03 266.045 127.21 265.313 127.21ZM262.422 123.507V122.646H268.197V123.507H262.422ZM273.46 127.21C272.709 127.21 272.067 127.04 271.535 126.699C271.003 126.358 270.595 125.887 270.31 125.285C270.026 124.683 269.883 123.992 269.883 123.213C269.883 122.42 270.028 121.724 270.317 121.127C270.607 120.53 271.017 120.065 271.549 119.734C272.086 119.398 272.723 119.23 273.46 119.23C274.216 119.23 274.86 119.4 275.392 119.741C275.929 120.077 276.337 120.546 276.617 121.148C276.902 121.745 277.044 122.434 277.044 123.213C277.044 124.006 276.902 124.704 276.617 125.306C276.333 125.903 275.922 126.37 275.385 126.706C274.849 127.042 274.207 127.21 273.46 127.21ZM273.46 126.223C274.3 126.223 274.926 125.945 275.336 125.39C275.747 124.83 275.952 124.104 275.952 123.213C275.952 122.298 275.745 121.57 275.329 121.029C274.919 120.488 274.296 120.217 273.46 120.217C272.896 120.217 272.429 120.345 272.06 120.602C271.696 120.854 271.423 121.206 271.241 121.659C271.064 122.107 270.975 122.625 270.975 123.213C270.975 124.123 271.185 124.853 271.605 125.404C272.025 125.95 272.644 126.223 273.46 126.223ZM219.674 147L223.146 136.92H224.511L227.983 147H226.912L223.615 137.494H224.021L220.745 147H219.674ZM221.221 144.557V143.591H226.429V144.557H221.221ZM232.068 147.203C231.181 147.203 230.451 147.012 229.877 146.629C229.307 146.246 228.957 145.714 228.827 145.033L229.877 144.858C229.989 145.287 230.243 145.63 230.64 145.887C231.041 146.139 231.536 146.265 232.124 146.265C232.698 146.265 233.15 146.146 233.482 145.908C233.813 145.665 233.979 145.336 233.979 144.921C233.979 144.688 233.925 144.499 233.818 144.354C233.715 144.205 233.503 144.067 233.181 143.941C232.859 143.815 232.378 143.666 231.739 143.493C231.053 143.306 230.516 143.12 230.129 142.933C229.741 142.746 229.466 142.532 229.303 142.289C229.139 142.042 229.058 141.741 229.058 141.386C229.058 140.957 229.179 140.581 229.422 140.259C229.664 139.932 230 139.68 230.43 139.503C230.859 139.321 231.358 139.23 231.928 139.23C232.497 139.23 233.006 139.323 233.454 139.51C233.906 139.692 234.27 139.949 234.546 140.28C234.821 140.611 234.984 140.996 235.036 141.435L233.986 141.624C233.916 141.181 233.694 140.831 233.321 140.574C232.952 140.313 232.483 140.177 231.914 140.168C231.377 140.154 230.941 140.257 230.605 140.476C230.269 140.691 230.101 140.978 230.101 141.337C230.101 141.538 230.161 141.71 230.283 141.855C230.404 141.995 230.623 142.128 230.941 142.254C231.263 142.38 231.72 142.518 232.313 142.667C233.008 142.844 233.554 143.031 233.951 143.227C234.347 143.423 234.63 143.654 234.798 143.92C234.966 144.186 235.05 144.515 235.05 144.907C235.05 145.621 234.784 146.183 234.252 146.594C233.724 147 232.996 147.203 232.068 147.203ZM239.423 147.203C238.536 147.203 237.806 147.012 237.232 146.629C236.663 146.246 236.313 145.714 236.182 145.033L237.232 144.858C237.344 145.287 237.598 145.63 237.995 145.887C238.396 146.139 238.891 146.265 239.479 146.265C240.053 146.265 240.506 146.146 240.837 145.908C241.168 145.665 241.334 145.336 241.334 144.921C241.334 144.688 241.28 144.499 241.173 144.354C241.07 144.205 240.858 144.067 240.536 143.941C240.214 143.815 239.733 143.666 239.094 143.493C238.408 143.306 237.871 143.12 237.484 142.933C237.097 142.746 236.821 142.532 236.658 142.289C236.495 142.042 236.413 141.741 236.413 141.386C236.413 140.957 236.534 140.581 236.777 140.259C237.02 139.932 237.356 139.68 237.785 139.503C238.214 139.321 238.714 139.23 239.283 139.23C239.852 139.23 240.361 139.323 240.809 139.51C241.262 139.692 241.626 139.949 241.901 140.28C242.176 140.611 242.34 140.996 242.391 141.435L241.341 141.624C241.271 141.181 241.049 140.831 240.676 140.574C240.307 140.313 239.838 140.177 239.269 140.168C238.732 140.154 238.296 140.257 237.96 140.476C237.624 140.691 237.456 140.978 237.456 141.337C237.456 141.538 237.517 141.71 237.638 141.855C237.759 141.995 237.979 142.128 238.296 142.254C238.618 142.38 239.075 142.518 239.668 142.667C240.363 142.844 240.909 143.031 241.306 143.227C241.703 143.423 241.985 143.654 242.153 143.92C242.321 144.186 242.405 144.515 242.405 144.907C242.405 145.621 242.139 146.183 241.607 146.594C241.08 147 240.352 147.203 239.423 147.203ZM247.157 147.21C246.419 147.21 245.78 147.047 245.239 146.72C244.702 146.393 244.284 145.934 243.986 145.341C243.687 144.748 243.538 144.053 243.538 143.255C243.538 142.429 243.685 141.715 243.979 141.113C244.273 140.511 244.686 140.047 245.218 139.72C245.754 139.393 246.387 139.23 247.115 139.23C247.861 139.23 248.498 139.403 249.026 139.748C249.553 140.089 249.952 140.579 250.223 141.218C250.493 141.857 250.617 142.62 250.594 143.507H249.544V143.143C249.525 142.163 249.313 141.423 248.907 140.924C248.505 140.425 247.917 140.175 247.143 140.175C246.331 140.175 245.708 140.439 245.274 140.966C244.844 141.493 244.63 142.245 244.63 143.22C244.63 144.172 244.844 144.912 245.274 145.439C245.708 145.962 246.321 146.223 247.115 146.223C247.656 146.223 248.127 146.099 248.529 145.852C248.935 145.6 249.254 145.238 249.488 144.767L250.447 145.138C250.148 145.796 249.707 146.307 249.124 146.671C248.545 147.03 247.889 147.21 247.157 147.21ZM244.266 143.507V142.646H250.041V143.507H244.266ZM254.968 147.203C254.081 147.203 253.351 147.012 252.777 146.629C252.208 146.246 251.858 145.714 251.727 145.033L252.777 144.858C252.889 145.287 253.143 145.63 253.54 145.887C253.941 146.139 254.436 146.265 255.024 146.265C255.598 146.265 256.051 146.146 256.382 145.908C256.713 145.665 256.879 145.336 256.879 144.921C256.879 144.688 256.825 144.499 256.718 144.354C256.615 144.205 256.403 144.067 256.081 143.941C255.759 143.815 255.278 143.666 254.639 143.493C253.953 143.306 253.416 143.12 253.029 142.933C252.642 142.746 252.366 142.532 252.203 142.289C252.04 142.042 251.958 141.741 251.958 141.386C251.958 140.957 252.079 140.581 252.322 140.259C252.565 139.932 252.901 139.68 253.33 139.503C253.759 139.321 254.259 139.23 254.828 139.23C255.397 139.23 255.906 139.323 256.354 139.51C256.807 139.692 257.171 139.949 257.446 140.28C257.721 140.611 257.885 140.996 257.936 141.435L256.886 141.624C256.816 141.181 256.594 140.831 256.221 140.574C255.852 140.313 255.383 140.177 254.814 140.168C254.277 140.154 253.841 140.257 253.505 140.476C253.169 140.691 253.001 140.978 253.001 141.337C253.001 141.538 253.062 141.71 253.183 141.855C253.304 141.995 253.524 142.128 253.841 142.254C254.163 142.38 254.62 142.518 255.213 142.667C255.908 142.844 256.454 143.031 256.851 143.227C257.248 143.423 257.53 143.654 257.698 143.92C257.866 144.186 257.95 144.515 257.95 144.907C257.95 145.621 257.684 146.183 257.152 146.594C256.625 147 255.897 147.203 254.968 147.203ZM262.323 147.203C261.437 147.203 260.706 147.012 260.132 146.629C259.563 146.246 259.213 145.714 259.082 145.033L260.132 144.858C260.244 145.287 260.499 145.63 260.895 145.887C261.297 146.139 261.791 146.265 262.379 146.265C262.953 146.265 263.406 146.146 263.737 145.908C264.069 145.665 264.234 145.336 264.234 144.921C264.234 144.688 264.181 144.499 264.073 144.354C263.971 144.205 263.758 144.067 263.436 143.941C263.114 143.815 262.634 143.666 261.994 143.493C261.308 143.306 260.772 143.12 260.384 142.933C259.997 142.746 259.722 142.532 259.558 142.289C259.395 142.042 259.313 141.741 259.313 141.386C259.313 140.957 259.435 140.581 259.677 140.259C259.92 139.932 260.256 139.68 260.685 139.503C261.115 139.321 261.614 139.23 262.183 139.23C262.753 139.23 263.261 139.323 263.709 139.51C264.162 139.692 264.526 139.949 264.801 140.28C265.077 140.611 265.24 140.996 265.291 141.435L264.241 141.624C264.171 141.181 263.95 140.831 263.576 140.574C263.208 140.313 262.739 140.177 262.169 140.168C261.633 140.154 261.196 140.257 260.86 140.476C260.524 140.691 260.356 140.978 260.356 141.337C260.356 141.538 260.417 141.71 260.538 141.855C260.66 141.995 260.879 142.128 261.196 142.254C261.518 142.38 261.976 142.518 262.568 142.667C263.264 142.844 263.81 143.031 264.206 143.227C264.603 143.423 264.885 143.654 265.053 143.92C265.221 144.186 265.305 144.515 265.305 144.907C265.305 145.621 265.039 146.183 264.507 146.594C263.98 147 263.252 147.203 262.323 147.203ZM275.874 147L275.881 142.037C275.881 141.454 275.718 140.996 275.391 140.665C275.069 140.329 274.658 140.161 274.159 140.161C273.874 140.161 273.597 140.226 273.326 140.357C273.055 140.488 272.831 140.698 272.654 140.987C272.481 141.276 272.395 141.654 272.395 142.121L271.786 141.946C271.772 141.405 271.877 140.931 272.101 140.525C272.33 140.119 272.642 139.804 273.039 139.58C273.44 139.351 273.893 139.237 274.397 139.237C275.158 139.237 275.767 139.473 276.224 139.944C276.681 140.411 276.91 141.043 276.91 141.841L276.903 147H275.874ZM266.851 147V139.44H267.775V141.302H267.887V147H266.851ZM271.373 147L271.38 142.107C271.38 141.505 271.219 141.031 270.897 140.686C270.58 140.336 270.16 140.161 269.637 140.161C269.114 140.161 268.692 140.341 268.37 140.7C268.048 141.055 267.887 141.528 267.887 142.121L267.271 141.785C267.271 141.3 267.385 140.866 267.614 140.483C267.843 140.096 268.155 139.792 268.552 139.573C268.949 139.349 269.399 139.237 269.903 139.237C270.384 139.237 270.811 139.34 271.184 139.545C271.562 139.75 271.858 140.049 272.073 140.441C272.288 140.833 272.395 141.309 272.395 141.869L272.388 147H271.373ZM281.883 147.21C281.146 147.21 280.506 147.047 279.965 146.72C279.428 146.393 279.011 145.934 278.712 145.341C278.413 144.748 278.264 144.053 278.264 143.255C278.264 142.429 278.411 141.715 278.705 141.113C278.999 140.511 279.412 140.047 279.944 139.72C280.481 139.393 281.113 139.23 281.841 139.23C282.588 139.23 283.225 139.403 283.752 139.748C284.279 140.089 284.678 140.579 284.949 141.218C285.22 141.857 285.343 142.62 285.32 143.507H284.27V143.143C284.251 142.163 284.039 141.423 283.633 140.924C283.232 140.425 282.644 140.175 281.869 140.175C281.057 140.175 280.434 140.439 280 140.966C279.571 141.493 279.356 142.245 279.356 143.22C279.356 144.172 279.571 144.912 280 145.439C280.434 145.962 281.048 146.223 281.841 146.223C282.382 146.223 282.854 146.099 283.255 145.852C283.661 145.6 283.981 145.238 284.214 144.767L285.173 145.138C284.874 145.796 284.433 146.307 283.85 146.671C283.271 147.03 282.616 147.21 281.883 147.21ZM278.992 143.507V142.646H284.767V143.507H278.992ZM292.128 147V143.143C292.128 142.723 292.089 142.338 292.009 141.988C291.93 141.633 291.802 141.325 291.624 141.064C291.452 140.798 291.225 140.593 290.945 140.448C290.67 140.303 290.334 140.231 289.937 140.231C289.573 140.231 289.251 140.294 288.971 140.42C288.696 140.546 288.463 140.728 288.271 140.966C288.085 141.199 287.942 141.484 287.844 141.82C287.746 142.156 287.697 142.539 287.697 142.968L286.969 142.807C286.969 142.032 287.105 141.381 287.375 140.854C287.646 140.327 288.019 139.928 288.495 139.657C288.971 139.386 289.517 139.251 290.133 139.251C290.586 139.251 290.98 139.321 291.316 139.461C291.657 139.601 291.944 139.79 292.177 140.028C292.415 140.266 292.607 140.539 292.751 140.847C292.896 141.15 293.001 141.475 293.066 141.82C293.132 142.161 293.164 142.501 293.164 142.842V147H292.128ZM286.661 147V139.44H287.592V141.302H287.697V147H286.661ZM299.097 147C298.672 147.089 298.252 147.124 297.837 147.105C297.426 147.086 297.058 146.998 296.731 146.839C296.409 146.68 296.164 146.433 295.996 146.097C295.861 145.817 295.786 145.535 295.772 145.25C295.763 144.961 295.758 144.632 295.758 144.263V137.34H296.78V144.221C296.78 144.538 296.782 144.804 296.787 145.019C296.796 145.229 296.845 145.416 296.934 145.579C297.102 145.892 297.368 146.078 297.732 146.139C298.101 146.2 298.556 146.186 299.097 146.097V147ZM294.141 140.322V139.44H299.097V140.322H294.141Z" fill="white"/>
<path d="M376.188 127L373.276 116.92H374.347L376.706 125.243L379.051 116.927L380.129 116.92L382.488 125.243L384.833 116.92H385.911L383.006 127H381.97L379.59 118.733L377.224 127H376.188ZM386.989 118.005V116.85H388.018V118.005H386.989ZM386.989 127V119.44H388.018V127H386.989ZM395.577 127V123.143C395.577 122.723 395.537 122.338 395.458 121.988C395.378 121.633 395.25 121.325 395.073 121.064C394.9 120.798 394.674 120.593 394.394 120.448C394.118 120.303 393.782 120.231 393.386 120.231C393.022 120.231 392.7 120.294 392.42 120.42C392.144 120.546 391.911 120.728 391.72 120.966C391.533 121.199 391.391 121.484 391.293 121.82C391.195 122.156 391.146 122.539 391.146 122.968L390.418 122.807C390.418 122.032 390.553 121.381 390.824 120.854C391.094 120.327 391.468 119.928 391.944 119.657C392.42 119.386 392.966 119.251 393.582 119.251C394.034 119.251 394.429 119.321 394.765 119.461C395.105 119.601 395.392 119.79 395.626 120.028C395.864 120.266 396.055 120.539 396.2 120.847C396.344 121.15 396.449 121.475 396.515 121.82C396.58 122.161 396.613 122.501 396.613 122.842V127H395.577ZM390.11 127V119.44H391.041V121.302H391.146V127H390.11ZM403.889 127V123.143C403.889 122.723 403.85 122.338 403.77 121.988C403.691 121.633 403.563 121.325 403.385 121.064C403.213 120.798 402.986 120.593 402.706 120.448C402.431 120.303 402.095 120.231 401.698 120.231C401.334 120.231 401.012 120.294 400.732 120.42C400.457 120.546 400.224 120.728 400.032 120.966C399.846 121.199 399.703 121.484 399.605 121.82C399.507 122.156 399.458 122.539 399.458 122.968L398.73 122.807C398.73 122.032 398.866 121.381 399.136 120.854C399.407 120.327 399.78 119.928 400.256 119.657C400.732 119.386 401.278 119.251 401.894 119.251C402.347 119.251 402.741 119.321 403.077 119.461C403.418 119.601 403.705 119.79 403.938 120.028C404.176 120.266 404.368 120.539 404.512 120.847C404.657 121.15 404.762 121.475 404.827 121.82C404.893 122.161 404.925 122.501 404.925 122.842V127H403.889ZM398.422 127V119.44H399.353V121.302H399.458V127H398.422ZM409.9 127.21C409.162 127.21 408.523 127.047 407.982 126.72C407.445 126.393 407.027 125.934 406.729 125.341C406.43 124.748 406.281 124.053 406.281 123.255C406.281 122.429 406.428 121.715 406.722 121.113C407.016 120.511 407.429 120.047 407.961 119.72C408.497 119.393 409.13 119.23 409.858 119.23C410.604 119.23 411.241 119.403 411.769 119.748C412.296 120.089 412.695 120.579 412.966 121.218C413.236 121.857 413.36 122.62 413.337 123.507H412.287V123.143C412.268 122.163 412.056 121.423 411.65 120.924C411.248 120.425 410.66 120.175 409.886 120.175C409.074 120.175 408.451 120.439 408.017 120.966C407.587 121.493 407.373 122.245 407.373 123.22C407.373 124.172 407.587 124.912 408.017 125.439C408.451 125.962 409.064 126.223 409.858 126.223C410.399 126.223 410.87 126.099 411.272 125.852C411.678 125.6 411.997 125.238 412.231 124.767L413.19 125.138C412.891 125.796 412.45 126.307 411.867 126.671C411.288 127.03 410.632 127.21 409.9 127.21ZM407.009 123.507V122.646H412.784V123.507H407.009ZM414.89 127V119.44H415.814V121.26L415.632 121.022C415.716 120.798 415.826 120.593 415.961 120.406C416.096 120.215 416.243 120.058 416.402 119.937C416.598 119.764 416.827 119.634 417.088 119.545C417.349 119.452 417.613 119.398 417.879 119.384C418.145 119.365 418.388 119.384 418.607 119.44V120.406C418.332 120.336 418.031 120.32 417.704 120.357C417.377 120.394 417.076 120.525 416.801 120.749C416.549 120.945 416.36 121.181 416.234 121.456C416.108 121.727 416.024 122.016 415.982 122.324C415.94 122.627 415.919 122.928 415.919 123.227V127H414.89ZM346.487 147L349.959 136.92H351.324L354.796 147H353.725L350.428 137.494H350.834L347.558 147H346.487ZM348.034 144.557V143.591H353.242V144.557H348.034ZM361.52 147V143.143C361.52 142.723 361.48 142.338 361.401 141.988C361.322 141.633 361.193 141.325 361.016 141.064C360.843 140.798 360.617 140.593 360.337 140.448C360.062 140.303 359.726 140.231 359.329 140.231C358.965 140.231 358.643 140.294 358.363 140.42C358.088 140.546 357.854 140.728 357.663 140.966C357.476 141.199 357.334 141.484 357.236 141.82C357.138 142.156 357.089 142.539 357.089 142.968L356.361 142.807C356.361 142.032 356.496 141.381 356.767 140.854C357.038 140.327 357.411 139.928 357.887 139.657C358.363 139.386 358.909 139.251 359.525 139.251C359.978 139.251 360.372 139.321 360.708 139.461C361.049 139.601 361.336 139.79 361.569 140.028C361.807 140.266 361.998 140.539 362.143 140.847C362.288 141.15 362.393 141.475 362.458 141.82C362.523 142.161 362.556 142.501 362.556 142.842V147H361.52ZM356.053 147V139.44H356.984V141.302H357.089V147H356.053ZM369.833 147V143.143C369.833 142.723 369.793 142.338 369.714 141.988C369.634 141.633 369.506 141.325 369.329 141.064C369.156 140.798 368.93 140.593 368.65 140.448C368.374 140.303 368.038 140.231 367.642 140.231C367.278 140.231 366.956 140.294 366.676 140.42C366.4 140.546 366.167 140.728 365.976 140.966C365.789 141.199 365.647 141.484 365.549 141.82C365.451 142.156 365.402 142.539 365.402 142.968L364.674 142.807C364.674 142.032 364.809 141.381 365.08 140.854C365.35 140.327 365.724 139.928 366.2 139.657C366.676 139.386 367.222 139.251 367.838 139.251C368.29 139.251 368.685 139.321 369.021 139.461C369.361 139.601 369.648 139.79 369.882 140.028C370.12 140.266 370.311 140.539 370.456 140.847C370.6 141.15 370.705 141.475 370.771 141.82C370.836 142.161 370.869 142.501 370.869 142.842V147H369.833ZM364.366 147V139.44H365.297V141.302H365.402V147H364.366ZM375.801 147.21C375.05 147.21 374.408 147.04 373.876 146.699C373.344 146.358 372.936 145.887 372.651 145.285C372.366 144.683 372.224 143.992 372.224 143.213C372.224 142.42 372.369 141.724 372.658 141.127C372.947 140.53 373.358 140.065 373.89 139.734C374.427 139.398 375.064 139.23 375.801 139.23C376.557 139.23 377.201 139.4 377.733 139.741C378.27 140.077 378.678 140.546 378.958 141.148C379.243 141.745 379.385 142.434 379.385 143.213C379.385 144.006 379.243 144.704 378.958 145.306C378.673 145.903 378.263 146.37 377.726 146.706C377.189 147.042 376.548 147.21 375.801 147.21ZM375.801 146.223C376.641 146.223 377.266 145.945 377.677 145.39C378.088 144.83 378.293 144.104 378.293 143.213C378.293 142.298 378.085 141.57 377.67 141.029C377.259 140.488 376.636 140.217 375.801 140.217C375.236 140.217 374.77 140.345 374.401 140.602C374.037 140.854 373.764 141.206 373.582 141.659C373.405 142.107 373.316 142.625 373.316 143.213C373.316 144.123 373.526 144.853 373.946 145.404C374.366 145.95 374.984 146.223 375.801 146.223ZM383.82 147.189C383.368 147.189 382.971 147.119 382.63 146.979C382.294 146.839 382.007 146.65 381.769 146.412C381.536 146.174 381.347 145.903 381.202 145.6C381.058 145.292 380.953 144.968 380.887 144.627C380.822 144.282 380.789 143.939 380.789 143.598V139.44H381.825V143.297C381.825 143.712 381.865 144.097 381.944 144.452C382.024 144.807 382.15 145.117 382.322 145.383C382.5 145.644 382.726 145.847 383.001 145.992C383.281 146.137 383.62 146.209 384.016 146.209C384.38 146.209 384.7 146.146 384.975 146.02C385.255 145.894 385.489 145.714 385.675 145.481C385.867 145.243 386.011 144.956 386.109 144.62C386.207 144.279 386.256 143.897 386.256 143.472L386.984 143.633C386.984 144.408 386.849 145.059 386.578 145.586C386.308 146.113 385.934 146.512 385.458 146.783C384.982 147.054 384.436 147.189 383.82 147.189ZM386.361 147V145.138H386.256V139.44H387.285V147H386.361ZM394.702 147V143.143C394.702 142.723 394.662 142.338 394.583 141.988C394.503 141.633 394.375 141.325 394.198 141.064C394.025 140.798 393.799 140.593 393.519 140.448C393.243 140.303 392.907 140.231 392.511 140.231C392.147 140.231 391.825 140.294 391.545 140.42C391.269 140.546 391.036 140.728 390.845 140.966C390.658 141.199 390.516 141.484 390.418 141.82C390.32 142.156 390.271 142.539 390.271 142.968L389.543 142.807C389.543 142.032 389.678 141.381 389.949 140.854C390.219 140.327 390.593 139.928 391.069 139.657C391.545 139.386 392.091 139.251 392.707 139.251C393.159 139.251 393.554 139.321 393.89 139.461C394.23 139.601 394.517 139.79 394.751 140.028C394.989 140.266 395.18 140.539 395.325 140.847C395.469 141.15 395.574 141.475 395.64 141.82C395.705 142.161 395.738 142.501 395.738 142.842V147H394.702ZM389.235 147V139.44H390.166V141.302H390.271V147H389.235ZM400.649 147.21C399.889 147.21 399.245 147.04 398.717 146.699C398.19 146.358 397.789 145.889 397.513 145.292C397.243 144.69 397.103 143.999 397.093 143.22C397.103 142.427 397.247 141.731 397.527 141.134C397.807 140.532 398.211 140.065 398.738 139.734C399.266 139.398 399.905 139.23 400.656 139.23C401.422 139.23 402.087 139.417 402.651 139.79C403.221 140.163 403.61 140.674 403.82 141.323L402.812 141.645C402.635 141.192 402.353 140.842 401.965 140.595C401.583 140.343 401.144 140.217 400.649 140.217C400.094 140.217 399.634 140.345 399.27 140.602C398.906 140.854 398.636 141.206 398.458 141.659C398.281 142.112 398.19 142.632 398.185 143.22C398.195 144.125 398.405 144.853 398.815 145.404C399.226 145.95 399.837 146.223 400.649 146.223C401.163 146.223 401.599 146.106 401.958 145.873C402.322 145.635 402.598 145.29 402.784 144.837L403.82 145.145C403.54 145.817 403.13 146.33 402.588 146.685C402.047 147.035 401.401 147.21 400.649 147.21ZM408.259 147.21C407.522 147.21 406.882 147.047 406.341 146.72C405.804 146.393 405.387 145.934 405.088 145.341C404.789 144.748 404.64 144.053 404.64 143.255C404.64 142.429 404.787 141.715 405.081 141.113C405.375 140.511 405.788 140.047 406.32 139.72C406.857 139.393 407.489 139.23 408.217 139.23C408.964 139.23 409.601 139.403 410.128 139.748C410.655 140.089 411.054 140.579 411.325 141.218C411.596 141.857 411.719 142.62 411.696 143.507H410.646V143.143C410.627 142.163 410.415 141.423 410.009 140.924C409.608 140.425 409.02 140.175 408.245 140.175C407.433 140.175 406.81 140.439 406.376 140.966C405.947 141.493 405.732 142.245 405.732 143.22C405.732 144.172 405.947 144.912 406.376 145.439C406.81 145.962 407.424 146.223 408.217 146.223C408.758 146.223 409.23 146.099 409.631 145.852C410.037 145.6 410.357 145.238 410.59 144.767L411.549 145.138C411.25 145.796 410.809 146.307 410.226 146.671C409.647 147.03 408.992 147.21 408.259 147.21ZM405.368 143.507V142.646H411.143V143.507H405.368ZM422.06 147L422.067 142.037C422.067 141.454 421.904 140.996 421.577 140.665C421.255 140.329 420.845 140.161 420.345 140.161C420.061 140.161 419.783 140.226 419.512 140.357C419.242 140.488 419.018 140.698 418.84 140.987C418.668 141.276 418.581 141.654 418.581 142.121L417.972 141.946C417.958 141.405 418.063 140.931 418.287 140.525C418.516 140.119 418.829 139.804 419.225 139.58C419.627 139.351 420.079 139.237 420.583 139.237C421.344 139.237 421.953 139.473 422.41 139.944C422.868 140.411 423.096 141.043 423.096 141.841L423.089 147H422.06ZM413.037 147V139.44H413.961V141.302H414.073V147H413.037ZM417.559 147L417.566 142.107C417.566 141.505 417.405 141.031 417.083 140.686C416.766 140.336 416.346 140.161 415.823 140.161C415.301 140.161 414.878 140.341 414.556 140.7C414.234 141.055 414.073 141.528 414.073 142.121L413.457 141.785C413.457 141.3 413.572 140.866 413.8 140.483C414.029 140.096 414.342 139.792 414.738 139.573C415.135 139.349 415.585 139.237 416.089 139.237C416.57 139.237 416.997 139.34 417.37 139.545C417.748 139.75 418.045 140.049 418.259 140.441C418.474 140.833 418.581 141.309 418.581 141.869L418.574 147H417.559ZM428.07 147.21C427.332 147.21 426.693 147.047 426.152 146.72C425.615 146.393 425.197 145.934 424.899 145.341C424.6 144.748 424.451 144.053 424.451 143.255C424.451 142.429 424.598 141.715 424.892 141.113C425.186 140.511 425.599 140.047 426.131 139.72C426.667 139.393 427.3 139.23 428.028 139.23C428.774 139.23 429.411 139.403 429.939 139.748C430.466 140.089 430.865 140.579 431.136 141.218C431.406 141.857 431.53 142.62 431.507 143.507H430.457V143.143C430.438 142.163 430.226 141.423 429.82 140.924C429.418 140.425 428.83 140.175 428.056 140.175C427.244 140.175 426.621 140.439 426.187 140.966C425.757 141.493 425.543 142.245 425.543 143.22C425.543 144.172 425.757 144.912 426.187 145.439C426.621 145.962 427.234 146.223 428.028 146.223C428.569 146.223 429.04 146.099 429.442 145.852C429.848 145.6 430.167 145.238 430.401 144.767L431.36 145.138C431.061 145.796 430.62 146.307 430.037 146.671C429.458 147.03 428.802 147.21 428.07 147.21ZM425.179 143.507V142.646H430.954V143.507H425.179ZM438.315 147V143.143C438.315 142.723 438.275 142.338 438.196 141.988C438.117 141.633 437.988 141.325 437.811 141.064C437.638 140.798 437.412 140.593 437.132 140.448C436.857 140.303 436.521 140.231 436.124 140.231C435.76 140.231 435.438 140.294 435.158 140.42C434.883 140.546 434.649 140.728 434.458 140.966C434.271 141.199 434.129 141.484 434.031 141.82C433.933 142.156 433.884 142.539 433.884 142.968L433.156 142.807C433.156 142.032 433.291 141.381 433.562 140.854C433.833 140.327 434.206 139.928 434.682 139.657C435.158 139.386 435.704 139.251 436.32 139.251C436.773 139.251 437.167 139.321 437.503 139.461C437.844 139.601 438.131 139.79 438.364 140.028C438.602 140.266 438.793 140.539 438.938 140.847C439.083 141.15 439.188 141.475 439.253 141.82C439.318 142.161 439.351 142.501 439.351 142.842V147H438.315ZM432.848 147V139.44H433.779V141.302H433.884V147H432.848ZM445.284 147C444.859 147.089 444.439 147.124 444.024 147.105C443.613 147.086 443.244 146.998 442.918 146.839C442.596 146.68 442.351 146.433 442.183 146.097C442.047 145.817 441.973 145.535 441.959 145.25C441.949 144.961 441.945 144.632 441.945 144.263V137.34H442.967V144.221C442.967 144.538 442.969 144.804 442.974 145.019C442.983 145.229 443.032 145.416 443.121 145.579C443.289 145.892 443.555 146.078 443.919 146.139C444.287 146.2 444.742 146.186 445.284 146.097V147ZM440.328 140.322V139.44H445.284V140.322H440.328Z" fill="white"/>
</svg>
